G75*
G70*
%OFA0B0*%
%FSLAX24Y24*%
%IPPOS*%
%LPD*%
%AMOC8*
5,1,8,0,0,1.08239X$1,22.5*
%
%ADD10C,0.0000*%
%ADD11C,0.0100*%
%ADD12C,0.0001*%
%ADD13C,0.0020*%
%ADD14C,0.0010*%
%ADD15C,0.0040*%
%ADD16C,0.0060*%
%ADD17R,0.0340X0.0240*%
%ADD18C,0.0050*%
%ADD19R,0.0800X0.0200*%
%ADD20R,0.0200X0.0750*%
D10*
X000103Y000105D02*
X021473Y000105D01*
X021473Y017601D01*
X000103Y017601D01*
X000103Y000105D01*
X000855Y001101D02*
X000857Y001122D01*
X000863Y001142D01*
X000872Y001162D01*
X000884Y001179D01*
X000899Y001193D01*
X000917Y001205D01*
X000937Y001213D01*
X000957Y001218D01*
X000978Y001219D01*
X000999Y001216D01*
X001019Y001210D01*
X001038Y001199D01*
X001055Y001186D01*
X001068Y001170D01*
X001079Y001152D01*
X001087Y001132D01*
X001091Y001112D01*
X001091Y001090D01*
X001087Y001070D01*
X001079Y001050D01*
X001068Y001032D01*
X001055Y001016D01*
X001038Y001003D01*
X001019Y000992D01*
X000999Y000986D01*
X000978Y000983D01*
X000957Y000984D01*
X000937Y000989D01*
X000917Y000997D01*
X000899Y001009D01*
X000884Y001023D01*
X000872Y001040D01*
X000863Y001060D01*
X000857Y001080D01*
X000855Y001101D01*
X020355Y001101D02*
X020357Y001122D01*
X020363Y001142D01*
X020372Y001162D01*
X020384Y001179D01*
X020399Y001193D01*
X020417Y001205D01*
X020437Y001213D01*
X020457Y001218D01*
X020478Y001219D01*
X020499Y001216D01*
X020519Y001210D01*
X020538Y001199D01*
X020555Y001186D01*
X020568Y001170D01*
X020579Y001152D01*
X020587Y001132D01*
X020591Y001112D01*
X020591Y001090D01*
X020587Y001070D01*
X020579Y001050D01*
X020568Y001032D01*
X020555Y001016D01*
X020538Y001003D01*
X020519Y000992D01*
X020499Y000986D01*
X020478Y000983D01*
X020457Y000984D01*
X020437Y000989D01*
X020417Y000997D01*
X020399Y001009D01*
X020384Y001023D01*
X020372Y001040D01*
X020363Y001060D01*
X020357Y001080D01*
X020355Y001101D01*
X020020Y009731D02*
X020022Y009773D01*
X020028Y009815D01*
X020038Y009857D01*
X020051Y009897D01*
X020069Y009936D01*
X020090Y009973D01*
X020114Y010007D01*
X020142Y010040D01*
X020172Y010070D01*
X020205Y010096D01*
X020240Y010120D01*
X020278Y010140D01*
X020317Y010156D01*
X020357Y010169D01*
X020399Y010178D01*
X020441Y010183D01*
X020484Y010184D01*
X020526Y010181D01*
X020568Y010174D01*
X020609Y010163D01*
X020649Y010148D01*
X020687Y010130D01*
X020724Y010108D01*
X020758Y010083D01*
X020790Y010055D01*
X020818Y010024D01*
X020844Y009990D01*
X020867Y009954D01*
X020886Y009917D01*
X020902Y009877D01*
X020914Y009836D01*
X020922Y009795D01*
X020926Y009752D01*
X020926Y009710D01*
X020922Y009667D01*
X020914Y009626D01*
X020902Y009585D01*
X020886Y009545D01*
X020867Y009508D01*
X020844Y009472D01*
X020818Y009438D01*
X020790Y009407D01*
X020758Y009379D01*
X020724Y009354D01*
X020687Y009332D01*
X020649Y009314D01*
X020609Y009299D01*
X020568Y009288D01*
X020526Y009281D01*
X020484Y009278D01*
X020441Y009279D01*
X020399Y009284D01*
X020357Y009293D01*
X020317Y009306D01*
X020278Y009322D01*
X020240Y009342D01*
X020205Y009366D01*
X020172Y009392D01*
X020142Y009422D01*
X020114Y009455D01*
X020090Y009489D01*
X020069Y009526D01*
X020051Y009565D01*
X020038Y009605D01*
X020028Y009647D01*
X020022Y009689D01*
X020020Y009731D01*
X020020Y014471D02*
X020022Y014513D01*
X020028Y014555D01*
X020038Y014597D01*
X020051Y014637D01*
X020069Y014676D01*
X020090Y014713D01*
X020114Y014747D01*
X020142Y014780D01*
X020172Y014810D01*
X020205Y014836D01*
X020240Y014860D01*
X020278Y014880D01*
X020317Y014896D01*
X020357Y014909D01*
X020399Y014918D01*
X020441Y014923D01*
X020484Y014924D01*
X020526Y014921D01*
X020568Y014914D01*
X020609Y014903D01*
X020649Y014888D01*
X020687Y014870D01*
X020724Y014848D01*
X020758Y014823D01*
X020790Y014795D01*
X020818Y014764D01*
X020844Y014730D01*
X020867Y014694D01*
X020886Y014657D01*
X020902Y014617D01*
X020914Y014576D01*
X020922Y014535D01*
X020926Y014492D01*
X020926Y014450D01*
X020922Y014407D01*
X020914Y014366D01*
X020902Y014325D01*
X020886Y014285D01*
X020867Y014248D01*
X020844Y014212D01*
X020818Y014178D01*
X020790Y014147D01*
X020758Y014119D01*
X020724Y014094D01*
X020687Y014072D01*
X020649Y014054D01*
X020609Y014039D01*
X020568Y014028D01*
X020526Y014021D01*
X020484Y014018D01*
X020441Y014019D01*
X020399Y014024D01*
X020357Y014033D01*
X020317Y014046D01*
X020278Y014062D01*
X020240Y014082D01*
X020205Y014106D01*
X020172Y014132D01*
X020142Y014162D01*
X020114Y014195D01*
X020090Y014229D01*
X020069Y014266D01*
X020051Y014305D01*
X020038Y014345D01*
X020028Y014387D01*
X020022Y014429D01*
X020020Y014471D01*
X020355Y016601D02*
X020357Y016622D01*
X020363Y016642D01*
X020372Y016662D01*
X020384Y016679D01*
X020399Y016693D01*
X020417Y016705D01*
X020437Y016713D01*
X020457Y016718D01*
X020478Y016719D01*
X020499Y016716D01*
X020519Y016710D01*
X020538Y016699D01*
X020555Y016686D01*
X020568Y016670D01*
X020579Y016652D01*
X020587Y016632D01*
X020591Y016612D01*
X020591Y016590D01*
X020587Y016570D01*
X020579Y016550D01*
X020568Y016532D01*
X020555Y016516D01*
X020538Y016503D01*
X020519Y016492D01*
X020499Y016486D01*
X020478Y016483D01*
X020457Y016484D01*
X020437Y016489D01*
X020417Y016497D01*
X020399Y016509D01*
X020384Y016523D01*
X020372Y016540D01*
X020363Y016560D01*
X020357Y016580D01*
X020355Y016601D01*
X000855Y016601D02*
X000857Y016622D01*
X000863Y016642D01*
X000872Y016662D01*
X000884Y016679D01*
X000899Y016693D01*
X000917Y016705D01*
X000937Y016713D01*
X000957Y016718D01*
X000978Y016719D01*
X000999Y016716D01*
X001019Y016710D01*
X001038Y016699D01*
X001055Y016686D01*
X001068Y016670D01*
X001079Y016652D01*
X001087Y016632D01*
X001091Y016612D01*
X001091Y016590D01*
X001087Y016570D01*
X001079Y016550D01*
X001068Y016532D01*
X001055Y016516D01*
X001038Y016503D01*
X001019Y016492D01*
X000999Y016486D01*
X000978Y016483D01*
X000957Y016484D01*
X000937Y016489D01*
X000917Y016497D01*
X000899Y016509D01*
X000884Y016523D01*
X000872Y016540D01*
X000863Y016560D01*
X000857Y016580D01*
X000855Y016601D01*
D11*
X001754Y011861D02*
X001754Y011561D01*
X001754Y011261D01*
X001954Y011261D02*
X001954Y011561D01*
X001954Y011861D01*
X015973Y014101D02*
X016473Y014101D01*
X016973Y014101D01*
X016973Y013601D01*
X016473Y013951D02*
X016473Y014101D01*
X016973Y015101D01*
X016473Y015101D01*
X016473Y015251D01*
X016473Y015101D02*
X015973Y015101D01*
X016473Y014101D01*
X015973Y014101D02*
X015973Y014601D01*
X018268Y014424D02*
X018268Y009778D01*
X024469Y009778D01*
X024469Y014424D01*
X018268Y014424D01*
X016473Y012101D02*
X016473Y011601D01*
X016973Y011601D01*
X016973Y011751D01*
X016973Y011601D02*
X017473Y011601D01*
X017473Y011101D01*
X017473Y010601D02*
X016973Y010601D01*
X016473Y010601D01*
X016973Y011601D01*
X017473Y010601D01*
X016973Y010601D02*
X016973Y010451D01*
D12*
X020588Y011132D02*
X020569Y011132D01*
X020570Y011132D02*
X020568Y011159D01*
X020562Y011185D01*
X020553Y011210D01*
X020540Y011234D01*
X020524Y011255D01*
X020505Y011274D01*
X020483Y011290D01*
X020460Y011303D01*
X020435Y011312D01*
X020409Y011318D01*
X020382Y011320D01*
X020355Y011318D01*
X020329Y011312D01*
X020304Y011303D01*
X020281Y011290D01*
X020259Y011274D01*
X020240Y011255D01*
X020224Y011234D01*
X020211Y011210D01*
X020202Y011185D01*
X020196Y011159D01*
X020194Y011132D01*
X020176Y011132D01*
X020175Y011132D01*
X020177Y011161D01*
X020183Y011188D01*
X020192Y011215D01*
X020205Y011240D01*
X020222Y011263D01*
X020241Y011283D01*
X020263Y011301D01*
X020287Y011316D01*
X020313Y011327D01*
X020340Y011335D01*
X020368Y011339D01*
X020396Y011339D01*
X020424Y011335D01*
X020451Y011327D01*
X020477Y011316D01*
X020501Y011301D01*
X020523Y011283D01*
X020542Y011263D01*
X020559Y011240D01*
X020572Y011215D01*
X020581Y011188D01*
X020587Y011161D01*
X020589Y011132D01*
X020588Y011132D01*
X020586Y011161D01*
X020580Y011188D01*
X020571Y011214D01*
X020558Y011239D01*
X020542Y011262D01*
X020522Y011283D01*
X020501Y011300D01*
X020477Y011315D01*
X020451Y011326D01*
X020424Y011334D01*
X020396Y011338D01*
X020368Y011338D01*
X020340Y011334D01*
X020313Y011326D01*
X020287Y011315D01*
X020263Y011300D01*
X020242Y011283D01*
X020222Y011262D01*
X020206Y011239D01*
X020193Y011214D01*
X020184Y011188D01*
X020178Y011161D01*
X020176Y011132D01*
X020177Y011132D01*
X020179Y011160D01*
X020185Y011188D01*
X020194Y011214D01*
X020207Y011239D01*
X020223Y011262D01*
X020242Y011282D01*
X020264Y011300D01*
X020288Y011314D01*
X020313Y011325D01*
X020340Y011333D01*
X020368Y011337D01*
X020396Y011337D01*
X020424Y011333D01*
X020451Y011325D01*
X020476Y011314D01*
X020500Y011300D01*
X020522Y011282D01*
X020541Y011262D01*
X020557Y011239D01*
X020570Y011214D01*
X020579Y011188D01*
X020585Y011160D01*
X020587Y011132D01*
X020586Y011132D01*
X020584Y011160D01*
X020578Y011187D01*
X020569Y011214D01*
X020556Y011238D01*
X020540Y011261D01*
X020521Y011281D01*
X020499Y011299D01*
X020476Y011313D01*
X020450Y011324D01*
X020423Y011332D01*
X020396Y011336D01*
X020368Y011336D01*
X020341Y011332D01*
X020314Y011324D01*
X020288Y011313D01*
X020265Y011299D01*
X020243Y011281D01*
X020224Y011261D01*
X020208Y011238D01*
X020195Y011214D01*
X020186Y011187D01*
X020180Y011160D01*
X020178Y011132D01*
X020179Y011132D01*
X020181Y011160D01*
X020187Y011187D01*
X020196Y011213D01*
X020209Y011238D01*
X020225Y011260D01*
X020244Y011281D01*
X020265Y011298D01*
X020289Y011312D01*
X020314Y011323D01*
X020341Y011331D01*
X020368Y011335D01*
X020396Y011335D01*
X020423Y011331D01*
X020450Y011323D01*
X020475Y011312D01*
X020499Y011298D01*
X020520Y011281D01*
X020539Y011260D01*
X020555Y011238D01*
X020568Y011213D01*
X020577Y011187D01*
X020583Y011160D01*
X020585Y011132D01*
X020584Y011132D01*
X020582Y011160D01*
X020576Y011187D01*
X020567Y011213D01*
X020554Y011237D01*
X020539Y011260D01*
X020520Y011280D01*
X020498Y011297D01*
X020475Y011311D01*
X020450Y011322D01*
X020423Y011330D01*
X020396Y011334D01*
X020368Y011334D01*
X020341Y011330D01*
X020314Y011322D01*
X020289Y011311D01*
X020266Y011297D01*
X020244Y011280D01*
X020225Y011260D01*
X020210Y011237D01*
X020197Y011213D01*
X020188Y011187D01*
X020182Y011160D01*
X020180Y011132D01*
X020181Y011132D01*
X020183Y011160D01*
X020189Y011187D01*
X020198Y011212D01*
X020210Y011237D01*
X020226Y011259D01*
X020245Y011279D01*
X020266Y011296D01*
X020290Y011311D01*
X020315Y011321D01*
X020341Y011329D01*
X020368Y011333D01*
X020396Y011333D01*
X020423Y011329D01*
X020449Y011321D01*
X020474Y011311D01*
X020498Y011296D01*
X020519Y011279D01*
X020538Y011259D01*
X020554Y011237D01*
X020566Y011212D01*
X020575Y011187D01*
X020581Y011160D01*
X020583Y011132D01*
X020582Y011132D01*
X020580Y011160D01*
X020574Y011186D01*
X020565Y011212D01*
X020553Y011236D01*
X020537Y011258D01*
X020518Y011278D01*
X020497Y011296D01*
X020474Y011310D01*
X020449Y011320D01*
X020423Y011328D01*
X020396Y011332D01*
X020368Y011332D01*
X020341Y011328D01*
X020315Y011320D01*
X020290Y011310D01*
X020267Y011296D01*
X020246Y011278D01*
X020227Y011258D01*
X020211Y011236D01*
X020199Y011212D01*
X020190Y011186D01*
X020184Y011160D01*
X020182Y011132D01*
X020183Y011132D01*
X020185Y011160D01*
X020190Y011186D01*
X020200Y011212D01*
X020212Y011236D01*
X020228Y011258D01*
X020246Y011278D01*
X020267Y011295D01*
X020291Y011309D01*
X020315Y011320D01*
X020342Y011327D01*
X020368Y011331D01*
X020396Y011331D01*
X020422Y011327D01*
X020449Y011320D01*
X020473Y011309D01*
X020497Y011295D01*
X020518Y011278D01*
X020536Y011258D01*
X020552Y011236D01*
X020564Y011212D01*
X020574Y011186D01*
X020579Y011160D01*
X020581Y011132D01*
X020580Y011132D01*
X020578Y011159D01*
X020573Y011186D01*
X020563Y011211D01*
X020551Y011235D01*
X020535Y011257D01*
X020517Y011277D01*
X020496Y011294D01*
X020473Y011308D01*
X020448Y011319D01*
X020422Y011326D01*
X020395Y011330D01*
X020369Y011330D01*
X020342Y011326D01*
X020316Y011319D01*
X020291Y011308D01*
X020268Y011294D01*
X020247Y011277D01*
X020229Y011257D01*
X020213Y011235D01*
X020201Y011211D01*
X020191Y011186D01*
X020186Y011159D01*
X020184Y011132D01*
X020185Y011132D01*
X020187Y011159D01*
X020192Y011186D01*
X020201Y011211D01*
X020214Y011235D01*
X020229Y011257D01*
X020248Y011276D01*
X020269Y011293D01*
X020292Y011307D01*
X020316Y011318D01*
X020342Y011325D01*
X020369Y011329D01*
X020395Y011329D01*
X020422Y011325D01*
X020448Y011318D01*
X020472Y011307D01*
X020495Y011293D01*
X020516Y011276D01*
X020535Y011257D01*
X020550Y011235D01*
X020563Y011211D01*
X020572Y011186D01*
X020577Y011159D01*
X020579Y011132D01*
X020578Y011132D01*
X020576Y011159D01*
X020571Y011185D01*
X020562Y011210D01*
X020549Y011234D01*
X020534Y011256D01*
X020516Y011275D01*
X020495Y011292D01*
X020472Y011306D01*
X020448Y011317D01*
X020422Y011324D01*
X020395Y011328D01*
X020369Y011328D01*
X020342Y011324D01*
X020316Y011317D01*
X020292Y011306D01*
X020269Y011292D01*
X020248Y011275D01*
X020230Y011256D01*
X020215Y011234D01*
X020202Y011210D01*
X020193Y011185D01*
X020188Y011159D01*
X020186Y011132D01*
X020187Y011132D01*
X020189Y011160D01*
X020195Y011187D01*
X020205Y011213D01*
X020218Y011238D01*
X020235Y011260D01*
X020254Y011280D01*
X020277Y011296D01*
X020301Y011309D01*
X020327Y011319D01*
X020354Y011325D01*
X020382Y011327D01*
X020410Y011325D01*
X020437Y011319D01*
X020463Y011309D01*
X020487Y011296D01*
X020510Y011280D01*
X020529Y011260D01*
X020546Y011238D01*
X020559Y011213D01*
X020569Y011187D01*
X020575Y011160D01*
X020577Y011132D01*
X020576Y011132D01*
X020574Y011160D01*
X020568Y011187D01*
X020558Y011213D01*
X020545Y011237D01*
X020528Y011259D01*
X020509Y011279D01*
X020487Y011295D01*
X020462Y011309D01*
X020437Y011318D01*
X020410Y011324D01*
X020382Y011326D01*
X020354Y011324D01*
X020327Y011318D01*
X020302Y011309D01*
X020277Y011295D01*
X020255Y011279D01*
X020236Y011259D01*
X020219Y011237D01*
X020206Y011213D01*
X020196Y011187D01*
X020190Y011160D01*
X020188Y011132D01*
X020189Y011132D01*
X020191Y011160D01*
X020197Y011187D01*
X020207Y011213D01*
X020220Y011237D01*
X020236Y011259D01*
X020256Y011278D01*
X020278Y011294D01*
X020302Y011308D01*
X020328Y011317D01*
X020355Y011323D01*
X020382Y011325D01*
X020409Y011323D01*
X020436Y011317D01*
X020462Y011308D01*
X020486Y011294D01*
X020508Y011278D01*
X020528Y011259D01*
X020544Y011237D01*
X020557Y011213D01*
X020567Y011187D01*
X020573Y011160D01*
X020575Y011132D01*
X020574Y011132D01*
X020572Y011160D01*
X020566Y011186D01*
X020556Y011212D01*
X020543Y011236D01*
X020527Y011258D01*
X020508Y011277D01*
X020486Y011294D01*
X020462Y011307D01*
X020436Y011316D01*
X020409Y011322D01*
X020382Y011324D01*
X020355Y011322D01*
X020328Y011316D01*
X020302Y011307D01*
X020278Y011294D01*
X020256Y011277D01*
X020237Y011258D01*
X020221Y011236D01*
X020208Y011212D01*
X020198Y011186D01*
X020192Y011160D01*
X020190Y011132D01*
X020191Y011132D01*
X020193Y011160D01*
X020199Y011186D01*
X020208Y011212D01*
X020221Y011236D01*
X020238Y011257D01*
X020257Y011276D01*
X020279Y011293D01*
X020303Y011306D01*
X020328Y011315D01*
X020355Y011321D01*
X020382Y011323D01*
X020409Y011321D01*
X020436Y011315D01*
X020461Y011306D01*
X020485Y011293D01*
X020507Y011276D01*
X020526Y011257D01*
X020543Y011236D01*
X020556Y011212D01*
X020565Y011186D01*
X020571Y011160D01*
X020573Y011132D01*
X020572Y011132D01*
X020570Y011159D01*
X020564Y011186D01*
X020555Y011211D01*
X020542Y011235D01*
X020525Y011257D01*
X020506Y011276D01*
X020485Y011292D01*
X020461Y011305D01*
X020435Y011314D01*
X020409Y011320D01*
X020382Y011322D01*
X020355Y011320D01*
X020329Y011314D01*
X020303Y011305D01*
X020279Y011292D01*
X020258Y011276D01*
X020239Y011257D01*
X020222Y011235D01*
X020209Y011211D01*
X020200Y011186D01*
X020194Y011159D01*
X020192Y011132D01*
X020193Y011132D01*
X020195Y011159D01*
X020201Y011186D01*
X020210Y011211D01*
X020223Y011234D01*
X020239Y011256D01*
X020258Y011275D01*
X020280Y011291D01*
X020304Y011304D01*
X020329Y011313D01*
X020355Y011319D01*
X020382Y011321D01*
X020409Y011319D01*
X020435Y011313D01*
X020460Y011304D01*
X020484Y011291D01*
X020506Y011275D01*
X020525Y011256D01*
X020541Y011234D01*
X020554Y011211D01*
X020563Y011186D01*
X020569Y011159D01*
X020571Y011132D01*
X020982Y011132D02*
X020963Y011132D01*
X020964Y011132D02*
X020962Y011159D01*
X020956Y011185D01*
X020947Y011210D01*
X020934Y011234D01*
X020918Y011255D01*
X020899Y011274D01*
X020877Y011290D01*
X020854Y011303D01*
X020829Y011312D01*
X020803Y011318D01*
X020776Y011320D01*
X020749Y011318D01*
X020723Y011312D01*
X020698Y011303D01*
X020675Y011290D01*
X020653Y011274D01*
X020634Y011255D01*
X020618Y011234D01*
X020605Y011210D01*
X020596Y011185D01*
X020590Y011159D01*
X020588Y011132D01*
X020570Y011132D01*
X020569Y011132D01*
X020571Y011161D01*
X020577Y011188D01*
X020586Y011215D01*
X020599Y011240D01*
X020616Y011263D01*
X020635Y011283D01*
X020657Y011301D01*
X020681Y011316D01*
X020707Y011327D01*
X020734Y011335D01*
X020762Y011339D01*
X020790Y011339D01*
X020818Y011335D01*
X020845Y011327D01*
X020871Y011316D01*
X020895Y011301D01*
X020917Y011283D01*
X020936Y011263D01*
X020953Y011240D01*
X020966Y011215D01*
X020975Y011188D01*
X020981Y011161D01*
X020983Y011132D01*
X020982Y011132D01*
X020980Y011161D01*
X020974Y011188D01*
X020965Y011214D01*
X020952Y011239D01*
X020936Y011262D01*
X020916Y011283D01*
X020895Y011300D01*
X020871Y011315D01*
X020845Y011326D01*
X020818Y011334D01*
X020790Y011338D01*
X020762Y011338D01*
X020734Y011334D01*
X020707Y011326D01*
X020681Y011315D01*
X020657Y011300D01*
X020636Y011283D01*
X020616Y011262D01*
X020600Y011239D01*
X020587Y011214D01*
X020578Y011188D01*
X020572Y011161D01*
X020570Y011132D01*
X020571Y011132D01*
X020573Y011160D01*
X020579Y011188D01*
X020588Y011214D01*
X020601Y011239D01*
X020617Y011262D01*
X020636Y011282D01*
X020658Y011300D01*
X020682Y011314D01*
X020707Y011325D01*
X020734Y011333D01*
X020762Y011337D01*
X020790Y011337D01*
X020818Y011333D01*
X020845Y011325D01*
X020870Y011314D01*
X020894Y011300D01*
X020916Y011282D01*
X020935Y011262D01*
X020951Y011239D01*
X020964Y011214D01*
X020973Y011188D01*
X020979Y011160D01*
X020981Y011132D01*
X020980Y011132D01*
X020978Y011160D01*
X020972Y011187D01*
X020963Y011214D01*
X020950Y011238D01*
X020934Y011261D01*
X020915Y011281D01*
X020893Y011299D01*
X020870Y011313D01*
X020844Y011324D01*
X020817Y011332D01*
X020790Y011336D01*
X020762Y011336D01*
X020735Y011332D01*
X020708Y011324D01*
X020682Y011313D01*
X020659Y011299D01*
X020637Y011281D01*
X020618Y011261D01*
X020602Y011238D01*
X020589Y011214D01*
X020580Y011187D01*
X020574Y011160D01*
X020572Y011132D01*
X020573Y011132D01*
X020575Y011160D01*
X020581Y011187D01*
X020590Y011213D01*
X020603Y011238D01*
X020619Y011260D01*
X020638Y011281D01*
X020659Y011298D01*
X020683Y011312D01*
X020708Y011323D01*
X020735Y011331D01*
X020762Y011335D01*
X020790Y011335D01*
X020817Y011331D01*
X020844Y011323D01*
X020869Y011312D01*
X020893Y011298D01*
X020914Y011281D01*
X020933Y011260D01*
X020949Y011238D01*
X020962Y011213D01*
X020971Y011187D01*
X020977Y011160D01*
X020979Y011132D01*
X020978Y011132D01*
X020976Y011160D01*
X020970Y011187D01*
X020961Y011213D01*
X020948Y011237D01*
X020933Y011260D01*
X020914Y011280D01*
X020892Y011297D01*
X020869Y011311D01*
X020844Y011322D01*
X020817Y011330D01*
X020790Y011334D01*
X020762Y011334D01*
X020735Y011330D01*
X020708Y011322D01*
X020683Y011311D01*
X020660Y011297D01*
X020638Y011280D01*
X020619Y011260D01*
X020604Y011237D01*
X020591Y011213D01*
X020582Y011187D01*
X020576Y011160D01*
X020574Y011132D01*
X020575Y011132D01*
X020577Y011160D01*
X020583Y011187D01*
X020592Y011212D01*
X020604Y011237D01*
X020620Y011259D01*
X020639Y011279D01*
X020660Y011296D01*
X020684Y011311D01*
X020709Y011321D01*
X020735Y011329D01*
X020762Y011333D01*
X020790Y011333D01*
X020817Y011329D01*
X020843Y011321D01*
X020868Y011311D01*
X020892Y011296D01*
X020913Y011279D01*
X020932Y011259D01*
X020948Y011237D01*
X020960Y011212D01*
X020969Y011187D01*
X020975Y011160D01*
X020977Y011132D01*
X020976Y011132D01*
X020974Y011160D01*
X020968Y011186D01*
X020959Y011212D01*
X020947Y011236D01*
X020931Y011258D01*
X020912Y011278D01*
X020891Y011296D01*
X020868Y011310D01*
X020843Y011320D01*
X020817Y011328D01*
X020790Y011332D01*
X020762Y011332D01*
X020735Y011328D01*
X020709Y011320D01*
X020684Y011310D01*
X020661Y011296D01*
X020640Y011278D01*
X020621Y011258D01*
X020605Y011236D01*
X020593Y011212D01*
X020584Y011186D01*
X020578Y011160D01*
X020576Y011132D01*
X020577Y011132D01*
X020579Y011160D01*
X020584Y011186D01*
X020594Y011212D01*
X020606Y011236D01*
X020622Y011258D01*
X020640Y011278D01*
X020661Y011295D01*
X020685Y011309D01*
X020709Y011320D01*
X020736Y011327D01*
X020762Y011331D01*
X020790Y011331D01*
X020816Y011327D01*
X020843Y011320D01*
X020867Y011309D01*
X020891Y011295D01*
X020912Y011278D01*
X020930Y011258D01*
X020946Y011236D01*
X020958Y011212D01*
X020968Y011186D01*
X020973Y011160D01*
X020975Y011132D01*
X020974Y011132D01*
X020972Y011159D01*
X020967Y011186D01*
X020957Y011211D01*
X020945Y011235D01*
X020929Y011257D01*
X020911Y011277D01*
X020890Y011294D01*
X020867Y011308D01*
X020842Y011319D01*
X020816Y011326D01*
X020789Y011330D01*
X020763Y011330D01*
X020736Y011326D01*
X020710Y011319D01*
X020685Y011308D01*
X020662Y011294D01*
X020641Y011277D01*
X020623Y011257D01*
X020607Y011235D01*
X020595Y011211D01*
X020585Y011186D01*
X020580Y011159D01*
X020578Y011132D01*
X020579Y011132D01*
X020581Y011159D01*
X020586Y011186D01*
X020595Y011211D01*
X020608Y011235D01*
X020623Y011257D01*
X020642Y011276D01*
X020663Y011293D01*
X020686Y011307D01*
X020710Y011318D01*
X020736Y011325D01*
X020763Y011329D01*
X020789Y011329D01*
X020816Y011325D01*
X020842Y011318D01*
X020866Y011307D01*
X020889Y011293D01*
X020910Y011276D01*
X020929Y011257D01*
X020944Y011235D01*
X020957Y011211D01*
X020966Y011186D01*
X020971Y011159D01*
X020973Y011132D01*
X020972Y011132D01*
X020970Y011159D01*
X020965Y011185D01*
X020956Y011210D01*
X020943Y011234D01*
X020928Y011256D01*
X020910Y011275D01*
X020889Y011292D01*
X020866Y011306D01*
X020842Y011317D01*
X020816Y011324D01*
X020789Y011328D01*
X020763Y011328D01*
X020736Y011324D01*
X020710Y011317D01*
X020686Y011306D01*
X020663Y011292D01*
X020642Y011275D01*
X020624Y011256D01*
X020609Y011234D01*
X020596Y011210D01*
X020587Y011185D01*
X020582Y011159D01*
X020580Y011132D01*
X020581Y011132D01*
X020583Y011160D01*
X020589Y011187D01*
X020599Y011213D01*
X020612Y011238D01*
X020629Y011260D01*
X020648Y011280D01*
X020671Y011296D01*
X020695Y011309D01*
X020721Y011319D01*
X020748Y011325D01*
X020776Y011327D01*
X020804Y011325D01*
X020831Y011319D01*
X020857Y011309D01*
X020881Y011296D01*
X020904Y011280D01*
X020923Y011260D01*
X020940Y011238D01*
X020953Y011213D01*
X020963Y011187D01*
X020969Y011160D01*
X020971Y011132D01*
X020970Y011132D01*
X020968Y011160D01*
X020962Y011187D01*
X020952Y011213D01*
X020939Y011237D01*
X020922Y011259D01*
X020903Y011279D01*
X020881Y011295D01*
X020856Y011309D01*
X020831Y011318D01*
X020804Y011324D01*
X020776Y011326D01*
X020748Y011324D01*
X020721Y011318D01*
X020696Y011309D01*
X020671Y011295D01*
X020649Y011279D01*
X020630Y011259D01*
X020613Y011237D01*
X020600Y011213D01*
X020590Y011187D01*
X020584Y011160D01*
X020582Y011132D01*
X020583Y011132D01*
X020585Y011160D01*
X020591Y011187D01*
X020601Y011213D01*
X020614Y011237D01*
X020630Y011259D01*
X020650Y011278D01*
X020672Y011294D01*
X020696Y011308D01*
X020722Y011317D01*
X020749Y011323D01*
X020776Y011325D01*
X020803Y011323D01*
X020830Y011317D01*
X020856Y011308D01*
X020880Y011294D01*
X020902Y011278D01*
X020922Y011259D01*
X020938Y011237D01*
X020951Y011213D01*
X020961Y011187D01*
X020967Y011160D01*
X020969Y011132D01*
X020968Y011132D01*
X020966Y011160D01*
X020960Y011186D01*
X020950Y011212D01*
X020937Y011236D01*
X020921Y011258D01*
X020902Y011277D01*
X020880Y011294D01*
X020856Y011307D01*
X020830Y011316D01*
X020803Y011322D01*
X020776Y011324D01*
X020749Y011322D01*
X020722Y011316D01*
X020696Y011307D01*
X020672Y011294D01*
X020650Y011277D01*
X020631Y011258D01*
X020615Y011236D01*
X020602Y011212D01*
X020592Y011186D01*
X020586Y011160D01*
X020584Y011132D01*
X020585Y011132D01*
X020587Y011160D01*
X020593Y011186D01*
X020602Y011212D01*
X020615Y011236D01*
X020632Y011257D01*
X020651Y011276D01*
X020673Y011293D01*
X020697Y011306D01*
X020722Y011315D01*
X020749Y011321D01*
X020776Y011323D01*
X020803Y011321D01*
X020830Y011315D01*
X020855Y011306D01*
X020879Y011293D01*
X020901Y011276D01*
X020920Y011257D01*
X020937Y011236D01*
X020950Y011212D01*
X020959Y011186D01*
X020965Y011160D01*
X020967Y011132D01*
X020966Y011132D01*
X020964Y011159D01*
X020958Y011186D01*
X020949Y011211D01*
X020936Y011235D01*
X020919Y011257D01*
X020900Y011276D01*
X020879Y011292D01*
X020855Y011305D01*
X020829Y011314D01*
X020803Y011320D01*
X020776Y011322D01*
X020749Y011320D01*
X020723Y011314D01*
X020697Y011305D01*
X020673Y011292D01*
X020652Y011276D01*
X020633Y011257D01*
X020616Y011235D01*
X020603Y011211D01*
X020594Y011186D01*
X020588Y011159D01*
X020586Y011132D01*
X020587Y011132D01*
X020589Y011159D01*
X020595Y011186D01*
X020604Y011211D01*
X020617Y011234D01*
X020633Y011256D01*
X020652Y011275D01*
X020674Y011291D01*
X020698Y011304D01*
X020723Y011313D01*
X020749Y011319D01*
X020776Y011321D01*
X020803Y011319D01*
X020829Y011313D01*
X020854Y011304D01*
X020878Y011291D01*
X020900Y011275D01*
X020919Y011256D01*
X020935Y011234D01*
X020948Y011211D01*
X020957Y011186D01*
X020963Y011159D01*
X020965Y011132D01*
X020176Y013445D02*
X020195Y013445D01*
X020194Y013445D02*
X020196Y013406D01*
X020202Y013367D01*
X020212Y013329D01*
X020225Y013293D01*
X020243Y013258D01*
X020263Y013225D01*
X020287Y013194D01*
X020314Y013166D01*
X020344Y013140D01*
X020375Y013118D01*
X020410Y013099D01*
X020445Y013084D01*
X020483Y013072D01*
X020521Y013064D01*
X020560Y013060D01*
X020598Y013060D01*
X020637Y013064D01*
X020675Y013072D01*
X020713Y013084D01*
X020748Y013099D01*
X020783Y013118D01*
X020814Y013140D01*
X020844Y013166D01*
X020871Y013194D01*
X020895Y013225D01*
X020915Y013258D01*
X020933Y013293D01*
X020946Y013329D01*
X020956Y013367D01*
X020962Y013406D01*
X020964Y013445D01*
X020982Y013445D01*
X020983Y013445D01*
X020981Y013405D01*
X020975Y013366D01*
X020965Y013327D01*
X020952Y013290D01*
X020935Y013254D01*
X020915Y013220D01*
X020891Y013188D01*
X020864Y013159D01*
X020835Y013133D01*
X020803Y013109D01*
X020769Y013089D01*
X020733Y013072D01*
X020696Y013058D01*
X020658Y013049D01*
X020619Y013043D01*
X020579Y013041D01*
X020539Y013043D01*
X020500Y013049D01*
X020462Y013058D01*
X020425Y013072D01*
X020389Y013089D01*
X020355Y013109D01*
X020323Y013133D01*
X020294Y013159D01*
X020267Y013188D01*
X020243Y013220D01*
X020223Y013254D01*
X020206Y013290D01*
X020193Y013327D01*
X020183Y013366D01*
X020177Y013405D01*
X020175Y013445D01*
X020176Y013445D01*
X020178Y013405D01*
X020184Y013366D01*
X020193Y013328D01*
X020207Y013290D01*
X020224Y013255D01*
X020244Y013221D01*
X020268Y013189D01*
X020294Y013160D01*
X020324Y013133D01*
X020355Y013110D01*
X020389Y013090D01*
X020425Y013073D01*
X020462Y013059D01*
X020500Y013050D01*
X020540Y013044D01*
X020579Y013042D01*
X020618Y013044D01*
X020658Y013050D01*
X020696Y013059D01*
X020733Y013073D01*
X020769Y013090D01*
X020803Y013110D01*
X020834Y013133D01*
X020864Y013160D01*
X020890Y013189D01*
X020914Y013221D01*
X020934Y013255D01*
X020951Y013290D01*
X020965Y013328D01*
X020974Y013366D01*
X020980Y013405D01*
X020982Y013445D01*
X020981Y013445D01*
X020979Y013405D01*
X020973Y013366D01*
X020964Y013328D01*
X020950Y013291D01*
X020933Y013255D01*
X020913Y013221D01*
X020890Y013190D01*
X020863Y013161D01*
X020834Y013134D01*
X020802Y013111D01*
X020768Y013090D01*
X020733Y013074D01*
X020696Y013060D01*
X020657Y013051D01*
X020618Y013045D01*
X020579Y013043D01*
X020540Y013045D01*
X020501Y013051D01*
X020462Y013060D01*
X020425Y013074D01*
X020390Y013090D01*
X020356Y013111D01*
X020324Y013134D01*
X020295Y013161D01*
X020268Y013190D01*
X020245Y013221D01*
X020225Y013255D01*
X020208Y013291D01*
X020194Y013328D01*
X020185Y013366D01*
X020179Y013405D01*
X020177Y013445D01*
X020178Y013445D01*
X020180Y013405D01*
X020186Y013366D01*
X020195Y013328D01*
X020209Y013291D01*
X020226Y013256D01*
X020246Y013222D01*
X020269Y013190D01*
X020296Y013161D01*
X020325Y013135D01*
X020356Y013111D01*
X020390Y013091D01*
X020426Y013074D01*
X020463Y013061D01*
X020501Y013052D01*
X020540Y013046D01*
X020579Y013044D01*
X020618Y013046D01*
X020657Y013052D01*
X020695Y013061D01*
X020732Y013074D01*
X020768Y013091D01*
X020802Y013111D01*
X020833Y013135D01*
X020862Y013161D01*
X020889Y013190D01*
X020912Y013222D01*
X020932Y013256D01*
X020949Y013291D01*
X020963Y013328D01*
X020972Y013366D01*
X020978Y013405D01*
X020980Y013445D01*
X020979Y013445D01*
X020977Y013405D01*
X020971Y013367D01*
X020962Y013328D01*
X020948Y013292D01*
X020932Y013256D01*
X020911Y013223D01*
X020888Y013191D01*
X020862Y013162D01*
X020833Y013136D01*
X020801Y013112D01*
X020767Y013092D01*
X020732Y013075D01*
X020695Y013062D01*
X020657Y013053D01*
X020618Y013047D01*
X020579Y013045D01*
X020540Y013047D01*
X020501Y013053D01*
X020463Y013062D01*
X020426Y013075D01*
X020391Y013092D01*
X020357Y013112D01*
X020325Y013136D01*
X020296Y013162D01*
X020270Y013191D01*
X020247Y013223D01*
X020226Y013256D01*
X020210Y013292D01*
X020196Y013328D01*
X020187Y013367D01*
X020181Y013405D01*
X020179Y013445D01*
X020180Y013445D01*
X020182Y013405D01*
X020188Y013367D01*
X020197Y013329D01*
X020211Y013292D01*
X020227Y013257D01*
X020247Y013223D01*
X020271Y013192D01*
X020297Y013163D01*
X020326Y013136D01*
X020357Y013113D01*
X020391Y013093D01*
X020426Y013076D01*
X020463Y013063D01*
X020501Y013054D01*
X020540Y013048D01*
X020579Y013046D01*
X020618Y013048D01*
X020657Y013054D01*
X020695Y013063D01*
X020732Y013076D01*
X020767Y013093D01*
X020801Y013113D01*
X020832Y013136D01*
X020861Y013163D01*
X020887Y013192D01*
X020911Y013223D01*
X020931Y013257D01*
X020947Y013292D01*
X020961Y013329D01*
X020970Y013367D01*
X020976Y013405D01*
X020978Y013445D01*
X020977Y013445D01*
X020975Y013406D01*
X020969Y013367D01*
X020960Y013329D01*
X020947Y013292D01*
X020930Y013257D01*
X020910Y013224D01*
X020886Y013192D01*
X020860Y013163D01*
X020831Y013137D01*
X020800Y013114D01*
X020766Y013094D01*
X020731Y013077D01*
X020694Y013064D01*
X020657Y013055D01*
X020618Y013049D01*
X020579Y013047D01*
X020540Y013049D01*
X020501Y013055D01*
X020464Y013064D01*
X020427Y013077D01*
X020392Y013094D01*
X020358Y013114D01*
X020327Y013137D01*
X020298Y013163D01*
X020272Y013192D01*
X020248Y013224D01*
X020228Y013257D01*
X020211Y013292D01*
X020198Y013329D01*
X020189Y013367D01*
X020183Y013406D01*
X020181Y013445D01*
X020182Y013445D01*
X020184Y013406D01*
X020190Y013367D01*
X020199Y013329D01*
X020212Y013293D01*
X020229Y013258D01*
X020249Y013224D01*
X020272Y013193D01*
X020298Y013164D01*
X020327Y013138D01*
X020359Y013115D01*
X020392Y013095D01*
X020427Y013078D01*
X020464Y013065D01*
X020502Y013056D01*
X020540Y013050D01*
X020579Y013048D01*
X020618Y013050D01*
X020656Y013056D01*
X020694Y013065D01*
X020731Y013078D01*
X020766Y013095D01*
X020799Y013115D01*
X020831Y013138D01*
X020860Y013164D01*
X020886Y013193D01*
X020909Y013224D01*
X020929Y013258D01*
X020946Y013293D01*
X020959Y013329D01*
X020968Y013367D01*
X020974Y013406D01*
X020976Y013445D01*
X020975Y013445D01*
X020973Y013406D01*
X020967Y013367D01*
X020958Y013330D01*
X020945Y013293D01*
X020928Y013258D01*
X020908Y013225D01*
X020885Y013194D01*
X020859Y013165D01*
X020830Y013139D01*
X020799Y013116D01*
X020766Y013096D01*
X020730Y013079D01*
X020694Y013066D01*
X020656Y013057D01*
X020618Y013051D01*
X020579Y013049D01*
X020540Y013051D01*
X020502Y013057D01*
X020464Y013066D01*
X020428Y013079D01*
X020392Y013096D01*
X020359Y013116D01*
X020328Y013139D01*
X020299Y013165D01*
X020273Y013194D01*
X020250Y013225D01*
X020230Y013258D01*
X020213Y013293D01*
X020200Y013330D01*
X020191Y013367D01*
X020185Y013406D01*
X020183Y013445D01*
X020184Y013445D01*
X020186Y013406D01*
X020192Y013368D01*
X020201Y013330D01*
X020214Y013293D01*
X020231Y013258D01*
X020251Y013225D01*
X020274Y013194D01*
X020300Y013166D01*
X020329Y013140D01*
X020360Y013116D01*
X020393Y013097D01*
X020428Y013080D01*
X020464Y013067D01*
X020502Y013058D01*
X020540Y013052D01*
X020579Y013050D01*
X020618Y013052D01*
X020656Y013058D01*
X020694Y013067D01*
X020730Y013080D01*
X020765Y013097D01*
X020798Y013116D01*
X020829Y013140D01*
X020858Y013166D01*
X020884Y013194D01*
X020907Y013225D01*
X020927Y013258D01*
X020944Y013293D01*
X020957Y013330D01*
X020966Y013368D01*
X020972Y013406D01*
X020974Y013445D01*
X020973Y013445D01*
X020971Y013406D01*
X020965Y013368D01*
X020956Y013330D01*
X020943Y013294D01*
X020926Y013259D01*
X020906Y013226D01*
X020883Y013195D01*
X020857Y013166D01*
X020829Y013140D01*
X020798Y013117D01*
X020765Y013097D01*
X020730Y013081D01*
X020693Y013068D01*
X020656Y013059D01*
X020618Y013053D01*
X020579Y013051D01*
X020540Y013053D01*
X020502Y013059D01*
X020465Y013068D01*
X020428Y013081D01*
X020393Y013097D01*
X020360Y013117D01*
X020329Y013140D01*
X020301Y013166D01*
X020275Y013195D01*
X020252Y013226D01*
X020232Y013259D01*
X020215Y013294D01*
X020202Y013330D01*
X020193Y013368D01*
X020187Y013406D01*
X020185Y013445D01*
X020186Y013445D01*
X020188Y013406D01*
X020194Y013368D01*
X020203Y013331D01*
X020216Y013294D01*
X020233Y013259D01*
X020252Y013226D01*
X020275Y013195D01*
X020301Y013167D01*
X020330Y013141D01*
X020361Y013118D01*
X020394Y013098D01*
X020429Y013082D01*
X020465Y013069D01*
X020502Y013060D01*
X020541Y013054D01*
X020579Y013052D01*
X020617Y013054D01*
X020656Y013060D01*
X020693Y013069D01*
X020729Y013082D01*
X020764Y013098D01*
X020797Y013118D01*
X020828Y013141D01*
X020857Y013167D01*
X020883Y013195D01*
X020906Y013226D01*
X020925Y013259D01*
X020942Y013294D01*
X020955Y013331D01*
X020964Y013368D01*
X020970Y013406D01*
X020972Y013445D01*
X020971Y013445D01*
X020969Y013406D01*
X020963Y013368D01*
X020954Y013331D01*
X020941Y013295D01*
X020925Y013260D01*
X020905Y013227D01*
X020882Y013196D01*
X020856Y013168D01*
X020828Y013142D01*
X020797Y013119D01*
X020764Y013099D01*
X020729Y013083D01*
X020693Y013070D01*
X020655Y013061D01*
X020617Y013055D01*
X020579Y013053D01*
X020541Y013055D01*
X020503Y013061D01*
X020465Y013070D01*
X020429Y013083D01*
X020394Y013099D01*
X020361Y013119D01*
X020330Y013142D01*
X020302Y013168D01*
X020276Y013196D01*
X020253Y013227D01*
X020233Y013260D01*
X020217Y013295D01*
X020204Y013331D01*
X020195Y013368D01*
X020189Y013406D01*
X020187Y013445D01*
X020188Y013445D01*
X020190Y013406D01*
X020196Y013368D01*
X020205Y013331D01*
X020218Y013295D01*
X020234Y013260D01*
X020254Y013228D01*
X020277Y013197D01*
X020303Y013168D01*
X020331Y013143D01*
X020362Y013120D01*
X020395Y013100D01*
X020429Y013084D01*
X020466Y013071D01*
X020503Y013062D01*
X020541Y013056D01*
X020579Y013054D01*
X020617Y013056D01*
X020655Y013062D01*
X020692Y013071D01*
X020729Y013084D01*
X020763Y013100D01*
X020796Y013120D01*
X020827Y013143D01*
X020855Y013168D01*
X020881Y013197D01*
X020904Y013228D01*
X020924Y013260D01*
X020940Y013295D01*
X020953Y013331D01*
X020962Y013368D01*
X020968Y013406D01*
X020970Y013445D01*
X020969Y013445D01*
X020967Y013406D01*
X020961Y013368D01*
X020952Y013331D01*
X020939Y013295D01*
X020923Y013261D01*
X020903Y013228D01*
X020880Y013197D01*
X020855Y013169D01*
X020826Y013143D01*
X020796Y013121D01*
X020763Y013101D01*
X020728Y013085D01*
X020692Y013072D01*
X020655Y013062D01*
X020617Y013057D01*
X020579Y013055D01*
X020541Y013057D01*
X020503Y013062D01*
X020466Y013072D01*
X020430Y013085D01*
X020395Y013101D01*
X020362Y013121D01*
X020332Y013143D01*
X020303Y013169D01*
X020278Y013197D01*
X020255Y013228D01*
X020235Y013261D01*
X020219Y013295D01*
X020206Y013331D01*
X020197Y013368D01*
X020191Y013406D01*
X020189Y013445D01*
X020190Y013445D01*
X020192Y013405D01*
X020198Y013366D01*
X020208Y013328D01*
X020222Y013291D01*
X020239Y013256D01*
X020260Y013223D01*
X020284Y013191D01*
X020311Y013163D01*
X020341Y013137D01*
X020373Y013115D01*
X020408Y013096D01*
X020444Y013080D01*
X020482Y013068D01*
X020520Y013060D01*
X020559Y013056D01*
X020599Y013056D01*
X020638Y013060D01*
X020676Y013068D01*
X020714Y013080D01*
X020750Y013096D01*
X020785Y013115D01*
X020817Y013137D01*
X020847Y013163D01*
X020874Y013191D01*
X020898Y013223D01*
X020919Y013256D01*
X020936Y013291D01*
X020950Y013328D01*
X020960Y013366D01*
X020966Y013405D01*
X020968Y013445D01*
X020967Y013445D01*
X020965Y013405D01*
X020959Y013366D01*
X020949Y013328D01*
X020935Y013292D01*
X020918Y013256D01*
X020897Y013223D01*
X020873Y013192D01*
X020846Y013164D01*
X020816Y013138D01*
X020784Y013116D01*
X020750Y013097D01*
X020714Y013081D01*
X020676Y013069D01*
X020638Y013061D01*
X020599Y013057D01*
X020559Y013057D01*
X020520Y013061D01*
X020482Y013069D01*
X020444Y013081D01*
X020408Y013097D01*
X020374Y013116D01*
X020342Y013138D01*
X020312Y013164D01*
X020285Y013192D01*
X020261Y013223D01*
X020240Y013256D01*
X020223Y013292D01*
X020209Y013328D01*
X020199Y013366D01*
X020193Y013405D01*
X020191Y013445D01*
X020192Y013445D01*
X020194Y013405D01*
X020200Y013367D01*
X020210Y013329D01*
X020224Y013292D01*
X020241Y013257D01*
X020262Y013224D01*
X020286Y013193D01*
X020313Y013164D01*
X020342Y013139D01*
X020374Y013116D01*
X020409Y013097D01*
X020445Y013082D01*
X020482Y013070D01*
X020520Y013062D01*
X020559Y013058D01*
X020599Y013058D01*
X020638Y013062D01*
X020676Y013070D01*
X020713Y013082D01*
X020749Y013097D01*
X020784Y013116D01*
X020816Y013139D01*
X020845Y013164D01*
X020872Y013193D01*
X020896Y013224D01*
X020917Y013257D01*
X020934Y013292D01*
X020948Y013329D01*
X020958Y013367D01*
X020964Y013405D01*
X020966Y013445D01*
X020965Y013445D01*
X020963Y013405D01*
X020957Y013367D01*
X020947Y013329D01*
X020934Y013292D01*
X020916Y013257D01*
X020896Y013224D01*
X020872Y013193D01*
X020845Y013165D01*
X020815Y013140D01*
X020783Y013117D01*
X020749Y013098D01*
X020713Y013083D01*
X020676Y013071D01*
X020637Y013063D01*
X020599Y013059D01*
X020559Y013059D01*
X020521Y013063D01*
X020482Y013071D01*
X020445Y013083D01*
X020409Y013098D01*
X020375Y013117D01*
X020343Y013140D01*
X020313Y013165D01*
X020286Y013193D01*
X020262Y013224D01*
X020242Y013257D01*
X020224Y013292D01*
X020211Y013329D01*
X020201Y013367D01*
X020195Y013405D01*
X020193Y013445D01*
X020982Y013445D02*
X020963Y013445D01*
X020964Y013446D02*
X020962Y013505D01*
X020956Y013564D01*
X020946Y013622D01*
X020933Y013680D01*
X020915Y013737D01*
X020933Y013743D01*
X020951Y013685D01*
X020965Y013626D01*
X020975Y013566D01*
X020981Y013506D01*
X020983Y013446D01*
X020982Y013446D01*
X020980Y013506D01*
X020974Y013566D01*
X020964Y013626D01*
X020950Y013685D01*
X020932Y013743D01*
X020932Y013742D01*
X020949Y013685D01*
X020963Y013626D01*
X020973Y013566D01*
X020979Y013506D01*
X020981Y013446D01*
X020980Y013446D01*
X020978Y013506D01*
X020972Y013566D01*
X020962Y013626D01*
X020948Y013684D01*
X020931Y013742D01*
X020930Y013742D01*
X020947Y013684D01*
X020961Y013625D01*
X020971Y013566D01*
X020977Y013506D01*
X020979Y013446D01*
X020978Y013446D01*
X020976Y013506D01*
X020970Y013566D01*
X020960Y013625D01*
X020946Y013684D01*
X020929Y013741D01*
X020928Y013741D01*
X020945Y013684D01*
X020959Y013625D01*
X020969Y013566D01*
X020975Y013506D01*
X020977Y013446D01*
X020976Y013446D01*
X020974Y013506D01*
X020968Y013565D01*
X020958Y013625D01*
X020944Y013683D01*
X020927Y013741D01*
X020926Y013741D01*
X020943Y013683D01*
X020957Y013625D01*
X020967Y013565D01*
X020973Y013506D01*
X020975Y013446D01*
X020974Y013446D01*
X020972Y013506D01*
X020966Y013565D01*
X020956Y013624D01*
X020942Y013683D01*
X020925Y013740D01*
X020924Y013740D01*
X020941Y013683D01*
X020955Y013624D01*
X020965Y013565D01*
X020971Y013505D01*
X020973Y013446D01*
X020972Y013446D01*
X020970Y013505D01*
X020964Y013565D01*
X020954Y013624D01*
X020940Y013682D01*
X020923Y013740D01*
X020922Y013739D01*
X020939Y013682D01*
X020953Y013624D01*
X020963Y013565D01*
X020969Y013505D01*
X020971Y013446D01*
X020970Y013446D01*
X020968Y013505D01*
X020962Y013565D01*
X020952Y013624D01*
X020938Y013682D01*
X020921Y013739D01*
X020920Y013739D01*
X020937Y013682D01*
X020951Y013623D01*
X020961Y013565D01*
X020967Y013505D01*
X020969Y013446D01*
X020968Y013446D01*
X020966Y013505D01*
X020960Y013564D01*
X020950Y013623D01*
X020936Y013681D01*
X020919Y013738D01*
X020918Y013738D01*
X020935Y013681D01*
X020949Y013623D01*
X020959Y013564D01*
X020965Y013505D01*
X020967Y013446D01*
X020966Y013446D01*
X020964Y013505D01*
X020958Y013564D01*
X020948Y013623D01*
X020935Y013681D01*
X020917Y013738D01*
X020916Y013737D01*
X020934Y013680D01*
X020947Y013623D01*
X020957Y013564D01*
X020963Y013505D01*
X020965Y013446D01*
X020372Y013741D02*
X020391Y013738D01*
X020390Y013739D02*
X020386Y013690D01*
X020384Y013642D01*
X020386Y013594D01*
X020390Y013545D01*
X020372Y013543D01*
X020367Y013592D01*
X020365Y013642D01*
X020367Y013692D01*
X020372Y013741D01*
X020373Y013741D01*
X020368Y013692D01*
X020366Y013642D01*
X020368Y013592D01*
X020373Y013543D01*
X020374Y013543D01*
X020369Y013592D01*
X020367Y013642D01*
X020369Y013692D01*
X020374Y013741D01*
X020375Y013741D01*
X020370Y013692D01*
X020368Y013642D01*
X020370Y013592D01*
X020375Y013543D01*
X020376Y013543D01*
X020371Y013593D01*
X020369Y013642D01*
X020371Y013691D01*
X020376Y013741D01*
X020377Y013741D01*
X020372Y013691D01*
X020370Y013642D01*
X020372Y013593D01*
X020377Y013543D01*
X020378Y013544D01*
X020373Y013593D01*
X020371Y013642D01*
X020373Y013691D01*
X020378Y013740D01*
X020374Y013691D01*
X020372Y013642D01*
X020374Y013593D01*
X020378Y013544D01*
X020379Y013544D01*
X020375Y013593D01*
X020373Y013642D01*
X020375Y013691D01*
X020379Y013740D01*
X020380Y013740D01*
X020376Y013691D01*
X020374Y013642D01*
X020376Y013593D01*
X020380Y013544D01*
X020381Y013544D01*
X020377Y013593D01*
X020375Y013642D01*
X020377Y013691D01*
X020381Y013740D01*
X020382Y013740D01*
X020378Y013691D01*
X020376Y013642D01*
X020378Y013593D01*
X020382Y013544D01*
X020383Y013544D01*
X020379Y013593D01*
X020377Y013642D01*
X020379Y013691D01*
X020383Y013740D01*
X020384Y013740D01*
X020380Y013691D01*
X020378Y013642D01*
X020380Y013593D01*
X020384Y013544D01*
X020385Y013545D01*
X020381Y013593D01*
X020379Y013642D01*
X020381Y013691D01*
X020385Y013739D01*
X020386Y013739D01*
X020382Y013691D01*
X020380Y013642D01*
X020382Y013593D01*
X020386Y013545D01*
X020387Y013545D01*
X020383Y013593D01*
X020381Y013642D01*
X020383Y013691D01*
X020387Y013739D01*
X020388Y013739D01*
X020384Y013691D01*
X020382Y013642D01*
X020384Y013593D01*
X020388Y013545D01*
X020389Y013545D01*
X020385Y013593D01*
X020383Y013642D01*
X020385Y013691D01*
X020389Y013739D01*
X020373Y013544D02*
X020392Y013544D01*
X020391Y013544D02*
X020393Y013517D01*
X020399Y013491D01*
X020408Y013466D01*
X020421Y013442D01*
X020437Y013421D01*
X020456Y013402D01*
X020478Y013386D01*
X020501Y013373D01*
X020526Y013364D01*
X020552Y013358D01*
X020579Y013356D01*
X020606Y013358D01*
X020632Y013364D01*
X020657Y013373D01*
X020680Y013386D01*
X020702Y013402D01*
X020721Y013421D01*
X020737Y013442D01*
X020750Y013466D01*
X020759Y013491D01*
X020765Y013517D01*
X020767Y013544D01*
X020785Y013544D01*
X020786Y013544D01*
X020784Y013515D01*
X020778Y013488D01*
X020769Y013461D01*
X020756Y013436D01*
X020739Y013413D01*
X020720Y013393D01*
X020698Y013375D01*
X020674Y013360D01*
X020648Y013349D01*
X020621Y013341D01*
X020593Y013337D01*
X020565Y013337D01*
X020537Y013341D01*
X020510Y013349D01*
X020484Y013360D01*
X020460Y013375D01*
X020438Y013393D01*
X020419Y013413D01*
X020402Y013436D01*
X020389Y013461D01*
X020380Y013488D01*
X020374Y013515D01*
X020372Y013544D01*
X020373Y013544D01*
X020375Y013515D01*
X020381Y013488D01*
X020390Y013462D01*
X020403Y013437D01*
X020419Y013414D01*
X020439Y013393D01*
X020460Y013376D01*
X020484Y013361D01*
X020510Y013350D01*
X020537Y013342D01*
X020565Y013338D01*
X020593Y013338D01*
X020621Y013342D01*
X020648Y013350D01*
X020674Y013361D01*
X020698Y013376D01*
X020719Y013393D01*
X020739Y013414D01*
X020755Y013437D01*
X020768Y013462D01*
X020777Y013488D01*
X020783Y013515D01*
X020785Y013544D01*
X020784Y013544D01*
X020782Y013516D01*
X020776Y013488D01*
X020767Y013462D01*
X020754Y013437D01*
X020738Y013414D01*
X020719Y013394D01*
X020697Y013376D01*
X020673Y013362D01*
X020648Y013351D01*
X020621Y013343D01*
X020593Y013339D01*
X020565Y013339D01*
X020537Y013343D01*
X020510Y013351D01*
X020485Y013362D01*
X020461Y013376D01*
X020439Y013394D01*
X020420Y013414D01*
X020404Y013437D01*
X020391Y013462D01*
X020382Y013488D01*
X020376Y013516D01*
X020374Y013544D01*
X020375Y013544D01*
X020377Y013516D01*
X020383Y013489D01*
X020392Y013462D01*
X020405Y013438D01*
X020421Y013415D01*
X020440Y013395D01*
X020462Y013377D01*
X020485Y013363D01*
X020511Y013352D01*
X020538Y013344D01*
X020565Y013340D01*
X020593Y013340D01*
X020620Y013344D01*
X020647Y013352D01*
X020673Y013363D01*
X020696Y013377D01*
X020718Y013395D01*
X020737Y013415D01*
X020753Y013438D01*
X020766Y013462D01*
X020775Y013489D01*
X020781Y013516D01*
X020783Y013544D01*
X020782Y013544D01*
X020780Y013516D01*
X020774Y013489D01*
X020765Y013463D01*
X020752Y013438D01*
X020736Y013416D01*
X020717Y013395D01*
X020696Y013378D01*
X020672Y013364D01*
X020647Y013353D01*
X020620Y013345D01*
X020593Y013341D01*
X020565Y013341D01*
X020538Y013345D01*
X020511Y013353D01*
X020486Y013364D01*
X020462Y013378D01*
X020441Y013395D01*
X020422Y013416D01*
X020406Y013438D01*
X020393Y013463D01*
X020384Y013489D01*
X020378Y013516D01*
X020376Y013544D01*
X020377Y013544D01*
X020379Y013516D01*
X020385Y013489D01*
X020394Y013463D01*
X020407Y013439D01*
X020422Y013416D01*
X020441Y013396D01*
X020463Y013379D01*
X020486Y013365D01*
X020511Y013354D01*
X020538Y013346D01*
X020565Y013342D01*
X020593Y013342D01*
X020620Y013346D01*
X020647Y013354D01*
X020672Y013365D01*
X020695Y013379D01*
X020717Y013396D01*
X020736Y013416D01*
X020751Y013439D01*
X020764Y013463D01*
X020773Y013489D01*
X020779Y013516D01*
X020781Y013544D01*
X020780Y013544D01*
X020778Y013516D01*
X020772Y013489D01*
X020763Y013464D01*
X020751Y013439D01*
X020735Y013417D01*
X020716Y013397D01*
X020695Y013380D01*
X020671Y013365D01*
X020646Y013355D01*
X020620Y013347D01*
X020593Y013343D01*
X020565Y013343D01*
X020538Y013347D01*
X020512Y013355D01*
X020487Y013365D01*
X020463Y013380D01*
X020442Y013397D01*
X020423Y013417D01*
X020407Y013439D01*
X020395Y013464D01*
X020386Y013489D01*
X020380Y013516D01*
X020378Y013544D01*
X020379Y013544D01*
X020381Y013516D01*
X020387Y013490D01*
X020396Y013464D01*
X020408Y013440D01*
X020424Y013418D01*
X020443Y013398D01*
X020464Y013380D01*
X020487Y013366D01*
X020512Y013356D01*
X020538Y013348D01*
X020565Y013344D01*
X020593Y013344D01*
X020620Y013348D01*
X020646Y013356D01*
X020671Y013366D01*
X020694Y013380D01*
X020715Y013398D01*
X020734Y013418D01*
X020750Y013440D01*
X020762Y013464D01*
X020771Y013490D01*
X020777Y013516D01*
X020779Y013544D01*
X020778Y013544D01*
X020776Y013516D01*
X020771Y013490D01*
X020761Y013464D01*
X020749Y013440D01*
X020733Y013418D01*
X020715Y013398D01*
X020694Y013381D01*
X020670Y013367D01*
X020646Y013356D01*
X020619Y013349D01*
X020593Y013345D01*
X020565Y013345D01*
X020539Y013349D01*
X020512Y013356D01*
X020488Y013367D01*
X020464Y013381D01*
X020443Y013398D01*
X020425Y013418D01*
X020409Y013440D01*
X020397Y013464D01*
X020387Y013490D01*
X020382Y013516D01*
X020380Y013544D01*
X020381Y013544D01*
X020383Y013517D01*
X020388Y013490D01*
X020398Y013465D01*
X020410Y013441D01*
X020426Y013419D01*
X020444Y013399D01*
X020465Y013382D01*
X020488Y013368D01*
X020513Y013357D01*
X020539Y013350D01*
X020566Y013346D01*
X020592Y013346D01*
X020619Y013350D01*
X020645Y013357D01*
X020670Y013368D01*
X020693Y013382D01*
X020714Y013399D01*
X020732Y013419D01*
X020748Y013441D01*
X020760Y013465D01*
X020770Y013490D01*
X020775Y013517D01*
X020777Y013544D01*
X020776Y013544D01*
X020774Y013517D01*
X020769Y013490D01*
X020760Y013465D01*
X020747Y013441D01*
X020732Y013419D01*
X020713Y013400D01*
X020692Y013383D01*
X020669Y013369D01*
X020645Y013358D01*
X020619Y013351D01*
X020592Y013347D01*
X020566Y013347D01*
X020539Y013351D01*
X020513Y013358D01*
X020489Y013369D01*
X020466Y013383D01*
X020445Y013400D01*
X020426Y013419D01*
X020411Y013441D01*
X020398Y013465D01*
X020389Y013490D01*
X020384Y013517D01*
X020382Y013544D01*
X020383Y013544D01*
X020385Y013517D01*
X020390Y013491D01*
X020399Y013466D01*
X020412Y013442D01*
X020427Y013420D01*
X020445Y013401D01*
X020466Y013384D01*
X020489Y013370D01*
X020513Y013359D01*
X020539Y013352D01*
X020566Y013348D01*
X020592Y013348D01*
X020619Y013352D01*
X020645Y013359D01*
X020669Y013370D01*
X020692Y013384D01*
X020713Y013401D01*
X020731Y013420D01*
X020746Y013442D01*
X020759Y013466D01*
X020768Y013491D01*
X020773Y013517D01*
X020775Y013544D01*
X020774Y013544D01*
X020772Y013516D01*
X020766Y013489D01*
X020756Y013463D01*
X020743Y013438D01*
X020726Y013416D01*
X020707Y013396D01*
X020684Y013380D01*
X020660Y013367D01*
X020634Y013357D01*
X020607Y013351D01*
X020579Y013349D01*
X020551Y013351D01*
X020524Y013357D01*
X020498Y013367D01*
X020474Y013380D01*
X020451Y013396D01*
X020432Y013416D01*
X020415Y013438D01*
X020402Y013463D01*
X020392Y013489D01*
X020386Y013516D01*
X020384Y013544D01*
X020385Y013544D01*
X020387Y013516D01*
X020393Y013489D01*
X020403Y013463D01*
X020416Y013439D01*
X020433Y013417D01*
X020452Y013397D01*
X020474Y013381D01*
X020499Y013367D01*
X020524Y013358D01*
X020551Y013352D01*
X020579Y013350D01*
X020607Y013352D01*
X020634Y013358D01*
X020659Y013367D01*
X020684Y013381D01*
X020706Y013397D01*
X020725Y013417D01*
X020742Y013439D01*
X020755Y013463D01*
X020765Y013489D01*
X020771Y013516D01*
X020773Y013544D01*
X020772Y013544D01*
X020770Y013516D01*
X020764Y013489D01*
X020754Y013463D01*
X020741Y013439D01*
X020725Y013417D01*
X020705Y013398D01*
X020683Y013382D01*
X020659Y013368D01*
X020633Y013359D01*
X020606Y013353D01*
X020579Y013351D01*
X020552Y013353D01*
X020525Y013359D01*
X020499Y013368D01*
X020475Y013382D01*
X020453Y013398D01*
X020433Y013417D01*
X020417Y013439D01*
X020404Y013463D01*
X020394Y013489D01*
X020388Y013516D01*
X020386Y013544D01*
X020387Y013544D01*
X020389Y013516D01*
X020395Y013490D01*
X020405Y013464D01*
X020418Y013440D01*
X020434Y013418D01*
X020453Y013399D01*
X020475Y013382D01*
X020499Y013369D01*
X020525Y013360D01*
X020552Y013354D01*
X020579Y013352D01*
X020606Y013354D01*
X020633Y013360D01*
X020659Y013369D01*
X020683Y013382D01*
X020705Y013399D01*
X020724Y013418D01*
X020740Y013440D01*
X020753Y013464D01*
X020763Y013490D01*
X020769Y013516D01*
X020771Y013544D01*
X020770Y013544D01*
X020768Y013516D01*
X020762Y013490D01*
X020753Y013464D01*
X020740Y013440D01*
X020723Y013419D01*
X020704Y013400D01*
X020682Y013383D01*
X020658Y013370D01*
X020633Y013361D01*
X020606Y013355D01*
X020579Y013353D01*
X020552Y013355D01*
X020525Y013361D01*
X020500Y013370D01*
X020476Y013383D01*
X020454Y013400D01*
X020435Y013419D01*
X020418Y013440D01*
X020405Y013464D01*
X020396Y013490D01*
X020390Y013516D01*
X020388Y013544D01*
X020389Y013544D01*
X020391Y013517D01*
X020397Y013490D01*
X020406Y013465D01*
X020419Y013441D01*
X020436Y013419D01*
X020455Y013400D01*
X020476Y013384D01*
X020500Y013371D01*
X020526Y013362D01*
X020552Y013356D01*
X020579Y013354D01*
X020606Y013356D01*
X020632Y013362D01*
X020658Y013371D01*
X020682Y013384D01*
X020703Y013400D01*
X020722Y013419D01*
X020739Y013441D01*
X020752Y013465D01*
X020761Y013490D01*
X020767Y013517D01*
X020769Y013544D01*
X020768Y013544D01*
X020766Y013517D01*
X020760Y013490D01*
X020751Y013465D01*
X020738Y013442D01*
X020722Y013420D01*
X020703Y013401D01*
X020681Y013385D01*
X020657Y013372D01*
X020632Y013363D01*
X020606Y013357D01*
X020579Y013355D01*
X020552Y013357D01*
X020526Y013363D01*
X020501Y013372D01*
X020477Y013385D01*
X020455Y013401D01*
X020436Y013420D01*
X020420Y013442D01*
X020407Y013465D01*
X020398Y013490D01*
X020392Y013517D01*
X020390Y013544D01*
X020197Y013745D02*
X020216Y013742D01*
X020215Y013742D02*
X020204Y013668D01*
X020197Y013594D01*
X020193Y013520D01*
X020194Y013446D01*
X020175Y013446D01*
X020175Y013445D01*
X020174Y013505D01*
X020176Y013566D01*
X020180Y013626D01*
X020187Y013686D01*
X020197Y013745D01*
X020188Y013686D01*
X020181Y013626D01*
X020177Y013566D01*
X020175Y013505D01*
X020176Y013445D01*
X020177Y013445D01*
X020176Y013505D01*
X020178Y013566D01*
X020182Y013626D01*
X020189Y013686D01*
X020198Y013745D01*
X020199Y013745D01*
X020190Y013685D01*
X020183Y013626D01*
X020179Y013566D01*
X020177Y013505D01*
X020178Y013445D01*
X020179Y013445D01*
X020178Y013520D01*
X020182Y013596D01*
X020189Y013670D01*
X020200Y013745D01*
X020201Y013745D01*
X020190Y013670D01*
X020183Y013595D01*
X020179Y013520D01*
X020180Y013445D01*
X020181Y013445D01*
X020180Y013520D01*
X020184Y013595D01*
X020191Y013670D01*
X020202Y013744D01*
X020203Y013744D01*
X020192Y013670D01*
X020185Y013595D01*
X020181Y013520D01*
X020182Y013445D01*
X020183Y013445D01*
X020182Y013520D01*
X020186Y013595D01*
X020193Y013670D01*
X020204Y013744D01*
X020205Y013744D01*
X020194Y013670D01*
X020187Y013595D01*
X020183Y013520D01*
X020184Y013445D01*
X020185Y013445D01*
X020184Y013520D01*
X020188Y013595D01*
X020195Y013670D01*
X020206Y013744D01*
X020207Y013743D01*
X020196Y013669D01*
X020189Y013595D01*
X020185Y013520D01*
X020186Y013445D01*
X020187Y013445D01*
X020186Y013520D01*
X020190Y013595D01*
X020197Y013669D01*
X020208Y013743D01*
X020209Y013743D01*
X020198Y013669D01*
X020191Y013595D01*
X020187Y013520D01*
X020188Y013446D01*
X020189Y013446D01*
X020188Y013520D01*
X020192Y013595D01*
X020199Y013669D01*
X020210Y013743D01*
X020211Y013743D01*
X020200Y013669D01*
X020193Y013595D01*
X020189Y013520D01*
X020190Y013446D01*
X020191Y013446D01*
X020190Y013520D01*
X020194Y013595D01*
X020201Y013669D01*
X020212Y013743D01*
X020213Y013742D01*
X020202Y013669D01*
X020195Y013595D01*
X020191Y013520D01*
X020192Y013446D01*
X020193Y013446D01*
X020192Y013520D01*
X020196Y013595D01*
X020203Y013669D01*
X020214Y013742D01*
D13*
X020207Y013739D02*
X020382Y013739D01*
X020579Y013741D02*
X020579Y013544D01*
X020776Y013544D01*
X020923Y013741D02*
X020579Y013741D01*
X020973Y012953D02*
X020677Y012756D01*
X020530Y012609D02*
X020530Y012461D01*
X020382Y012461D01*
X020382Y012609D01*
X020384Y012624D01*
X020388Y012639D01*
X020396Y012652D01*
X020406Y012664D01*
X020419Y012673D01*
X020433Y012679D01*
X020448Y012683D01*
X020464Y012683D01*
X020479Y012679D01*
X020493Y012673D01*
X020506Y012664D01*
X020516Y012652D01*
X020524Y012639D01*
X020528Y012624D01*
X020530Y012609D01*
X020677Y012756D02*
X020675Y012786D01*
X020670Y012815D01*
X020661Y012843D01*
X020649Y012870D01*
X020633Y012896D01*
X020615Y012919D01*
X020594Y012940D01*
X020571Y012958D01*
X020545Y012974D01*
X020518Y012986D01*
X020490Y012995D01*
X020461Y013000D01*
X020431Y013002D01*
X020401Y013000D01*
X020372Y012995D01*
X020344Y012986D01*
X020317Y012974D01*
X020291Y012958D01*
X020268Y012940D01*
X020247Y012919D01*
X020229Y012896D01*
X020213Y012870D01*
X020201Y012843D01*
X020192Y012815D01*
X020187Y012786D01*
X020185Y012756D01*
X020185Y012215D01*
X020973Y012215D01*
X020973Y012461D01*
X020677Y012461D01*
X020973Y012658D01*
X020973Y012953D01*
X020973Y012117D02*
X020776Y012117D01*
X020776Y011674D01*
X020677Y011674D01*
X020677Y012117D01*
X020480Y012117D01*
X020480Y011674D01*
X020382Y011674D01*
X020382Y012117D01*
X020185Y012117D01*
X020185Y011428D01*
X020973Y011428D01*
X020973Y012117D01*
X020973Y011132D02*
X020973Y010837D01*
X020776Y011132D01*
X020579Y010837D01*
X020382Y011132D01*
X020185Y010837D01*
X020185Y011132D01*
X020185Y010837D02*
X020185Y010591D01*
X020973Y010591D01*
X020973Y010837D01*
X020579Y010837D01*
X020185Y010837D01*
X020573Y007101D02*
X020573Y006101D01*
X020673Y006101D01*
X020673Y007101D02*
X020573Y007101D01*
X018373Y007101D02*
X018373Y006151D01*
X018273Y006151D01*
X018273Y007101D02*
X018373Y007101D01*
D14*
X021121Y010606D02*
X021271Y010606D01*
X021271Y010706D01*
X021196Y010656D02*
X021196Y010606D01*
X021121Y010606D02*
X021121Y010706D01*
X021121Y010900D02*
X021271Y010900D01*
X021271Y011001D01*
X021271Y011195D02*
X021121Y011195D01*
X021121Y011295D01*
X021196Y011245D02*
X021196Y011195D01*
X021271Y011195D02*
X021271Y011295D01*
X021246Y011490D02*
X021146Y011490D01*
X021121Y011515D01*
X021121Y011565D01*
X021146Y011590D01*
X021246Y011590D02*
X021271Y011565D01*
X021271Y011515D01*
X021246Y011490D01*
X021121Y011784D02*
X021121Y011884D01*
X021121Y011834D02*
X021271Y011834D01*
X021271Y012079D02*
X021121Y012079D01*
X021121Y012154D01*
X021146Y012179D01*
X021196Y012179D01*
X021221Y012154D01*
X021221Y012079D01*
X021221Y012129D02*
X021271Y012179D01*
X021246Y012374D02*
X021146Y012374D01*
X021121Y012399D01*
X021121Y012449D01*
X021146Y012474D01*
X021246Y012474D01*
X021271Y012449D01*
X021271Y012399D01*
X021246Y012374D01*
X021271Y012668D02*
X021121Y012668D01*
X021271Y012768D01*
X021121Y012768D01*
X021121Y012963D02*
X021121Y013013D01*
X021121Y012988D02*
X021271Y012988D01*
X021271Y012963D02*
X021271Y013013D01*
X021246Y013208D02*
X021146Y013208D01*
X021121Y013233D01*
X021121Y013284D01*
X021146Y013309D01*
X021246Y013309D02*
X021271Y013284D01*
X021271Y013233D01*
X021246Y013208D01*
X021246Y013503D02*
X021271Y013528D01*
X021271Y013578D01*
X021246Y013603D01*
X021221Y013603D01*
X021196Y013578D01*
X021196Y013528D01*
X021171Y013503D01*
X021146Y013503D01*
X021121Y013528D01*
X021121Y013578D01*
X021146Y013603D01*
D15*
X019469Y014658D02*
X019392Y014581D01*
X019162Y014581D01*
X019162Y015042D01*
X019392Y015042D01*
X019469Y014965D01*
X019469Y014888D01*
X019392Y014812D01*
X019162Y014812D01*
X019009Y014735D02*
X019009Y014658D01*
X018932Y014581D01*
X018778Y014581D01*
X018702Y014658D01*
X018548Y014658D02*
X018548Y015042D01*
X018702Y014965D02*
X018702Y014888D01*
X018778Y014812D01*
X018932Y014812D01*
X019009Y014735D01*
X019009Y014965D02*
X018932Y015042D01*
X018778Y015042D01*
X018702Y014965D01*
X018241Y015042D02*
X018241Y014658D01*
X018318Y014581D01*
X018472Y014581D01*
X018548Y014658D01*
X019392Y014812D02*
X019469Y014735D01*
X019469Y014658D01*
X018808Y009617D02*
X018808Y009156D01*
X018961Y009156D02*
X018654Y009156D01*
X018501Y009156D02*
X018194Y009617D01*
X018501Y009617D02*
X018194Y009156D01*
X018654Y009463D02*
X018808Y009617D01*
D16*
X019173Y007901D02*
X019173Y007801D01*
X019073Y007801D01*
X019173Y007901D02*
X019773Y007901D01*
X019773Y007801D01*
X019873Y007801D01*
X020673Y007451D02*
X020673Y007101D01*
X020673Y006101D01*
X020673Y005751D01*
X019873Y005401D02*
X019773Y005401D01*
X019773Y005301D01*
X019173Y005301D01*
X019173Y005401D01*
X019073Y005401D01*
X018273Y005751D02*
X018273Y006151D01*
X018273Y007101D01*
X018273Y007451D01*
X019373Y006601D02*
X019375Y006621D01*
X019381Y006639D01*
X019390Y006657D01*
X019402Y006672D01*
X019417Y006684D01*
X019435Y006693D01*
X019453Y006699D01*
X019473Y006701D01*
X019493Y006699D01*
X019511Y006693D01*
X019529Y006684D01*
X019544Y006672D01*
X019556Y006657D01*
X019565Y006639D01*
X019571Y006621D01*
X019573Y006601D01*
X019571Y006581D01*
X019565Y006563D01*
X019556Y006545D01*
X019544Y006530D01*
X019529Y006518D01*
X019511Y006509D01*
X019493Y006503D01*
X019473Y006501D01*
X019453Y006503D01*
X019435Y006509D01*
X019417Y006518D01*
X019402Y006530D01*
X019390Y006545D01*
X019381Y006563D01*
X019375Y006581D01*
X019373Y006601D01*
X018773Y006601D02*
X018775Y006653D01*
X018781Y006705D01*
X018791Y006757D01*
X018804Y006807D01*
X018821Y006857D01*
X018842Y006905D01*
X018867Y006951D01*
X018895Y006995D01*
X018926Y007037D01*
X018960Y007077D01*
X018997Y007114D01*
X019037Y007148D01*
X019079Y007179D01*
X019123Y007207D01*
X019169Y007232D01*
X019217Y007253D01*
X019267Y007270D01*
X019317Y007283D01*
X019369Y007293D01*
X019421Y007299D01*
X019473Y007301D01*
X019525Y007299D01*
X019577Y007293D01*
X019629Y007283D01*
X019679Y007270D01*
X019729Y007253D01*
X019777Y007232D01*
X019823Y007207D01*
X019867Y007179D01*
X019909Y007148D01*
X019949Y007114D01*
X019986Y007077D01*
X020020Y007037D01*
X020051Y006995D01*
X020079Y006951D01*
X020104Y006905D01*
X020125Y006857D01*
X020142Y006807D01*
X020155Y006757D01*
X020165Y006705D01*
X020171Y006653D01*
X020173Y006601D01*
X020171Y006549D01*
X020165Y006497D01*
X020155Y006445D01*
X020142Y006395D01*
X020125Y006345D01*
X020104Y006297D01*
X020079Y006251D01*
X020051Y006207D01*
X020020Y006165D01*
X019986Y006125D01*
X019949Y006088D01*
X019909Y006054D01*
X019867Y006023D01*
X019823Y005995D01*
X019777Y005970D01*
X019729Y005949D01*
X019679Y005932D01*
X019629Y005919D01*
X019577Y005909D01*
X019525Y005903D01*
X019473Y005901D01*
X019421Y005903D01*
X019369Y005909D01*
X019317Y005919D01*
X019267Y005932D01*
X019217Y005949D01*
X019169Y005970D01*
X019123Y005995D01*
X019079Y006023D01*
X019037Y006054D01*
X018997Y006088D01*
X018960Y006125D01*
X018926Y006165D01*
X018895Y006207D01*
X018867Y006251D01*
X018842Y006297D01*
X018821Y006345D01*
X018804Y006395D01*
X018791Y006445D01*
X018781Y006497D01*
X018775Y006549D01*
X018773Y006601D01*
X016373Y006301D02*
X016373Y007901D01*
X016371Y007918D01*
X016367Y007935D01*
X016360Y007951D01*
X016350Y007965D01*
X016337Y007978D01*
X016323Y007988D01*
X016307Y007995D01*
X016290Y007999D01*
X016273Y008001D01*
X015673Y008001D01*
X015656Y007999D01*
X015639Y007995D01*
X015623Y007988D01*
X015609Y007978D01*
X015596Y007965D01*
X015586Y007951D01*
X015579Y007935D01*
X015575Y007918D01*
X015573Y007901D01*
X015573Y006301D01*
X015575Y006284D01*
X015579Y006267D01*
X015586Y006251D01*
X015596Y006237D01*
X015609Y006224D01*
X015623Y006214D01*
X015639Y006207D01*
X015656Y006203D01*
X015673Y006201D01*
X016273Y006201D01*
X016290Y006203D01*
X016307Y006207D01*
X016323Y006214D01*
X016337Y006224D01*
X016350Y006237D01*
X016360Y006251D01*
X016367Y006267D01*
X016371Y006284D01*
X016373Y006301D01*
X015973Y006851D02*
X015973Y007101D01*
X016223Y007101D01*
X015973Y007101D02*
X015723Y007101D01*
X015973Y007101D02*
X015723Y007501D01*
X016223Y007501D01*
X015973Y007101D01*
X015973Y007701D01*
X014373Y007901D02*
X014373Y006301D01*
X014371Y006284D01*
X014367Y006267D01*
X014360Y006251D01*
X014350Y006237D01*
X014337Y006224D01*
X014323Y006214D01*
X014307Y006207D01*
X014290Y006203D01*
X014273Y006201D01*
X013673Y006201D01*
X013656Y006203D01*
X013639Y006207D01*
X013623Y006214D01*
X013609Y006224D01*
X013596Y006237D01*
X013586Y006251D01*
X013579Y006267D01*
X013575Y006284D01*
X013573Y006301D01*
X013573Y007901D01*
X013575Y007918D01*
X013579Y007935D01*
X013586Y007951D01*
X013596Y007965D01*
X013609Y007978D01*
X013623Y007988D01*
X013639Y007995D01*
X013656Y007999D01*
X013673Y008001D01*
X014273Y008001D01*
X014290Y007999D01*
X014307Y007995D01*
X014323Y007988D01*
X014337Y007978D01*
X014350Y007965D01*
X014360Y007951D01*
X014367Y007935D01*
X014371Y007918D01*
X014373Y007901D01*
X013973Y007351D02*
X013973Y007101D01*
X013723Y007101D01*
X013973Y007101D02*
X014223Y007101D01*
X013973Y007101D02*
X014223Y006701D01*
X013723Y006701D01*
X013973Y007101D01*
X013973Y006501D01*
X012873Y006301D02*
X012873Y007901D01*
X012871Y007918D01*
X012867Y007935D01*
X012860Y007951D01*
X012850Y007965D01*
X012837Y007978D01*
X012823Y007988D01*
X012807Y007995D01*
X012790Y007999D01*
X012773Y008001D01*
X012173Y008001D01*
X012156Y007999D01*
X012139Y007995D01*
X012123Y007988D01*
X012109Y007978D01*
X012096Y007965D01*
X012086Y007951D01*
X012079Y007935D01*
X012075Y007918D01*
X012073Y007901D01*
X012073Y006301D01*
X012075Y006284D01*
X012079Y006267D01*
X012086Y006251D01*
X012096Y006237D01*
X012109Y006224D01*
X012123Y006214D01*
X012139Y006207D01*
X012156Y006203D01*
X012173Y006201D01*
X012773Y006201D01*
X012790Y006203D01*
X012807Y006207D01*
X012823Y006214D01*
X012837Y006224D01*
X012850Y006237D01*
X012860Y006251D01*
X012867Y006267D01*
X012871Y006284D01*
X012873Y006301D01*
X012723Y006701D02*
X012473Y007101D01*
X012223Y007101D01*
X012473Y007101D02*
X012473Y007351D01*
X012473Y007101D02*
X012723Y007101D01*
X012473Y007101D02*
X012473Y006501D01*
X012723Y006701D02*
X012223Y006701D01*
X012473Y007101D01*
X011373Y006301D02*
X011373Y007901D01*
X011371Y007918D01*
X011367Y007935D01*
X011360Y007951D01*
X011350Y007965D01*
X011337Y007978D01*
X011323Y007988D01*
X011307Y007995D01*
X011290Y007999D01*
X011273Y008001D01*
X010673Y008001D01*
X010656Y007999D01*
X010639Y007995D01*
X010623Y007988D01*
X010609Y007978D01*
X010596Y007965D01*
X010586Y007951D01*
X010579Y007935D01*
X010575Y007918D01*
X010573Y007901D01*
X010573Y006301D01*
X010575Y006284D01*
X010579Y006267D01*
X010586Y006251D01*
X010596Y006237D01*
X010609Y006224D01*
X010623Y006214D01*
X010639Y006207D01*
X010656Y006203D01*
X010673Y006201D01*
X011273Y006201D01*
X011290Y006203D01*
X011307Y006207D01*
X011323Y006214D01*
X011337Y006224D01*
X011350Y006237D01*
X011360Y006251D01*
X011367Y006267D01*
X011371Y006284D01*
X011373Y006301D01*
X010973Y006851D02*
X010973Y007101D01*
X011223Y007101D01*
X010973Y007101D02*
X010723Y007101D01*
X010973Y007101D02*
X010723Y007501D01*
X011223Y007501D01*
X010973Y007101D01*
X010973Y007701D01*
X009873Y007901D02*
X009873Y006301D01*
X009871Y006284D01*
X009867Y006267D01*
X009860Y006251D01*
X009850Y006237D01*
X009837Y006224D01*
X009823Y006214D01*
X009807Y006207D01*
X009790Y006203D01*
X009773Y006201D01*
X009173Y006201D01*
X009156Y006203D01*
X009139Y006207D01*
X009123Y006214D01*
X009109Y006224D01*
X009096Y006237D01*
X009086Y006251D01*
X009079Y006267D01*
X009075Y006284D01*
X009073Y006301D01*
X009073Y007901D01*
X009075Y007918D01*
X009079Y007935D01*
X009086Y007951D01*
X009096Y007965D01*
X009109Y007978D01*
X009123Y007988D01*
X009139Y007995D01*
X009156Y007999D01*
X009173Y008001D01*
X009773Y008001D01*
X009790Y007999D01*
X009807Y007995D01*
X009823Y007988D01*
X009837Y007978D01*
X009850Y007965D01*
X009860Y007951D01*
X009867Y007935D01*
X009871Y007918D01*
X009873Y007901D01*
X009723Y007501D02*
X009473Y007101D01*
X009723Y007101D01*
X009473Y007101D02*
X009223Y007101D01*
X009473Y007101D02*
X009223Y007501D01*
X009723Y007501D01*
X009473Y007701D02*
X009473Y007101D01*
X009473Y006851D01*
X007873Y006301D02*
X007873Y007901D01*
X007871Y007918D01*
X007867Y007935D01*
X007860Y007951D01*
X007850Y007965D01*
X007837Y007978D01*
X007823Y007988D01*
X007807Y007995D01*
X007790Y007999D01*
X007773Y008001D01*
X007173Y008001D01*
X007156Y007999D01*
X007139Y007995D01*
X007123Y007988D01*
X007109Y007978D01*
X007096Y007965D01*
X007086Y007951D01*
X007079Y007935D01*
X007075Y007918D01*
X007073Y007901D01*
X007073Y006301D01*
X007075Y006284D01*
X007079Y006267D01*
X007086Y006251D01*
X007096Y006237D01*
X007109Y006224D01*
X007123Y006214D01*
X007139Y006207D01*
X007156Y006203D01*
X007173Y006201D01*
X007773Y006201D01*
X007790Y006203D01*
X007807Y006207D01*
X007823Y006214D01*
X007837Y006224D01*
X007850Y006237D01*
X007860Y006251D01*
X007867Y006267D01*
X007871Y006284D01*
X007873Y006301D01*
X007473Y006851D02*
X007473Y007101D01*
X007723Y007101D01*
X007473Y007101D02*
X007223Y007101D01*
X007473Y007101D02*
X007223Y007501D01*
X007723Y007501D01*
X007473Y007101D01*
X007473Y007701D01*
X005873Y007901D02*
X005873Y006301D01*
X005871Y006284D01*
X005867Y006267D01*
X005860Y006251D01*
X005850Y006237D01*
X005837Y006224D01*
X005823Y006214D01*
X005807Y006207D01*
X005790Y006203D01*
X005773Y006201D01*
X005173Y006201D01*
X005156Y006203D01*
X005139Y006207D01*
X005123Y006214D01*
X005109Y006224D01*
X005096Y006237D01*
X005086Y006251D01*
X005079Y006267D01*
X005075Y006284D01*
X005073Y006301D01*
X005073Y007901D01*
X005075Y007918D01*
X005079Y007935D01*
X005086Y007951D01*
X005096Y007965D01*
X005109Y007978D01*
X005123Y007988D01*
X005139Y007995D01*
X005156Y007999D01*
X005173Y008001D01*
X005773Y008001D01*
X005790Y007999D01*
X005807Y007995D01*
X005823Y007988D01*
X005837Y007978D01*
X005850Y007965D01*
X005860Y007951D01*
X005867Y007935D01*
X005871Y007918D01*
X005873Y007901D01*
X005473Y007701D02*
X005473Y007101D01*
X005723Y007101D01*
X005473Y007101D02*
X005223Y007101D01*
X005473Y007101D02*
X005223Y007501D01*
X005723Y007501D01*
X005473Y007101D01*
X005473Y006851D01*
X004373Y006301D02*
X004373Y007901D01*
X004371Y007918D01*
X004367Y007935D01*
X004360Y007951D01*
X004350Y007965D01*
X004337Y007978D01*
X004323Y007988D01*
X004307Y007995D01*
X004290Y007999D01*
X004273Y008001D01*
X003673Y008001D01*
X003656Y007999D01*
X003639Y007995D01*
X003623Y007988D01*
X003609Y007978D01*
X003596Y007965D01*
X003586Y007951D01*
X003579Y007935D01*
X003575Y007918D01*
X003573Y007901D01*
X003573Y006301D01*
X003575Y006284D01*
X003579Y006267D01*
X003586Y006251D01*
X003596Y006237D01*
X003609Y006224D01*
X003623Y006214D01*
X003639Y006207D01*
X003656Y006203D01*
X003673Y006201D01*
X004273Y006201D01*
X004290Y006203D01*
X004307Y006207D01*
X004323Y006214D01*
X004337Y006224D01*
X004350Y006237D01*
X004360Y006251D01*
X004367Y006267D01*
X004371Y006284D01*
X004373Y006301D01*
X003973Y006501D02*
X003973Y007101D01*
X003723Y007101D01*
X003973Y007101D02*
X003973Y007351D01*
X003973Y007101D02*
X004223Y007101D01*
X003973Y007101D02*
X004223Y006701D01*
X003723Y006701D01*
X003973Y007101D01*
X002723Y007101D02*
X002473Y007101D01*
X002223Y007101D01*
X002473Y007101D02*
X002473Y007351D01*
X002473Y007101D02*
X002723Y006701D01*
X002223Y006701D01*
X002473Y007101D01*
X002473Y006501D01*
X002773Y006201D02*
X002790Y006203D01*
X002807Y006207D01*
X002823Y006214D01*
X002837Y006224D01*
X002850Y006237D01*
X002860Y006251D01*
X002867Y006267D01*
X002871Y006284D01*
X002873Y006301D01*
X002873Y007901D01*
X002871Y007918D01*
X002867Y007935D01*
X002860Y007951D01*
X002850Y007965D01*
X002837Y007978D01*
X002823Y007988D01*
X002807Y007995D01*
X002790Y007999D01*
X002773Y008001D01*
X002173Y008001D01*
X002156Y007999D01*
X002139Y007995D01*
X002123Y007988D01*
X002109Y007978D01*
X002096Y007965D01*
X002086Y007951D01*
X002079Y007935D01*
X002075Y007918D01*
X002073Y007901D01*
X002073Y006301D01*
X002075Y006284D01*
X002079Y006267D01*
X002086Y006251D01*
X002096Y006237D01*
X002109Y006224D01*
X002123Y006214D01*
X002139Y006207D01*
X002156Y006203D01*
X002173Y006201D01*
X002773Y006201D01*
X005123Y003101D02*
X005823Y003101D01*
X005973Y002951D01*
X006123Y003101D01*
X006823Y003101D01*
X006973Y002951D01*
X007123Y003101D01*
X007823Y003101D01*
X007973Y002951D01*
X008123Y003101D01*
X008823Y003101D01*
X008973Y002951D01*
X009123Y003101D01*
X009823Y003101D01*
X009973Y002951D01*
X010123Y003101D01*
X010823Y003101D01*
X010973Y002951D01*
X011123Y003101D01*
X011823Y003101D01*
X011973Y002951D01*
X012123Y003101D01*
X012823Y003101D01*
X012973Y002951D01*
X012973Y001251D01*
X012823Y001101D01*
X012123Y001101D01*
X011973Y001251D01*
X011823Y001101D01*
X011123Y001101D01*
X010973Y001251D01*
X010823Y001101D01*
X010123Y001101D01*
X009973Y001251D01*
X009823Y001101D01*
X009123Y001101D01*
X008973Y001251D01*
X008823Y001101D01*
X008123Y001101D01*
X007973Y001251D01*
X007823Y001101D01*
X007123Y001101D01*
X006973Y001251D01*
X006823Y001101D01*
X006123Y001101D01*
X005973Y001251D01*
X005823Y001101D01*
X005123Y001101D01*
X004973Y001251D01*
X004973Y002951D01*
X005123Y003101D01*
X006373Y011101D02*
X007223Y011101D01*
X007225Y011131D01*
X007230Y011161D01*
X007239Y011190D01*
X007252Y011217D01*
X007267Y011243D01*
X007286Y011267D01*
X007307Y011288D01*
X007331Y011307D01*
X007357Y011322D01*
X007384Y011335D01*
X007413Y011344D01*
X007443Y011349D01*
X007473Y011351D01*
X007503Y011349D01*
X007533Y011344D01*
X007562Y011335D01*
X007589Y011322D01*
X007615Y011307D01*
X007639Y011288D01*
X007660Y011267D01*
X007679Y011243D01*
X007694Y011217D01*
X007707Y011190D01*
X007716Y011161D01*
X007721Y011131D01*
X007723Y011101D01*
X008573Y011101D01*
X008573Y015101D01*
X006373Y015101D01*
X006373Y011101D01*
X003973Y013251D02*
X003823Y013101D01*
X002123Y013101D01*
X001973Y013251D01*
X001973Y013951D01*
X002123Y014101D01*
X001973Y014251D01*
X001973Y014951D01*
X002123Y015101D01*
X001973Y015251D01*
X001973Y015951D01*
X002123Y016101D01*
X003823Y016101D01*
X003973Y015951D01*
X003973Y015251D01*
X003823Y015101D01*
X003973Y014951D01*
X003973Y014251D01*
X003823Y014101D01*
X003973Y013951D01*
X003973Y013251D01*
X002704Y012061D02*
X001004Y012061D01*
X000987Y012059D01*
X000970Y012055D01*
X000954Y012048D01*
X000940Y012038D01*
X000927Y012025D01*
X000917Y012011D01*
X000910Y011995D01*
X000906Y011978D01*
X000904Y011961D01*
X000904Y011161D01*
X000906Y011144D01*
X000910Y011127D01*
X000917Y011111D01*
X000927Y011097D01*
X000940Y011084D01*
X000954Y011074D01*
X000970Y011067D01*
X000987Y011063D01*
X001004Y011061D01*
X002704Y011061D01*
X002721Y011063D01*
X002738Y011067D01*
X002754Y011074D01*
X002768Y011084D01*
X002781Y011097D01*
X002791Y011111D01*
X002798Y011127D01*
X002802Y011144D01*
X002804Y011161D01*
X002804Y011961D01*
X002802Y011978D01*
X002798Y011995D01*
X002791Y012011D01*
X002781Y012025D01*
X002768Y012038D01*
X002754Y012048D01*
X002738Y012055D01*
X002721Y012059D01*
X002704Y012061D01*
X002004Y011561D02*
X001954Y011561D01*
X001754Y011561D02*
X001704Y011561D01*
X012223Y011751D02*
X012223Y012451D01*
X012225Y012468D01*
X012229Y012485D01*
X012236Y012501D01*
X012246Y012515D01*
X012259Y012528D01*
X012273Y012538D01*
X012289Y012545D01*
X012306Y012549D01*
X012323Y012551D01*
X012473Y012551D01*
X012523Y012501D01*
X014423Y012501D01*
X014473Y012551D01*
X014623Y012551D01*
X014640Y012549D01*
X014657Y012545D01*
X014673Y012538D01*
X014687Y012528D01*
X014700Y012515D01*
X014710Y012501D01*
X014717Y012485D01*
X014721Y012468D01*
X014723Y012451D01*
X014723Y011751D01*
X014721Y011734D01*
X014717Y011717D01*
X014710Y011701D01*
X014700Y011687D01*
X014687Y011674D01*
X014673Y011664D01*
X014657Y011657D01*
X014640Y011653D01*
X014623Y011651D01*
X014473Y011651D01*
X014423Y011701D01*
X012523Y011701D01*
X012473Y011651D01*
X012323Y011651D01*
X012306Y011653D01*
X012289Y011657D01*
X012273Y011664D01*
X012259Y011674D01*
X012246Y011687D01*
X012236Y011701D01*
X012229Y011717D01*
X012225Y011734D01*
X012223Y011751D01*
X012323Y013151D02*
X012473Y013151D01*
X012523Y013201D01*
X014423Y013201D01*
X014473Y013151D01*
X014623Y013151D01*
X014640Y013153D01*
X014657Y013157D01*
X014673Y013164D01*
X014687Y013174D01*
X014700Y013187D01*
X014710Y013201D01*
X014717Y013217D01*
X014721Y013234D01*
X014723Y013251D01*
X014723Y013951D01*
X014721Y013968D01*
X014717Y013985D01*
X014710Y014001D01*
X014700Y014015D01*
X014687Y014028D01*
X014673Y014038D01*
X014657Y014045D01*
X014640Y014049D01*
X014623Y014051D01*
X014473Y014051D01*
X014423Y014001D01*
X012523Y014001D01*
X012473Y014051D01*
X012323Y014051D01*
X012306Y014049D01*
X012289Y014045D01*
X012273Y014038D01*
X012259Y014028D01*
X012246Y014015D01*
X012236Y014001D01*
X012229Y013985D01*
X012225Y013968D01*
X012223Y013951D01*
X012223Y013251D01*
X012225Y013234D01*
X012229Y013217D01*
X012236Y013201D01*
X012246Y013187D01*
X012259Y013174D01*
X012273Y013164D01*
X012289Y013157D01*
X012306Y013153D01*
X012323Y013151D01*
X012323Y014651D02*
X012473Y014651D01*
X012523Y014701D01*
X014423Y014701D01*
X014473Y014651D01*
X014623Y014651D01*
X014640Y014653D01*
X014657Y014657D01*
X014673Y014664D01*
X014687Y014674D01*
X014700Y014687D01*
X014710Y014701D01*
X014717Y014717D01*
X014721Y014734D01*
X014723Y014751D01*
X014723Y015451D01*
X014721Y015468D01*
X014717Y015485D01*
X014710Y015501D01*
X014700Y015515D01*
X014687Y015528D01*
X014673Y015538D01*
X014657Y015545D01*
X014640Y015549D01*
X014623Y015551D01*
X014473Y015551D01*
X014423Y015501D01*
X012523Y015501D01*
X012473Y015551D01*
X012323Y015551D01*
X012306Y015549D01*
X012289Y015545D01*
X012273Y015538D01*
X012259Y015528D01*
X012246Y015515D01*
X012236Y015501D01*
X012229Y015485D01*
X012225Y015468D01*
X012223Y015451D01*
X012223Y014751D01*
X012225Y014734D01*
X012229Y014717D01*
X012236Y014701D01*
X012246Y014687D01*
X012259Y014674D01*
X012273Y014664D01*
X012289Y014657D01*
X012306Y014653D01*
X012323Y014651D01*
X016058Y002522D02*
X016060Y002588D01*
X016066Y002653D01*
X016076Y002718D01*
X016089Y002783D01*
X016107Y002846D01*
X016128Y002909D01*
X016153Y002969D01*
X016182Y003029D01*
X016214Y003086D01*
X016249Y003142D01*
X016288Y003195D01*
X016330Y003246D01*
X016374Y003294D01*
X016422Y003339D01*
X016472Y003382D01*
X016525Y003421D01*
X016580Y003458D01*
X016637Y003491D01*
X016696Y003520D01*
X016756Y003546D01*
X016818Y003568D01*
X016881Y003587D01*
X016945Y003601D01*
X017010Y003612D01*
X017076Y003619D01*
X017142Y003622D01*
X017207Y003621D01*
X017273Y003616D01*
X017338Y003607D01*
X017403Y003594D01*
X017466Y003578D01*
X017529Y003558D01*
X017590Y003533D01*
X017650Y003506D01*
X017708Y003475D01*
X017764Y003440D01*
X017818Y003402D01*
X017869Y003361D01*
X017918Y003317D01*
X017964Y003270D01*
X018008Y003221D01*
X018048Y003169D01*
X018085Y003114D01*
X018119Y003058D01*
X018149Y002999D01*
X018176Y002939D01*
X018199Y002878D01*
X018218Y002815D01*
X018234Y002751D01*
X018246Y002686D01*
X018254Y002621D01*
X018258Y002555D01*
X018258Y002489D01*
X018254Y002423D01*
X018246Y002358D01*
X018234Y002293D01*
X018218Y002229D01*
X018199Y002166D01*
X018176Y002105D01*
X018149Y002045D01*
X018119Y001986D01*
X018085Y001930D01*
X018048Y001875D01*
X018008Y001823D01*
X017964Y001774D01*
X017918Y001727D01*
X017869Y001683D01*
X017818Y001642D01*
X017764Y001604D01*
X017708Y001569D01*
X017650Y001538D01*
X017590Y001511D01*
X017529Y001486D01*
X017466Y001466D01*
X017403Y001450D01*
X017338Y001437D01*
X017273Y001428D01*
X017207Y001423D01*
X017142Y001422D01*
X017076Y001425D01*
X017010Y001432D01*
X016945Y001443D01*
X016881Y001457D01*
X016818Y001476D01*
X016756Y001498D01*
X016696Y001524D01*
X016637Y001553D01*
X016580Y001586D01*
X016525Y001623D01*
X016472Y001662D01*
X016422Y001705D01*
X016374Y001750D01*
X016330Y001798D01*
X016288Y001849D01*
X016249Y001902D01*
X016214Y001958D01*
X016182Y002015D01*
X016153Y002075D01*
X016128Y002135D01*
X016107Y002198D01*
X016089Y002261D01*
X016076Y002326D01*
X016066Y002391D01*
X016060Y002456D01*
X016058Y002522D01*
X018008Y002522D02*
X018208Y002522D01*
X018108Y002622D02*
X018108Y002422D01*
D17*
X014893Y012101D03*
X014893Y013601D03*
X014893Y015101D03*
X012053Y015101D03*
X012053Y013601D03*
X012053Y012101D03*
D18*
X012494Y012608D02*
X012494Y013058D01*
X012720Y013058D01*
X012795Y012983D01*
X012795Y012833D01*
X012720Y012758D01*
X012494Y012758D01*
X012645Y012758D02*
X012795Y012608D01*
X012955Y012608D02*
X013255Y012608D01*
X013105Y012608D02*
X013105Y013058D01*
X012955Y012908D01*
X012958Y013376D02*
X013108Y013376D01*
X013183Y013451D01*
X013183Y013526D01*
X013108Y013601D01*
X012883Y013601D01*
X012883Y013451D01*
X012958Y013376D01*
X012883Y013601D02*
X013033Y013751D01*
X013183Y013826D01*
X013344Y013751D02*
X013344Y013676D01*
X013419Y013601D01*
X013569Y013601D01*
X013644Y013526D01*
X013644Y013451D01*
X013569Y013376D01*
X013419Y013376D01*
X013344Y013451D01*
X013344Y013526D01*
X013419Y013601D01*
X013569Y013601D02*
X013644Y013676D01*
X013644Y013751D01*
X013569Y013826D01*
X013419Y013826D01*
X013344Y013751D01*
X013255Y014108D02*
X012955Y014108D01*
X013255Y014408D01*
X013255Y014483D01*
X013180Y014558D01*
X013030Y014558D01*
X012955Y014483D01*
X012795Y014483D02*
X012795Y014333D01*
X012720Y014258D01*
X012494Y014258D01*
X012494Y014108D02*
X012494Y014558D01*
X012720Y014558D01*
X012795Y014483D01*
X012645Y014258D02*
X012795Y014108D01*
X012923Y014876D02*
X013223Y015176D01*
X013223Y015251D01*
X013148Y015326D01*
X012998Y015326D01*
X012923Y015251D01*
X013030Y015608D02*
X012955Y015683D01*
X013030Y015608D02*
X013180Y015608D01*
X013255Y015683D01*
X013255Y015758D01*
X013180Y015833D01*
X013105Y015833D01*
X013180Y015833D02*
X013255Y015908D01*
X013255Y015983D01*
X013180Y016058D01*
X013030Y016058D01*
X012955Y015983D01*
X012795Y015983D02*
X012795Y015833D01*
X012720Y015758D01*
X012494Y015758D01*
X012494Y015608D02*
X012494Y016058D01*
X012720Y016058D01*
X012795Y015983D01*
X012645Y015758D02*
X012795Y015608D01*
X013383Y015326D02*
X013383Y014876D01*
X013383Y015026D02*
X013608Y015176D01*
X013767Y015251D02*
X013842Y015326D01*
X013992Y015326D01*
X014067Y015251D01*
X014067Y015176D01*
X013767Y014876D01*
X014067Y014876D01*
X013608Y014876D02*
X013383Y015026D01*
X013223Y014876D02*
X012923Y014876D01*
X013804Y013826D02*
X014029Y013826D01*
X014104Y013751D01*
X014104Y013601D01*
X014029Y013526D01*
X013804Y013526D01*
X013954Y013526D02*
X014104Y013376D01*
X013804Y013376D02*
X013804Y013826D01*
X013804Y012326D02*
X014029Y012326D01*
X014104Y012251D01*
X014104Y012101D01*
X014029Y012026D01*
X013804Y012026D01*
X013954Y012026D02*
X014104Y011876D01*
X013804Y011876D02*
X013804Y012326D01*
X013644Y012251D02*
X013644Y012176D01*
X013569Y012101D01*
X013419Y012101D01*
X013344Y012176D01*
X013344Y012251D01*
X013419Y012326D01*
X013569Y012326D01*
X013644Y012251D01*
X013569Y012101D02*
X013644Y012026D01*
X013644Y011951D01*
X013569Y011876D01*
X013419Y011876D01*
X013344Y011951D01*
X013344Y012026D01*
X013419Y012101D01*
X013183Y012026D02*
X013108Y012101D01*
X012883Y012101D01*
X012883Y011951D01*
X012958Y011876D01*
X013108Y011876D01*
X013183Y011951D01*
X013183Y012026D01*
X013033Y012251D02*
X012883Y012101D01*
X013033Y012251D02*
X013183Y012326D01*
X015684Y011446D02*
X015684Y010995D01*
X015909Y010995D01*
X015984Y011070D01*
X015984Y011371D01*
X015909Y011446D01*
X015684Y011446D01*
X016144Y011371D02*
X016220Y011446D01*
X016370Y011446D01*
X016445Y011371D01*
X016445Y011296D01*
X016144Y010995D01*
X016445Y010995D01*
X016305Y010261D02*
X016155Y010111D01*
X016305Y010261D02*
X016305Y009811D01*
X016155Y009811D02*
X016455Y009811D01*
X015995Y009811D02*
X015695Y009811D01*
X015845Y009811D02*
X015845Y010261D01*
X015695Y010111D01*
X015534Y010186D02*
X015459Y010261D01*
X015234Y010261D01*
X015234Y009811D01*
X015459Y009811D01*
X015534Y009886D01*
X015534Y010186D01*
X014577Y010194D02*
X014577Y009894D01*
X014502Y009819D01*
X014352Y009819D01*
X014277Y009894D01*
X014577Y010194D01*
X014502Y010269D01*
X014352Y010269D01*
X014277Y010194D01*
X014277Y009894D01*
X014117Y009819D02*
X013817Y009819D01*
X013967Y009819D02*
X013967Y010269D01*
X013817Y010119D01*
X013656Y010194D02*
X013581Y010269D01*
X013356Y010269D01*
X013356Y009819D01*
X013581Y009819D01*
X013656Y009894D01*
X013656Y010194D01*
X012869Y010190D02*
X012869Y009890D01*
X012794Y009815D01*
X012644Y009815D01*
X012569Y009890D01*
X012408Y009890D02*
X012408Y010190D01*
X012333Y010265D01*
X012108Y010265D01*
X012108Y009815D01*
X012333Y009815D01*
X012408Y009890D01*
X012569Y010115D02*
X012644Y010040D01*
X012869Y010040D01*
X012869Y010190D02*
X012794Y010265D01*
X012644Y010265D01*
X012569Y010190D01*
X012569Y010115D01*
X011298Y010111D02*
X011223Y010036D01*
X011072Y010036D01*
X010997Y010111D01*
X010997Y010186D01*
X011072Y010261D01*
X011223Y010261D01*
X011298Y010186D01*
X011298Y010111D01*
X011223Y010036D02*
X011298Y009961D01*
X011298Y009886D01*
X011223Y009811D01*
X011072Y009811D01*
X010997Y009886D01*
X010997Y009961D01*
X011072Y010036D01*
X010837Y009886D02*
X010762Y009811D01*
X010537Y009811D01*
X010537Y010261D01*
X010762Y010261D01*
X010837Y010186D01*
X010837Y009886D01*
X009841Y010143D02*
X009541Y009843D01*
X009541Y009768D01*
X009381Y009843D02*
X009381Y010143D01*
X009306Y010218D01*
X009080Y010218D01*
X009080Y009768D01*
X009306Y009768D01*
X009381Y009843D01*
X009541Y010218D02*
X009841Y010218D01*
X009841Y010143D01*
X008613Y010516D02*
X008313Y010516D01*
X008463Y010516D02*
X008463Y010966D01*
X008313Y010816D01*
X008153Y010891D02*
X008078Y010966D01*
X007927Y010966D01*
X007852Y010891D01*
X007852Y010591D01*
X007927Y010516D01*
X008078Y010516D01*
X008153Y010591D01*
X007696Y010516D02*
X007546Y010516D01*
X007621Y010516D02*
X007621Y010966D01*
X007546Y010966D02*
X007696Y010966D01*
X007680Y011665D02*
X007380Y011665D01*
X007230Y011815D01*
X007380Y011965D01*
X007680Y011965D01*
X007455Y011965D02*
X007455Y011665D01*
X007230Y012126D02*
X007230Y012426D01*
X007230Y012276D02*
X007680Y012276D01*
X007680Y012736D02*
X007230Y012736D01*
X007230Y012586D02*
X007230Y012886D01*
X007230Y013046D02*
X007230Y013196D01*
X007230Y013121D02*
X007680Y013121D01*
X007680Y013046D02*
X007680Y013196D01*
X007680Y013353D02*
X007230Y013353D01*
X007680Y013653D01*
X007230Y013653D01*
X007230Y013813D02*
X007305Y013813D01*
X007455Y013964D01*
X007680Y013964D01*
X007455Y013964D02*
X007305Y014114D01*
X007230Y014114D01*
X007455Y014274D02*
X007455Y014574D01*
X007455Y014734D02*
X007230Y014734D01*
X007230Y015034D01*
X007380Y014959D02*
X007455Y015034D01*
X007605Y015034D01*
X007680Y014959D01*
X007680Y014809D01*
X007605Y014734D01*
X007455Y014734D02*
X007380Y014884D01*
X007380Y014959D01*
X007230Y014499D02*
X007455Y014274D01*
X007680Y014499D02*
X007230Y014499D01*
X004598Y014426D02*
X004297Y014726D01*
X004222Y014726D01*
X004147Y014651D01*
X004147Y014501D01*
X004222Y014426D01*
X004598Y014426D02*
X004598Y014726D01*
X004523Y015426D02*
X004598Y015501D01*
X004598Y015651D01*
X004523Y015726D01*
X004447Y015726D01*
X004372Y015651D01*
X004372Y015576D01*
X004372Y015651D02*
X004297Y015726D01*
X004222Y015726D01*
X004147Y015651D01*
X004147Y015501D01*
X004222Y015426D01*
X003702Y016229D02*
X003702Y016679D01*
X003927Y016679D01*
X004002Y016604D01*
X004002Y016454D01*
X003927Y016379D01*
X003702Y016379D01*
X003542Y016379D02*
X003542Y016304D01*
X003467Y016229D01*
X003317Y016229D01*
X003242Y016304D01*
X003317Y016454D02*
X003467Y016454D01*
X003542Y016379D01*
X003542Y016604D02*
X003467Y016679D01*
X003317Y016679D01*
X003242Y016604D01*
X003242Y016529D01*
X003317Y016454D01*
X003085Y016229D02*
X002935Y016229D01*
X003010Y016229D02*
X003010Y016679D01*
X002935Y016679D02*
X003085Y016679D01*
X004598Y013726D02*
X004598Y013426D01*
X004598Y013576D02*
X004147Y013576D01*
X004297Y013426D01*
X003856Y012981D02*
X003706Y012981D01*
X003631Y012906D01*
X003471Y012906D02*
X003471Y012756D01*
X003396Y012681D01*
X003171Y012681D01*
X003171Y012531D02*
X003171Y012981D01*
X003396Y012981D01*
X003471Y012906D01*
X003856Y012981D02*
X003931Y012906D01*
X003931Y012831D01*
X003631Y012531D01*
X003931Y012531D01*
X003011Y012981D02*
X002861Y012981D01*
X002936Y012981D02*
X002936Y012606D01*
X002861Y012531D01*
X002786Y012531D01*
X002711Y012606D01*
X002186Y012412D02*
X002186Y012186D01*
X001886Y012186D02*
X001886Y012487D01*
X002111Y012487D01*
X002186Y012412D01*
X001726Y012562D02*
X001726Y012261D01*
X001651Y012186D01*
X001501Y012186D01*
X001426Y012261D01*
X001726Y012562D01*
X001651Y012637D01*
X001501Y012637D01*
X001426Y012562D01*
X001426Y012261D01*
X001265Y012261D02*
X001190Y012186D01*
X001040Y012186D01*
X000965Y012261D01*
X001265Y012562D01*
X001265Y012261D01*
X001265Y012562D02*
X001190Y012637D01*
X001040Y012637D01*
X000965Y012562D01*
X000965Y012261D01*
X000805Y012186D02*
X000505Y012186D01*
X000655Y012186D02*
X000655Y012637D01*
X000505Y012487D01*
X000910Y010937D02*
X000835Y010862D01*
X000835Y010561D01*
X000910Y010486D01*
X001060Y010486D01*
X001135Y010561D01*
X001295Y010486D02*
X001596Y010486D01*
X001446Y010486D02*
X001446Y010937D01*
X001295Y010787D01*
X001135Y010862D02*
X001060Y010937D01*
X000910Y010937D01*
X002057Y010226D02*
X002282Y010226D01*
X002357Y010151D01*
X002357Y009850D01*
X002282Y009775D01*
X002057Y009775D01*
X002057Y010226D01*
X002517Y010151D02*
X002592Y010226D01*
X002743Y010226D01*
X002818Y010151D01*
X002818Y010076D01*
X002743Y010001D01*
X002818Y009926D01*
X002818Y009850D01*
X002743Y009775D01*
X002592Y009775D01*
X002517Y009850D01*
X002668Y010001D02*
X002743Y010001D01*
X003592Y009779D02*
X003818Y009779D01*
X003893Y009854D01*
X003893Y010155D01*
X003818Y010230D01*
X003592Y010230D01*
X003592Y009779D01*
X004053Y010004D02*
X004353Y010004D01*
X004278Y009779D02*
X004278Y010230D01*
X004053Y010004D01*
X005089Y009783D02*
X005314Y009783D01*
X005389Y009858D01*
X005389Y010159D01*
X005314Y010234D01*
X005089Y010234D01*
X005089Y009783D01*
X005549Y009858D02*
X005624Y009783D01*
X005774Y009783D01*
X005849Y009858D01*
X005849Y010008D01*
X005774Y010084D01*
X005699Y010084D01*
X005549Y010008D01*
X005549Y010234D01*
X005849Y010234D01*
X007033Y010226D02*
X007033Y009775D01*
X007258Y009775D01*
X007333Y009850D01*
X007333Y010151D01*
X007258Y010226D01*
X007033Y010226D01*
X007494Y010001D02*
X007494Y009850D01*
X007569Y009775D01*
X007719Y009775D01*
X007794Y009850D01*
X007794Y009926D01*
X007719Y010001D01*
X007494Y010001D01*
X007644Y010151D01*
X007794Y010226D01*
X016090Y004056D02*
X016240Y004206D01*
X016240Y003756D01*
X016090Y003756D02*
X016390Y003756D01*
X016550Y003831D02*
X016851Y004131D01*
X016851Y003831D01*
X016776Y003756D01*
X016625Y003756D01*
X016550Y003831D01*
X016550Y004131D01*
X016625Y004206D01*
X016776Y004206D01*
X016851Y004131D01*
X017011Y004056D02*
X017011Y003831D01*
X017086Y003756D01*
X017311Y003756D01*
X017311Y004056D01*
X018361Y004043D02*
X018361Y004493D01*
X018586Y004493D01*
X018661Y004418D01*
X018661Y004268D01*
X018586Y004193D01*
X018361Y004193D01*
X018511Y004193D02*
X018661Y004043D01*
X018821Y004043D02*
X019121Y004043D01*
X019281Y004118D02*
X019356Y004043D01*
X019506Y004043D01*
X019582Y004118D01*
X019582Y004193D01*
X019506Y004268D01*
X019356Y004268D01*
X019281Y004343D01*
X019281Y004418D01*
X019356Y004493D01*
X019506Y004493D01*
X019582Y004418D01*
X019742Y004493D02*
X019742Y004043D01*
X020042Y004043D01*
X020352Y004043D02*
X020352Y004493D01*
X020202Y004493D02*
X020502Y004493D01*
X020042Y004493D02*
X019742Y004493D01*
X019742Y004268D02*
X019892Y004268D01*
X019121Y004493D02*
X018821Y004493D01*
X018821Y004043D01*
X018821Y004268D02*
X018971Y004268D01*
X016960Y001267D02*
X016810Y001267D01*
X016735Y001192D01*
X016575Y001192D02*
X016500Y001267D01*
X016350Y001267D01*
X016275Y001192D01*
X016275Y000892D01*
X016350Y000817D01*
X016500Y000817D01*
X016575Y000892D01*
X016735Y000817D02*
X017035Y001117D01*
X017035Y001192D01*
X016960Y001267D01*
X017035Y000817D02*
X016735Y000817D01*
X012995Y000526D02*
X012695Y000526D01*
X012845Y000526D02*
X012845Y000976D01*
X012695Y000826D01*
X012535Y000751D02*
X012459Y000676D01*
X012234Y000676D01*
X012234Y000526D02*
X012234Y000976D01*
X012459Y000976D01*
X012535Y000901D01*
X012535Y000751D01*
X012074Y000976D02*
X011924Y000976D01*
X011999Y000976D02*
X011999Y000601D01*
X011924Y000526D01*
X011849Y000526D01*
X011774Y000601D01*
X008495Y000569D02*
X008420Y000494D01*
X008269Y000494D01*
X008194Y000569D01*
X008269Y000719D02*
X008420Y000719D01*
X008495Y000644D01*
X008495Y000569D01*
X008269Y000719D02*
X008194Y000794D01*
X008194Y000869D01*
X008269Y000944D01*
X008420Y000944D01*
X008495Y000869D01*
X008034Y000944D02*
X007734Y000944D01*
X007734Y000494D01*
X008034Y000494D01*
X007884Y000719D02*
X007734Y000719D01*
X007574Y000719D02*
X007274Y000719D01*
X007114Y000569D02*
X007039Y000494D01*
X006888Y000494D01*
X006813Y000569D01*
X006813Y000869D01*
X006888Y000944D01*
X007039Y000944D01*
X007114Y000869D01*
X007274Y000944D02*
X007274Y000494D01*
X007574Y000494D02*
X007574Y000944D01*
X006653Y000944D02*
X006353Y000944D01*
X006503Y000944D02*
X006503Y000494D01*
X006196Y000494D02*
X006046Y000494D01*
X006121Y000494D02*
X006121Y000944D01*
X006046Y000944D02*
X006196Y000944D01*
X005886Y000944D02*
X005886Y000494D01*
X005736Y000644D01*
X005586Y000494D01*
X005586Y000944D01*
X005426Y000869D02*
X005351Y000944D01*
X005200Y000944D01*
X005125Y000869D01*
X005125Y000794D01*
X005200Y000719D01*
X005351Y000719D01*
X005426Y000644D01*
X005426Y000569D01*
X005351Y000494D01*
X005200Y000494D01*
X005125Y000569D01*
X005312Y003276D02*
X005237Y003351D01*
X005237Y003426D01*
X005312Y003501D01*
X005462Y003501D01*
X005537Y003426D01*
X005537Y003351D01*
X005462Y003276D01*
X005312Y003276D01*
X005312Y003501D02*
X005237Y003576D01*
X005237Y003651D01*
X005312Y003726D01*
X005462Y003726D01*
X005537Y003651D01*
X005537Y003576D01*
X005462Y003501D01*
X006237Y003351D02*
X006237Y003276D01*
X006237Y003351D02*
X006537Y003651D01*
X006537Y003726D01*
X006237Y003726D01*
X007237Y003501D02*
X007237Y003351D01*
X007312Y003276D01*
X007462Y003276D01*
X007537Y003351D01*
X007537Y003426D01*
X007462Y003501D01*
X007237Y003501D01*
X007387Y003651D01*
X007537Y003726D01*
X008237Y003726D02*
X008237Y003501D01*
X008387Y003576D01*
X008462Y003576D01*
X008537Y003501D01*
X008537Y003351D01*
X008462Y003276D01*
X008312Y003276D01*
X008237Y003351D01*
X008237Y003726D02*
X008537Y003726D01*
X009237Y003501D02*
X009537Y003501D01*
X009462Y003276D02*
X009462Y003726D01*
X009237Y003501D01*
X010237Y003351D02*
X010312Y003276D01*
X010462Y003276D01*
X010537Y003351D01*
X010537Y003426D01*
X010462Y003501D01*
X010387Y003501D01*
X010462Y003501D02*
X010537Y003576D01*
X010537Y003651D01*
X010462Y003726D01*
X010312Y003726D01*
X010237Y003651D01*
X011237Y003651D02*
X011312Y003726D01*
X011462Y003726D01*
X011537Y003651D01*
X011537Y003576D01*
X011237Y003276D01*
X011537Y003276D01*
X012237Y003276D02*
X012537Y003276D01*
X012387Y003276D02*
X012387Y003726D01*
X012237Y003576D01*
X019109Y008119D02*
X019184Y008044D01*
X019334Y008044D01*
X019409Y008119D01*
X019409Y008194D01*
X019334Y008269D01*
X019184Y008269D01*
X019109Y008345D01*
X019109Y008420D01*
X019184Y008495D01*
X019334Y008495D01*
X019409Y008420D01*
X019569Y008345D02*
X019719Y008495D01*
X019719Y008044D01*
X019569Y008044D02*
X019869Y008044D01*
X017627Y014264D02*
X017327Y014264D01*
X017477Y014264D02*
X017477Y014714D01*
X017327Y014564D01*
X017167Y014639D02*
X017092Y014714D01*
X016867Y014714D01*
X016867Y014264D01*
X017092Y014264D01*
X017167Y014339D01*
X017167Y014639D01*
D19*
X013973Y007751D03*
X012473Y007751D03*
X010973Y006451D03*
X009473Y006451D03*
X007473Y006451D03*
X005473Y006451D03*
X003973Y007751D03*
X002473Y007751D03*
X015973Y006451D03*
D20*
X015973Y005826D03*
X013973Y005826D03*
X012473Y005826D03*
X010973Y005826D03*
X009473Y005826D03*
X007473Y005826D03*
X005473Y005826D03*
X003973Y005826D03*
X002473Y005826D03*
X002473Y008376D03*
X003973Y008376D03*
X005473Y008376D03*
X007473Y008376D03*
X009473Y008376D03*
X010973Y008376D03*
X012473Y008376D03*
X013973Y008376D03*
X015973Y008376D03*
M02*
