%
M48
M72
T01C0.0236
T02C0.0320
T03C0.0360
T04C0.0374
T05C0.0400
T06C0.0906
%
T01
X973Y1101
X6473Y4101
X8473Y4101
X10473Y4101
X8473Y9101
X6473Y9101
X10973Y11101
X9973Y12601
X9973Y13601
X8973Y16601
X5973Y16601
X4984Y15601
X4973Y14601
X4973Y12601
X1473Y14601
X973Y16601
X14973Y11101
X14973Y10101
X17473Y15101
X20473Y16601
X20473Y1101
T02
X17658Y2522
X16658Y2522
X15973Y5101
X13973Y5101
X12473Y5101
X10973Y5101
X9473Y5101
X7473Y5101
X5473Y5101
X3973Y5101
X2473Y5101
X2473Y9101
X3973Y9101
X5473Y9101
X7473Y9101
X9473Y9101
X10973Y9101
X12473Y9101
X13973Y9101
X15973Y9101
X16973Y10101
X16973Y12101
X15473Y12101
X15473Y13601
X16473Y13601
X15473Y15101
X16473Y15601
X11473Y15101
X11473Y13601
X11473Y12101
X8973Y12601
X8973Y13601
X8973Y14601
X5973Y14601
X5973Y13601
X5973Y12601
X5973Y11601
X8973Y11601
X2354Y11561
X1354Y11561
T03
X2473Y13601
X3473Y13601
X3473Y14601
X2473Y14601
X2473Y15601
X3473Y15601
X5473Y2601
X6473Y2601
X7473Y2601
X8473Y2601
X9473Y2601
X10473Y2601
X11473Y2601
X12473Y2601
X12473Y1601
X11473Y1601
X10473Y1601
X9473Y1601
X8473Y1601
X7473Y1601
X6473Y1601
X5473Y1601
T04
X18618Y11609
X19406Y11609
X19406Y12593
X18618Y12593
T05
X18583Y7881
X20363Y7881
X20363Y5321
X18583Y5321
T06
X20473Y9731
X20473Y14471
M30
