G75*
G70*
%OFA0B0*%
%FSLAX24Y24*%
%IPPOS*%
%LPD*%
%AMOC8*
5,1,8,0,0,1.08239X$1,22.5*
%
%ADD10C,0.0000*%
%ADD11C,0.0130*%
%ADD12C,0.0080*%
%ADD13C,0.0110*%
%ADD14OC8,0.0531*%
%ADD15OC8,0.0477*%
%ADD16OC8,0.0620*%
%ADD17C,0.0620*%
%ADD18C,0.0557*%
%ADD19C,0.0477*%
%ADD20OC8,0.0517*%
%ADD21R,0.0394X0.0394*%
%ADD22C,0.0160*%
D10*
X000103Y000105D02*
X021473Y000105D01*
X021473Y017601D01*
X000103Y017601D01*
X000103Y000105D01*
X000855Y001101D02*
X000857Y001122D01*
X000863Y001142D01*
X000872Y001162D01*
X000884Y001179D01*
X000899Y001193D01*
X000917Y001205D01*
X000937Y001213D01*
X000957Y001218D01*
X000978Y001219D01*
X000999Y001216D01*
X001019Y001210D01*
X001038Y001199D01*
X001055Y001186D01*
X001068Y001170D01*
X001079Y001152D01*
X001087Y001132D01*
X001091Y001112D01*
X001091Y001090D01*
X001087Y001070D01*
X001079Y001050D01*
X001068Y001032D01*
X001055Y001016D01*
X001038Y001003D01*
X001019Y000992D01*
X000999Y000986D01*
X000978Y000983D01*
X000957Y000984D01*
X000937Y000989D01*
X000917Y000997D01*
X000899Y001009D01*
X000884Y001023D01*
X000872Y001040D01*
X000863Y001060D01*
X000857Y001080D01*
X000855Y001101D01*
X020355Y001101D02*
X020357Y001122D01*
X020363Y001142D01*
X020372Y001162D01*
X020384Y001179D01*
X020399Y001193D01*
X020417Y001205D01*
X020437Y001213D01*
X020457Y001218D01*
X020478Y001219D01*
X020499Y001216D01*
X020519Y001210D01*
X020538Y001199D01*
X020555Y001186D01*
X020568Y001170D01*
X020579Y001152D01*
X020587Y001132D01*
X020591Y001112D01*
X020591Y001090D01*
X020587Y001070D01*
X020579Y001050D01*
X020568Y001032D01*
X020555Y001016D01*
X020538Y001003D01*
X020519Y000992D01*
X020499Y000986D01*
X020478Y000983D01*
X020457Y000984D01*
X020437Y000989D01*
X020417Y000997D01*
X020399Y001009D01*
X020384Y001023D01*
X020372Y001040D01*
X020363Y001060D01*
X020357Y001080D01*
X020355Y001101D01*
X020020Y009731D02*
X020022Y009773D01*
X020028Y009815D01*
X020038Y009857D01*
X020051Y009897D01*
X020069Y009936D01*
X020090Y009973D01*
X020114Y010007D01*
X020142Y010040D01*
X020172Y010070D01*
X020205Y010096D01*
X020240Y010120D01*
X020278Y010140D01*
X020317Y010156D01*
X020357Y010169D01*
X020399Y010178D01*
X020441Y010183D01*
X020484Y010184D01*
X020526Y010181D01*
X020568Y010174D01*
X020609Y010163D01*
X020649Y010148D01*
X020687Y010130D01*
X020724Y010108D01*
X020758Y010083D01*
X020790Y010055D01*
X020818Y010024D01*
X020844Y009990D01*
X020867Y009954D01*
X020886Y009917D01*
X020902Y009877D01*
X020914Y009836D01*
X020922Y009795D01*
X020926Y009752D01*
X020926Y009710D01*
X020922Y009667D01*
X020914Y009626D01*
X020902Y009585D01*
X020886Y009545D01*
X020867Y009508D01*
X020844Y009472D01*
X020818Y009438D01*
X020790Y009407D01*
X020758Y009379D01*
X020724Y009354D01*
X020687Y009332D01*
X020649Y009314D01*
X020609Y009299D01*
X020568Y009288D01*
X020526Y009281D01*
X020484Y009278D01*
X020441Y009279D01*
X020399Y009284D01*
X020357Y009293D01*
X020317Y009306D01*
X020278Y009322D01*
X020240Y009342D01*
X020205Y009366D01*
X020172Y009392D01*
X020142Y009422D01*
X020114Y009455D01*
X020090Y009489D01*
X020069Y009526D01*
X020051Y009565D01*
X020038Y009605D01*
X020028Y009647D01*
X020022Y009689D01*
X020020Y009731D01*
X020020Y014471D02*
X020022Y014513D01*
X020028Y014555D01*
X020038Y014597D01*
X020051Y014637D01*
X020069Y014676D01*
X020090Y014713D01*
X020114Y014747D01*
X020142Y014780D01*
X020172Y014810D01*
X020205Y014836D01*
X020240Y014860D01*
X020278Y014880D01*
X020317Y014896D01*
X020357Y014909D01*
X020399Y014918D01*
X020441Y014923D01*
X020484Y014924D01*
X020526Y014921D01*
X020568Y014914D01*
X020609Y014903D01*
X020649Y014888D01*
X020687Y014870D01*
X020724Y014848D01*
X020758Y014823D01*
X020790Y014795D01*
X020818Y014764D01*
X020844Y014730D01*
X020867Y014694D01*
X020886Y014657D01*
X020902Y014617D01*
X020914Y014576D01*
X020922Y014535D01*
X020926Y014492D01*
X020926Y014450D01*
X020922Y014407D01*
X020914Y014366D01*
X020902Y014325D01*
X020886Y014285D01*
X020867Y014248D01*
X020844Y014212D01*
X020818Y014178D01*
X020790Y014147D01*
X020758Y014119D01*
X020724Y014094D01*
X020687Y014072D01*
X020649Y014054D01*
X020609Y014039D01*
X020568Y014028D01*
X020526Y014021D01*
X020484Y014018D01*
X020441Y014019D01*
X020399Y014024D01*
X020357Y014033D01*
X020317Y014046D01*
X020278Y014062D01*
X020240Y014082D01*
X020205Y014106D01*
X020172Y014132D01*
X020142Y014162D01*
X020114Y014195D01*
X020090Y014229D01*
X020069Y014266D01*
X020051Y014305D01*
X020038Y014345D01*
X020028Y014387D01*
X020022Y014429D01*
X020020Y014471D01*
X020355Y016601D02*
X020357Y016622D01*
X020363Y016642D01*
X020372Y016662D01*
X020384Y016679D01*
X020399Y016693D01*
X020417Y016705D01*
X020437Y016713D01*
X020457Y016718D01*
X020478Y016719D01*
X020499Y016716D01*
X020519Y016710D01*
X020538Y016699D01*
X020555Y016686D01*
X020568Y016670D01*
X020579Y016652D01*
X020587Y016632D01*
X020591Y016612D01*
X020591Y016590D01*
X020587Y016570D01*
X020579Y016550D01*
X020568Y016532D01*
X020555Y016516D01*
X020538Y016503D01*
X020519Y016492D01*
X020499Y016486D01*
X020478Y016483D01*
X020457Y016484D01*
X020437Y016489D01*
X020417Y016497D01*
X020399Y016509D01*
X020384Y016523D01*
X020372Y016540D01*
X020363Y016560D01*
X020357Y016580D01*
X020355Y016601D01*
X000855Y016601D02*
X000857Y016622D01*
X000863Y016642D01*
X000872Y016662D01*
X000884Y016679D01*
X000899Y016693D01*
X000917Y016705D01*
X000937Y016713D01*
X000957Y016718D01*
X000978Y016719D01*
X000999Y016716D01*
X001019Y016710D01*
X001038Y016699D01*
X001055Y016686D01*
X001068Y016670D01*
X001079Y016652D01*
X001087Y016632D01*
X001091Y016612D01*
X001091Y016590D01*
X001087Y016570D01*
X001079Y016550D01*
X001068Y016532D01*
X001055Y016516D01*
X001038Y016503D01*
X001019Y016492D01*
X000999Y016486D01*
X000978Y016483D01*
X000957Y016484D01*
X000937Y016489D01*
X000917Y016497D01*
X000899Y016509D01*
X000884Y016523D01*
X000872Y016540D01*
X000863Y016560D01*
X000857Y016580D01*
X000855Y016601D01*
D11*
X000801Y003396D02*
X001045Y003153D01*
X001288Y003396D01*
X001288Y002666D01*
X001593Y002666D02*
X001837Y002666D01*
X001715Y002666D02*
X001715Y003396D01*
X001593Y003396D02*
X001837Y003396D01*
X002121Y003396D02*
X002486Y003396D01*
X002608Y003275D01*
X002608Y003031D01*
X002486Y002909D01*
X002121Y002909D01*
X002121Y002666D02*
X002121Y003396D01*
X002365Y002909D02*
X002608Y002666D01*
X002913Y002666D02*
X002913Y003153D01*
X003156Y003396D01*
X003400Y003153D01*
X003400Y002666D01*
X003400Y003031D02*
X002913Y003031D01*
X000801Y002666D02*
X000801Y003396D01*
D12*
X001846Y002061D02*
X001776Y001991D01*
X001846Y002061D02*
X001987Y002061D01*
X002057Y001991D01*
X002057Y001921D01*
X001776Y001641D01*
X002057Y001641D01*
X002237Y001711D02*
X002517Y001991D01*
X002517Y001711D01*
X002447Y001641D01*
X002307Y001641D01*
X002237Y001711D01*
X002237Y001991D01*
X002307Y002061D01*
X002447Y002061D01*
X002517Y001991D01*
X002697Y001921D02*
X002837Y002061D01*
X002837Y001641D01*
X002697Y001641D02*
X002977Y001641D01*
X003157Y001641D02*
X003438Y001641D01*
X003298Y001641D02*
X003298Y002061D01*
X003157Y001921D01*
D13*
X012488Y016353D02*
X012488Y016746D01*
X012685Y016943D01*
X012882Y016746D01*
X012882Y016353D01*
X013133Y016451D02*
X013133Y016648D01*
X013231Y016746D01*
X013526Y016746D01*
X013526Y016943D02*
X013526Y016353D01*
X013231Y016353D01*
X013133Y016451D01*
X012882Y016648D02*
X012488Y016648D01*
X013777Y016648D02*
X014171Y016648D01*
X014422Y016648D02*
X014815Y016648D01*
X014815Y016746D02*
X014815Y016353D01*
X015066Y016353D02*
X015362Y016353D01*
X015460Y016451D01*
X015362Y016549D01*
X015165Y016549D01*
X015066Y016648D01*
X015165Y016746D01*
X015460Y016746D01*
X015711Y016746D02*
X015908Y016746D01*
X015809Y016845D02*
X015809Y016451D01*
X015908Y016353D01*
X016141Y016353D02*
X016141Y016746D01*
X016337Y016746D02*
X016141Y016549D01*
X016337Y016746D02*
X016436Y016746D01*
X016776Y016746D02*
X016973Y016746D01*
X017071Y016648D01*
X017071Y016353D01*
X016776Y016353D01*
X016678Y016451D01*
X016776Y016549D01*
X017071Y016549D01*
X017967Y016353D02*
X018164Y016353D01*
X018065Y016353D02*
X018065Y016943D01*
X017967Y016943D02*
X018164Y016943D01*
X018396Y016943D02*
X018593Y016943D01*
X018495Y016943D02*
X018495Y016353D01*
X018593Y016353D02*
X018396Y016353D01*
X018826Y016353D02*
X019023Y016353D01*
X018924Y016353D02*
X018924Y016943D01*
X018826Y016943D02*
X019023Y016943D01*
X014815Y016746D02*
X014619Y016943D01*
X014422Y016746D01*
X014422Y016353D01*
D14*
X018618Y012593D03*
X019406Y012593D03*
X019406Y011609D03*
X018618Y011609D03*
D15*
X016973Y012101D03*
X015473Y012101D03*
X015473Y013601D03*
X016473Y013601D03*
X015473Y015101D03*
X016473Y015601D03*
X011473Y015101D03*
X011473Y013601D03*
X011473Y012101D03*
X016973Y010101D03*
X002354Y011561D03*
X001354Y011561D03*
D16*
X016658Y002522D03*
D17*
X017658Y002522D03*
D18*
X018583Y005042D02*
X018583Y005600D01*
X020363Y005600D02*
X020363Y005042D01*
X020363Y007602D02*
X020363Y008160D01*
X018583Y008160D02*
X018583Y007602D01*
D19*
X015973Y008862D02*
X015973Y009340D01*
X013973Y009340D02*
X013973Y008862D01*
X012473Y008862D02*
X012473Y009340D01*
X010973Y009340D02*
X010973Y008862D01*
X009473Y008862D02*
X009473Y009340D01*
X007473Y009340D02*
X007473Y008862D01*
X005473Y008862D02*
X005473Y009340D01*
X003973Y009340D02*
X003973Y008862D01*
X002473Y008862D02*
X002473Y009340D01*
X005734Y011601D02*
X006211Y011601D01*
X006211Y012601D02*
X005734Y012601D01*
X005734Y013601D02*
X006211Y013601D01*
X006211Y014601D02*
X005734Y014601D01*
X008734Y014601D02*
X009211Y014601D01*
X009211Y013601D02*
X008734Y013601D01*
X008734Y012601D02*
X009211Y012601D01*
X009211Y011601D02*
X008734Y011601D01*
X009473Y005340D02*
X009473Y004862D01*
X010973Y004862D02*
X010973Y005340D01*
X012473Y005340D02*
X012473Y004862D01*
X013973Y004862D02*
X013973Y005340D01*
X015973Y005340D02*
X015973Y004862D01*
X007473Y004862D02*
X007473Y005340D01*
X005473Y005340D02*
X005473Y004862D01*
X003973Y004862D02*
X003973Y005340D01*
X002473Y005340D02*
X002473Y004862D01*
D20*
X005473Y002601D03*
X006473Y002601D03*
X007473Y002601D03*
X008473Y002601D03*
X009473Y002601D03*
X010473Y002601D03*
X011473Y002601D03*
X012473Y002601D03*
X012473Y001601D03*
X011473Y001601D03*
X010473Y001601D03*
X009473Y001601D03*
X008473Y001601D03*
X007473Y001601D03*
X006473Y001601D03*
X005473Y001601D03*
X003473Y013601D03*
X002473Y013601D03*
X002473Y014601D03*
X003473Y014601D03*
X003473Y015601D03*
X002473Y015601D03*
D21*
X001473Y014601D03*
X004973Y014601D03*
X004984Y015601D03*
X005973Y016601D03*
X008973Y016601D03*
X009973Y013601D03*
X009973Y012601D03*
X010973Y011101D03*
X008473Y009101D03*
X006473Y009101D03*
X004973Y012601D03*
X014973Y011101D03*
X014973Y010101D03*
X017473Y015101D03*
X010473Y004101D03*
X008473Y004101D03*
X006473Y004101D03*
D22*
X006473Y009101D01*
X006473Y010101D01*
X008973Y010101D01*
X009973Y011101D01*
X009973Y012601D01*
X010083Y013038D02*
X009728Y013038D01*
X009640Y013001D01*
X009572Y012934D01*
X009567Y012922D01*
X009483Y013007D01*
X009307Y013079D01*
X008639Y013079D01*
X008463Y013007D01*
X008328Y012872D01*
X008255Y012696D01*
X008255Y012506D01*
X008328Y012330D01*
X008463Y012195D01*
X008639Y012122D01*
X009307Y012122D01*
X009483Y012195D01*
X009567Y012280D01*
X009572Y012268D01*
X009640Y012200D01*
X009653Y012195D01*
X009653Y011786D01*
X009617Y011872D01*
X009483Y012007D01*
X009307Y012079D01*
X008639Y012079D01*
X008463Y012007D01*
X008328Y011872D01*
X008255Y011696D01*
X008255Y011506D01*
X008328Y011330D01*
X008463Y011195D01*
X008639Y011122D01*
X009307Y011122D01*
X009483Y011195D01*
X009617Y011330D01*
X009653Y011415D01*
X009653Y011233D01*
X008840Y010421D01*
X006409Y010421D01*
X006291Y010372D01*
X006201Y010282D01*
X006153Y010164D01*
X006153Y010037D01*
X006153Y009506D01*
X006140Y009501D01*
X006072Y009434D01*
X006036Y009345D01*
X006036Y008856D01*
X006072Y008768D01*
X006140Y008700D01*
X006153Y008695D01*
X006153Y004506D01*
X006140Y004501D01*
X006072Y004434D01*
X006036Y004345D01*
X006036Y003856D01*
X006072Y003768D01*
X006140Y003700D01*
X006228Y003664D01*
X006717Y003664D01*
X006805Y003700D01*
X006873Y003768D01*
X006909Y003856D01*
X006909Y004345D01*
X006873Y004434D01*
X006805Y004501D01*
X006793Y004506D01*
X006793Y008695D01*
X006805Y008700D01*
X006873Y008768D01*
X006909Y008856D01*
X006909Y009345D01*
X006873Y009434D01*
X006805Y009501D01*
X006793Y009506D01*
X006793Y009781D01*
X007287Y009781D01*
X007201Y009745D01*
X007067Y009611D01*
X006994Y009435D01*
X006994Y008767D01*
X007067Y008591D01*
X007201Y008456D01*
X007377Y008383D01*
X007568Y008383D01*
X007744Y008456D01*
X007878Y008591D01*
X007951Y008767D01*
X007951Y009435D01*
X007878Y009611D01*
X007744Y009745D01*
X007658Y009781D01*
X008700Y009781D01*
X008457Y009538D01*
X008228Y009538D01*
X008140Y009501D01*
X008072Y009434D01*
X008036Y009345D01*
X008036Y008856D01*
X008072Y008768D01*
X008140Y008700D01*
X008153Y008695D01*
X008153Y004506D01*
X008140Y004501D01*
X008072Y004434D01*
X008036Y004345D01*
X008036Y003856D01*
X008072Y003768D01*
X008140Y003700D01*
X008228Y003664D01*
X008717Y003664D01*
X008805Y003700D01*
X008873Y003768D01*
X008909Y003856D01*
X008909Y004345D01*
X008873Y004434D01*
X008805Y004501D01*
X008793Y004506D01*
X008793Y008695D01*
X008805Y008700D01*
X008873Y008768D01*
X008909Y008856D01*
X008909Y009085D01*
X008994Y009170D01*
X008994Y008767D01*
X009067Y008591D01*
X009201Y008456D01*
X009377Y008383D01*
X009568Y008383D01*
X009744Y008456D01*
X009878Y008591D01*
X009951Y008767D01*
X009951Y009435D01*
X009878Y009611D01*
X009744Y009745D01*
X009621Y009796D01*
X010582Y010758D01*
X010640Y010700D01*
X010728Y010664D01*
X011217Y010664D01*
X011305Y010700D01*
X011373Y010768D01*
X011378Y010781D01*
X014567Y010781D01*
X014572Y010768D01*
X014640Y010700D01*
X014728Y010664D01*
X015217Y010664D01*
X015305Y010700D01*
X015373Y010768D01*
X015409Y010856D01*
X015409Y011345D01*
X015373Y011434D01*
X015305Y011501D01*
X015217Y011538D01*
X014728Y011538D01*
X014640Y011501D01*
X014572Y011434D01*
X014567Y011421D01*
X011378Y011421D01*
X011373Y011434D01*
X011305Y011501D01*
X011293Y011506D01*
X011293Y011622D01*
X011671Y011622D01*
X011951Y011902D01*
X011951Y012299D01*
X011671Y012579D01*
X011293Y012579D01*
X011293Y013122D01*
X011671Y013122D01*
X011951Y013402D01*
X011951Y013799D01*
X011671Y014079D01*
X011274Y014079D01*
X011110Y013916D01*
X009154Y015872D01*
X009036Y015921D01*
X008909Y015921D01*
X005390Y015921D01*
X005385Y015934D01*
X005317Y016001D01*
X005229Y016038D01*
X004740Y016038D01*
X004652Y016001D01*
X004584Y015934D01*
X004548Y015845D01*
X004548Y015356D01*
X004584Y015268D01*
X004652Y015200D01*
X004740Y015164D01*
X005229Y015164D01*
X005317Y015200D01*
X005385Y015268D01*
X005390Y015281D01*
X008840Y015281D01*
X009041Y015079D01*
X008639Y015079D01*
X008463Y015007D01*
X008328Y014872D01*
X008255Y014696D01*
X008255Y014506D01*
X008328Y014330D01*
X008463Y014195D01*
X008639Y014122D01*
X009307Y014122D01*
X009483Y014195D01*
X009617Y014330D01*
X009668Y014453D01*
X010083Y014038D01*
X009728Y014038D01*
X009640Y014001D01*
X009572Y013934D01*
X009567Y013922D01*
X009483Y014007D01*
X009307Y014079D01*
X008639Y014079D01*
X008463Y014007D01*
X008328Y013872D01*
X008255Y013696D01*
X008255Y013506D01*
X008328Y013330D01*
X008463Y013195D01*
X008639Y013122D01*
X009307Y013122D01*
X009483Y013195D01*
X009567Y013280D01*
X009572Y013268D01*
X009640Y013200D01*
X009728Y013164D01*
X009957Y013164D01*
X010083Y013038D01*
X010019Y013101D02*
X005293Y013101D01*
X005293Y013006D02*
X005293Y013415D01*
X005328Y013330D01*
X005463Y013195D01*
X005639Y013122D01*
X006307Y013122D01*
X006483Y013195D01*
X006617Y013330D01*
X006690Y013506D01*
X006690Y013696D01*
X006617Y013872D01*
X006483Y014007D01*
X006307Y014079D01*
X005639Y014079D01*
X005463Y014007D01*
X005328Y013872D01*
X005293Y013786D01*
X005293Y014195D01*
X005305Y014200D01*
X005373Y014268D01*
X005378Y014280D01*
X005463Y014195D01*
X005639Y014122D01*
X006307Y014122D01*
X006483Y014195D01*
X006617Y014330D01*
X006690Y014506D01*
X006690Y014696D01*
X006617Y014872D01*
X006483Y015007D01*
X006307Y015079D01*
X005639Y015079D01*
X005463Y015007D01*
X005378Y014922D01*
X005373Y014934D01*
X005305Y015001D01*
X005217Y015038D01*
X004728Y015038D01*
X004640Y015001D01*
X004572Y014934D01*
X004536Y014845D01*
X003933Y014845D01*
X003971Y014807D02*
X003679Y015099D01*
X003266Y015099D01*
X002974Y014807D01*
X002974Y014394D01*
X003266Y014102D01*
X003679Y014102D01*
X003971Y014394D01*
X003971Y014807D01*
X003971Y014687D02*
X004536Y014687D01*
X004536Y014845D02*
X004536Y014356D01*
X004572Y014268D01*
X004640Y014200D01*
X004653Y014195D01*
X004653Y013006D01*
X004640Y013001D01*
X004572Y012934D01*
X004536Y012845D01*
X004536Y012356D01*
X004572Y012268D01*
X004640Y012200D01*
X004728Y012164D01*
X005217Y012164D01*
X005305Y012200D01*
X005373Y012268D01*
X005378Y012280D01*
X005463Y012195D01*
X005639Y012122D01*
X006307Y012122D01*
X006483Y012195D01*
X006617Y012330D01*
X006690Y012506D01*
X006690Y012696D01*
X006617Y012872D01*
X006483Y013007D01*
X006307Y013079D01*
X005639Y013079D01*
X005463Y013007D01*
X005378Y012922D01*
X005373Y012934D01*
X005305Y013001D01*
X005293Y013006D01*
X005364Y012943D02*
X005399Y012943D01*
X005398Y013260D02*
X005293Y013260D01*
X004653Y013260D02*
X003837Y013260D01*
X003971Y013394D02*
X003679Y013102D01*
X003266Y013102D01*
X002974Y013394D01*
X002974Y013807D01*
X003266Y014099D01*
X003679Y014099D01*
X003971Y013807D01*
X003971Y013394D01*
X003971Y013418D02*
X004653Y013418D01*
X004653Y013577D02*
X003971Y013577D01*
X003971Y013736D02*
X004653Y013736D01*
X004653Y013894D02*
X003885Y013894D01*
X003726Y014053D02*
X004653Y014053D01*
X004629Y014211D02*
X003788Y014211D01*
X003947Y014370D02*
X004536Y014370D01*
X004536Y014528D02*
X003971Y014528D01*
X003775Y015004D02*
X004647Y015004D01*
X004562Y015321D02*
X003898Y015321D01*
X003971Y015394D02*
X003679Y015102D01*
X003266Y015102D01*
X002974Y015394D01*
X002974Y015807D01*
X003266Y016099D01*
X003679Y016099D01*
X003971Y015807D01*
X003971Y015394D01*
X003971Y015479D02*
X004548Y015479D01*
X004548Y015638D02*
X003971Y015638D01*
X003971Y015797D02*
X004548Y015797D01*
X004606Y015955D02*
X003824Y015955D01*
X003122Y015955D02*
X002824Y015955D01*
X002679Y016099D02*
X002971Y015807D01*
X002971Y015394D01*
X002679Y015102D01*
X002266Y015102D01*
X001974Y015394D01*
X001974Y015650D01*
X001793Y015468D01*
X001793Y015006D01*
X001805Y015001D01*
X001873Y014934D01*
X001909Y014845D01*
X002012Y014845D01*
X001974Y014807D02*
X001974Y014394D01*
X002266Y014102D01*
X002679Y014102D01*
X002971Y014394D01*
X002971Y014807D01*
X002679Y015099D01*
X002266Y015099D01*
X001974Y014807D01*
X001909Y014845D02*
X001909Y014356D01*
X001873Y014268D01*
X001805Y014200D01*
X001717Y014164D01*
X001228Y014164D01*
X001140Y014200D01*
X001072Y014268D01*
X001036Y014356D01*
X001036Y014845D01*
X000717Y014845D01*
X000559Y014687D02*
X001036Y014687D01*
X001036Y014845D02*
X001072Y014934D01*
X001140Y015001D01*
X001153Y015006D01*
X001153Y015281D01*
X000473Y014601D01*
X000473Y004101D01*
X003473Y004101D01*
X004473Y003101D01*
X004473Y000483D01*
X017973Y000483D01*
X020973Y003601D01*
X020973Y008758D01*
X018591Y008758D01*
X017748Y009561D01*
X017748Y016034D01*
X016716Y016034D01*
X016951Y015799D01*
X016951Y015402D01*
X016671Y015122D01*
X016274Y015122D01*
X015994Y015402D01*
X015994Y015799D01*
X016229Y016034D01*
X011040Y016034D01*
X009973Y017101D01*
X002973Y017101D01*
X002793Y016921D01*
X005567Y016921D01*
X005572Y016934D01*
X005640Y017001D01*
X005728Y017038D01*
X006217Y017038D01*
X006305Y017001D01*
X006373Y016934D01*
X006378Y016921D01*
X008567Y016921D01*
X008572Y016934D01*
X008640Y017001D01*
X008728Y017038D01*
X009217Y017038D01*
X009305Y017001D01*
X009373Y016934D01*
X009409Y016845D01*
X009409Y016356D01*
X009373Y016268D01*
X009305Y016200D01*
X009217Y016164D01*
X008728Y016164D01*
X008640Y016200D01*
X008572Y016268D01*
X008567Y016281D01*
X006378Y016281D01*
X006373Y016268D01*
X006305Y016200D01*
X006217Y016164D01*
X005728Y016164D01*
X005640Y016200D01*
X005572Y016268D01*
X005567Y016281D01*
X002605Y016281D01*
X002424Y016099D01*
X002679Y016099D01*
X002597Y016272D02*
X005571Y016272D01*
X005363Y015955D02*
X016150Y015955D01*
X015994Y015797D02*
X009229Y015797D01*
X009388Y015638D02*
X015994Y015638D01*
X015994Y015479D02*
X015771Y015479D01*
X015671Y015579D02*
X015951Y015299D01*
X015951Y014902D01*
X015671Y014622D01*
X015274Y014622D01*
X014994Y014902D01*
X014994Y015299D01*
X015274Y015579D01*
X015671Y015579D01*
X015929Y015321D02*
X016075Y015321D01*
X015951Y015162D02*
X016234Y015162D01*
X015951Y015004D02*
X017748Y015004D01*
X017748Y015162D02*
X016711Y015162D01*
X016870Y015321D02*
X017748Y015321D01*
X017748Y015479D02*
X016951Y015479D01*
X016951Y015638D02*
X017748Y015638D01*
X017748Y015797D02*
X016951Y015797D01*
X016795Y015955D02*
X017748Y015955D01*
X017748Y014845D02*
X015894Y014845D01*
X015736Y014687D02*
X017748Y014687D01*
X017748Y014528D02*
X010498Y014528D01*
X010656Y014370D02*
X017748Y014370D01*
X017748Y014211D02*
X010815Y014211D01*
X010973Y014053D02*
X011247Y014053D01*
X011698Y014053D02*
X015247Y014053D01*
X015274Y014079D02*
X014994Y013799D01*
X014994Y013402D01*
X015274Y013122D01*
X015671Y013122D01*
X015951Y013402D01*
X015951Y013799D01*
X015671Y014079D01*
X015274Y014079D01*
X015089Y013894D02*
X011856Y013894D01*
X011951Y013736D02*
X014994Y013736D01*
X014994Y013577D02*
X011951Y013577D01*
X011951Y013418D02*
X014994Y013418D01*
X015136Y013260D02*
X011809Y013260D01*
X011293Y013101D02*
X017748Y013101D01*
X017748Y012943D02*
X011293Y012943D01*
X011293Y012784D02*
X017748Y012784D01*
X017748Y012626D02*
X011293Y012626D01*
X011783Y012467D02*
X015162Y012467D01*
X015274Y012579D02*
X014994Y012299D01*
X014994Y011902D01*
X015274Y011622D01*
X015671Y011622D01*
X015951Y011902D01*
X015951Y012299D01*
X015671Y012579D01*
X015274Y012579D01*
X015003Y012309D02*
X011942Y012309D01*
X011951Y012150D02*
X014994Y012150D01*
X014994Y011992D02*
X011951Y011992D01*
X011882Y011833D02*
X015063Y011833D01*
X015222Y011674D02*
X011723Y011674D01*
X011293Y011516D02*
X014676Y011516D01*
X015270Y011516D02*
X017748Y011516D01*
X017748Y011674D02*
X017223Y011674D01*
X017171Y011622D02*
X017451Y011902D01*
X017451Y012299D01*
X017171Y012579D01*
X016774Y012579D01*
X016494Y012299D01*
X016494Y011902D01*
X016774Y011622D01*
X017171Y011622D01*
X017382Y011833D02*
X017748Y011833D01*
X017748Y011992D02*
X017451Y011992D01*
X017451Y012150D02*
X017748Y012150D01*
X017748Y012309D02*
X017442Y012309D01*
X017283Y012467D02*
X017748Y012467D01*
X017748Y013260D02*
X016809Y013260D01*
X016671Y013122D02*
X016951Y013402D01*
X016951Y013799D01*
X016671Y014079D01*
X016274Y014079D01*
X015994Y013799D01*
X015994Y013402D01*
X016274Y013122D01*
X016671Y013122D01*
X016951Y013418D02*
X017748Y013418D01*
X017748Y013577D02*
X016951Y013577D01*
X016951Y013736D02*
X017748Y013736D01*
X017748Y013894D02*
X016856Y013894D01*
X016698Y014053D02*
X017748Y014053D01*
X016247Y014053D02*
X015698Y014053D01*
X015856Y013894D02*
X016089Y013894D01*
X015994Y013736D02*
X015951Y013736D01*
X015951Y013577D02*
X015994Y013577D01*
X015994Y013418D02*
X015951Y013418D01*
X015809Y013260D02*
X016136Y013260D01*
X015783Y012467D02*
X016662Y012467D01*
X016503Y012309D02*
X015942Y012309D01*
X015951Y012150D02*
X016494Y012150D01*
X016494Y011992D02*
X015951Y011992D01*
X015882Y011833D02*
X016563Y011833D01*
X016722Y011674D02*
X015723Y011674D01*
X015404Y011357D02*
X017748Y011357D01*
X017748Y011199D02*
X015409Y011199D01*
X015409Y011040D02*
X017748Y011040D01*
X017748Y010882D02*
X015409Y010882D01*
X015328Y010723D02*
X017748Y010723D01*
X017748Y010565D02*
X017186Y010565D01*
X017171Y010579D02*
X016774Y010579D01*
X016494Y010299D01*
X016494Y009902D01*
X016774Y009622D01*
X017171Y009622D01*
X017451Y009902D01*
X017451Y010299D01*
X017171Y010579D01*
X017344Y010406D02*
X017748Y010406D01*
X017748Y010248D02*
X017451Y010248D01*
X017451Y010089D02*
X017748Y010089D01*
X017748Y009930D02*
X017451Y009930D01*
X017321Y009772D02*
X017748Y009772D01*
X017748Y009613D02*
X016376Y009613D01*
X016378Y009611D02*
X016244Y009745D01*
X016068Y009818D01*
X015877Y009818D01*
X015701Y009745D01*
X015567Y009611D01*
X015494Y009435D01*
X015494Y008767D01*
X015567Y008591D01*
X015701Y008456D01*
X015877Y008383D01*
X016068Y008383D01*
X016244Y008456D01*
X016378Y008591D01*
X016451Y008767D01*
X016451Y009435D01*
X016378Y009611D01*
X016443Y009455D02*
X017860Y009455D01*
X018026Y009296D02*
X016451Y009296D01*
X016451Y009138D02*
X018193Y009138D01*
X018359Y008979D02*
X016451Y008979D01*
X016451Y008821D02*
X018525Y008821D01*
X018479Y008678D02*
X018289Y008599D01*
X018143Y008453D01*
X018064Y008263D01*
X018064Y007499D01*
X018143Y007308D01*
X018289Y007162D01*
X018479Y007083D01*
X018686Y007083D01*
X018876Y007162D01*
X019022Y007308D01*
X019101Y007499D01*
X019101Y008263D01*
X019022Y008453D01*
X018876Y008599D01*
X018686Y008678D01*
X018479Y008678D01*
X018441Y008662D02*
X016408Y008662D01*
X016291Y008504D02*
X018193Y008504D01*
X018098Y008345D02*
X015293Y008345D01*
X015293Y008186D02*
X018064Y008186D01*
X018064Y008028D02*
X015293Y008028D01*
X015293Y007869D02*
X018064Y007869D01*
X018064Y007711D02*
X015293Y007711D01*
X015293Y007552D02*
X018064Y007552D01*
X018107Y007394D02*
X015293Y007394D01*
X015293Y007235D02*
X018216Y007235D01*
X018949Y007235D02*
X019996Y007235D01*
X020069Y007162D02*
X020259Y007083D01*
X020466Y007083D01*
X020656Y007162D01*
X020802Y007308D01*
X020881Y007499D01*
X020881Y008263D01*
X020802Y008453D01*
X020656Y008599D01*
X020466Y008678D01*
X020259Y008678D01*
X020069Y008599D01*
X019923Y008453D01*
X019844Y008263D01*
X019844Y007499D01*
X019923Y007308D01*
X020069Y007162D01*
X019887Y007394D02*
X019058Y007394D01*
X019101Y007552D02*
X019844Y007552D01*
X019844Y007711D02*
X019101Y007711D01*
X019101Y007869D02*
X019844Y007869D01*
X019844Y008028D02*
X019101Y008028D01*
X019101Y008186D02*
X019844Y008186D01*
X019878Y008345D02*
X019067Y008345D01*
X018972Y008504D02*
X019973Y008504D01*
X020221Y008662D02*
X018725Y008662D01*
X020505Y008662D02*
X020973Y008662D01*
X020973Y008504D02*
X020752Y008504D01*
X020847Y008345D02*
X020973Y008345D01*
X020973Y008186D02*
X020881Y008186D01*
X020881Y008028D02*
X020973Y008028D01*
X020973Y007869D02*
X020881Y007869D01*
X020881Y007711D02*
X020973Y007711D01*
X020973Y007552D02*
X020881Y007552D01*
X020838Y007394D02*
X020973Y007394D01*
X020973Y007235D02*
X020729Y007235D01*
X020973Y007077D02*
X015293Y007077D01*
X015293Y006918D02*
X020973Y006918D01*
X020973Y006760D02*
X015293Y006760D01*
X015293Y006601D02*
X020973Y006601D01*
X020973Y006443D02*
X015293Y006443D01*
X015293Y006284D02*
X020973Y006284D01*
X020973Y006125D02*
X015293Y006125D01*
X015293Y005967D02*
X018216Y005967D01*
X018289Y006039D02*
X018143Y005893D01*
X018064Y005703D01*
X018064Y004939D01*
X018143Y004748D01*
X018289Y004602D01*
X018479Y004523D01*
X018686Y004523D01*
X018876Y004602D01*
X019022Y004748D01*
X019101Y004939D01*
X019101Y005703D01*
X019022Y005893D01*
X018876Y006039D01*
X018686Y006118D01*
X018479Y006118D01*
X018289Y006039D01*
X018108Y005808D02*
X016092Y005808D01*
X016068Y005818D02*
X015877Y005818D01*
X015701Y005745D01*
X015567Y005611D01*
X015494Y005435D01*
X015494Y004767D01*
X015567Y004591D01*
X015701Y004456D01*
X015877Y004383D01*
X016068Y004383D01*
X016244Y004456D01*
X016378Y004591D01*
X016451Y004767D01*
X016451Y005435D01*
X016378Y005611D01*
X016244Y005745D01*
X016068Y005818D01*
X015853Y005808D02*
X015293Y005808D01*
X015293Y005650D02*
X015606Y005650D01*
X015517Y005491D02*
X015293Y005491D01*
X015293Y005333D02*
X015494Y005333D01*
X015494Y005174D02*
X015293Y005174D01*
X015293Y005164D02*
X015293Y009695D01*
X015305Y009700D01*
X015373Y009768D01*
X015409Y009856D01*
X015409Y010345D01*
X015373Y010434D01*
X015305Y010501D01*
X015217Y010538D01*
X014728Y010538D01*
X014640Y010501D01*
X014572Y010434D01*
X014536Y010345D01*
X014536Y009856D01*
X014572Y009768D01*
X014640Y009700D01*
X014653Y009695D01*
X014653Y005233D01*
X014451Y005032D01*
X014451Y005435D01*
X014378Y005611D01*
X014244Y005745D01*
X014068Y005818D01*
X013877Y005818D01*
X013701Y005745D01*
X013567Y005611D01*
X013494Y005435D01*
X013494Y004767D01*
X013567Y004591D01*
X013701Y004456D01*
X013787Y004421D01*
X012658Y004421D01*
X012744Y004456D01*
X012878Y004591D01*
X012951Y004767D01*
X012951Y005435D01*
X012878Y005611D01*
X012744Y005745D01*
X012568Y005818D01*
X012377Y005818D01*
X012201Y005745D01*
X012067Y005611D01*
X011994Y005435D01*
X011994Y004767D01*
X012067Y004591D01*
X012201Y004456D01*
X012287Y004421D01*
X011158Y004421D01*
X011244Y004456D01*
X011378Y004591D01*
X011451Y004767D01*
X011451Y005435D01*
X011378Y005611D01*
X011244Y005745D01*
X011068Y005818D01*
X010877Y005818D01*
X010701Y005745D01*
X010567Y005611D01*
X010494Y005435D01*
X010494Y004767D01*
X010567Y004591D01*
X010620Y004538D01*
X010228Y004538D01*
X010140Y004501D01*
X010072Y004434D01*
X010036Y004345D01*
X010036Y003856D01*
X010072Y003768D01*
X010140Y003700D01*
X010228Y003664D01*
X010717Y003664D01*
X010805Y003700D01*
X010873Y003768D01*
X010878Y003781D01*
X014036Y003781D01*
X014154Y003829D01*
X014244Y003919D01*
X015244Y004919D01*
X015293Y005037D01*
X015293Y005164D01*
X015284Y005016D02*
X015494Y005016D01*
X015494Y004857D02*
X015181Y004857D01*
X015023Y004699D02*
X015522Y004699D01*
X015618Y004540D02*
X014864Y004540D01*
X014706Y004381D02*
X020973Y004381D01*
X020973Y004223D02*
X014547Y004223D01*
X014389Y004064D02*
X020973Y004064D01*
X020973Y003906D02*
X014230Y003906D01*
X013973Y004101D02*
X010473Y004101D01*
X010036Y004064D02*
X008909Y004064D01*
X008909Y003906D02*
X010036Y003906D01*
X010093Y003747D02*
X008852Y003747D01*
X008909Y004223D02*
X010036Y004223D01*
X010051Y004381D02*
X008894Y004381D01*
X008793Y004540D02*
X009118Y004540D01*
X009067Y004591D02*
X009201Y004456D01*
X009377Y004383D01*
X009568Y004383D01*
X009744Y004456D01*
X009878Y004591D01*
X009951Y004767D01*
X009951Y005435D01*
X009878Y005611D01*
X009744Y005745D01*
X009568Y005818D01*
X009377Y005818D01*
X009201Y005745D01*
X009067Y005611D01*
X008994Y005435D01*
X008994Y004767D01*
X009067Y004591D01*
X009022Y004699D02*
X008793Y004699D01*
X008793Y004857D02*
X008994Y004857D01*
X008994Y005016D02*
X008793Y005016D01*
X008793Y005174D02*
X008994Y005174D01*
X008994Y005333D02*
X008793Y005333D01*
X008793Y005491D02*
X009017Y005491D01*
X009106Y005650D02*
X008793Y005650D01*
X008793Y005808D02*
X009353Y005808D01*
X009592Y005808D02*
X010853Y005808D01*
X011092Y005808D02*
X012353Y005808D01*
X012592Y005808D02*
X013853Y005808D01*
X014092Y005808D02*
X014653Y005808D01*
X014653Y005650D02*
X014339Y005650D01*
X014428Y005491D02*
X014653Y005491D01*
X014653Y005333D02*
X014451Y005333D01*
X014451Y005174D02*
X014593Y005174D01*
X014973Y005101D02*
X013973Y004101D01*
X013618Y004540D02*
X012828Y004540D01*
X012923Y004699D02*
X013522Y004699D01*
X013494Y004857D02*
X012951Y004857D01*
X012951Y005016D02*
X013494Y005016D01*
X013494Y005174D02*
X012951Y005174D01*
X012951Y005333D02*
X013494Y005333D01*
X013517Y005491D02*
X012928Y005491D01*
X012839Y005650D02*
X013606Y005650D01*
X014653Y005967D02*
X008793Y005967D01*
X008793Y006125D02*
X014653Y006125D01*
X014653Y006284D02*
X008793Y006284D01*
X008793Y006443D02*
X014653Y006443D01*
X014653Y006601D02*
X008793Y006601D01*
X008793Y006760D02*
X014653Y006760D01*
X014653Y006918D02*
X008793Y006918D01*
X008793Y007077D02*
X014653Y007077D01*
X014653Y007235D02*
X008793Y007235D01*
X008793Y007394D02*
X014653Y007394D01*
X014653Y007552D02*
X008793Y007552D01*
X008793Y007711D02*
X014653Y007711D01*
X014653Y007869D02*
X008793Y007869D01*
X008793Y008028D02*
X014653Y008028D01*
X014653Y008186D02*
X008793Y008186D01*
X008793Y008345D02*
X014653Y008345D01*
X014653Y008504D02*
X014291Y008504D01*
X014244Y008456D02*
X014378Y008591D01*
X014451Y008767D01*
X014451Y009435D01*
X014378Y009611D01*
X014244Y009745D01*
X014068Y009818D01*
X013877Y009818D01*
X013701Y009745D01*
X013567Y009611D01*
X013494Y009435D01*
X013494Y008767D01*
X013567Y008591D01*
X013701Y008456D01*
X013877Y008383D01*
X014068Y008383D01*
X014244Y008456D01*
X014408Y008662D02*
X014653Y008662D01*
X014653Y008821D02*
X014451Y008821D01*
X014451Y008979D02*
X014653Y008979D01*
X014653Y009138D02*
X014451Y009138D01*
X014451Y009296D02*
X014653Y009296D01*
X014653Y009455D02*
X014443Y009455D01*
X014376Y009613D02*
X014653Y009613D01*
X014571Y009772D02*
X014180Y009772D01*
X014536Y009930D02*
X009755Y009930D01*
X009680Y009772D02*
X010766Y009772D01*
X010701Y009745D02*
X010567Y009611D01*
X010494Y009435D01*
X010494Y008767D01*
X010567Y008591D01*
X010701Y008456D01*
X010877Y008383D01*
X011068Y008383D01*
X011244Y008456D01*
X011378Y008591D01*
X011451Y008767D01*
X011451Y009435D01*
X011378Y009611D01*
X011244Y009745D01*
X011068Y009818D01*
X010877Y009818D01*
X010701Y009745D01*
X010569Y009613D02*
X009876Y009613D01*
X009943Y009455D02*
X010502Y009455D01*
X010494Y009296D02*
X009951Y009296D01*
X009951Y009138D02*
X010494Y009138D01*
X010494Y008979D02*
X009951Y008979D01*
X009951Y008821D02*
X010494Y008821D01*
X010537Y008662D02*
X009908Y008662D01*
X009791Y008504D02*
X010654Y008504D01*
X011291Y008504D02*
X012154Y008504D01*
X012201Y008456D02*
X012377Y008383D01*
X012568Y008383D01*
X012744Y008456D01*
X012878Y008591D01*
X012951Y008767D01*
X012951Y009435D01*
X012878Y009611D01*
X012744Y009745D01*
X012568Y009818D01*
X012377Y009818D01*
X012201Y009745D01*
X012067Y009611D01*
X011994Y009435D01*
X011994Y008767D01*
X012067Y008591D01*
X012201Y008456D01*
X012037Y008662D02*
X011408Y008662D01*
X011451Y008821D02*
X011994Y008821D01*
X011994Y008979D02*
X011451Y008979D01*
X011451Y009138D02*
X011994Y009138D01*
X011994Y009296D02*
X011451Y009296D01*
X011443Y009455D02*
X012002Y009455D01*
X012069Y009613D02*
X011376Y009613D01*
X011180Y009772D02*
X012266Y009772D01*
X012680Y009772D02*
X013766Y009772D01*
X013569Y009613D02*
X012876Y009613D01*
X012943Y009455D02*
X013502Y009455D01*
X013494Y009296D02*
X012951Y009296D01*
X012951Y009138D02*
X013494Y009138D01*
X013494Y008979D02*
X012951Y008979D01*
X012951Y008821D02*
X013494Y008821D01*
X013537Y008662D02*
X012908Y008662D01*
X012791Y008504D02*
X013654Y008504D01*
X015293Y008504D02*
X015654Y008504D01*
X015537Y008662D02*
X015293Y008662D01*
X015293Y008821D02*
X015494Y008821D01*
X015494Y008979D02*
X015293Y008979D01*
X015293Y009138D02*
X015494Y009138D01*
X015494Y009296D02*
X015293Y009296D01*
X015293Y009455D02*
X015502Y009455D01*
X015569Y009613D02*
X015293Y009613D01*
X015374Y009772D02*
X015766Y009772D01*
X016180Y009772D02*
X016624Y009772D01*
X016494Y009930D02*
X015409Y009930D01*
X015409Y010089D02*
X016494Y010089D01*
X016494Y010248D02*
X015409Y010248D01*
X015384Y010406D02*
X016601Y010406D01*
X016759Y010565D02*
X010389Y010565D01*
X010548Y010723D02*
X010617Y010723D01*
X010473Y011101D02*
X010473Y013101D01*
X009973Y013601D01*
X009580Y013260D02*
X009547Y013260D01*
X009546Y012943D02*
X009581Y012943D01*
X008399Y012943D02*
X006546Y012943D01*
X006654Y012784D02*
X008292Y012784D01*
X008255Y012626D02*
X006690Y012626D01*
X006674Y012467D02*
X008271Y012467D01*
X008349Y012309D02*
X006596Y012309D01*
X006374Y012150D02*
X008571Y012150D01*
X008448Y011992D02*
X006284Y011992D01*
X006250Y011998D02*
X005973Y011998D01*
X005973Y011601D01*
X006609Y011601D01*
X006609Y011640D01*
X006594Y011717D01*
X006564Y011789D01*
X006520Y011854D01*
X006465Y011909D01*
X006400Y011953D01*
X006327Y011983D01*
X006250Y011998D01*
X005973Y011992D02*
X005972Y011992D01*
X005972Y011998D02*
X005695Y011998D01*
X005618Y011983D01*
X005546Y011953D01*
X005480Y011909D01*
X005425Y011854D01*
X005382Y011789D01*
X005352Y011717D01*
X005336Y011640D01*
X005336Y011601D01*
X005972Y011601D01*
X005972Y011601D01*
X005972Y011998D01*
X005972Y011833D02*
X005973Y011833D01*
X005972Y011674D02*
X005973Y011674D01*
X005973Y011601D02*
X005972Y011601D01*
X005336Y011601D01*
X005336Y011562D01*
X005352Y011485D01*
X005382Y011412D01*
X005425Y011347D01*
X005480Y011292D01*
X005546Y011249D01*
X005618Y011219D01*
X005695Y011203D01*
X005972Y011203D01*
X005972Y011600D01*
X005973Y011600D01*
X005973Y011203D01*
X006250Y011203D01*
X006327Y011219D01*
X006400Y011249D01*
X006465Y011292D01*
X006520Y011347D01*
X006564Y011412D01*
X006594Y011485D01*
X006609Y011562D01*
X006609Y011601D01*
X005973Y011601D01*
X005973Y011601D01*
X005972Y011516D02*
X005973Y011516D01*
X005972Y011357D02*
X005973Y011357D01*
X006527Y011357D02*
X008316Y011357D01*
X008255Y011516D02*
X006600Y011516D01*
X006602Y011674D02*
X008255Y011674D01*
X008312Y011833D02*
X006534Y011833D01*
X005661Y011992D02*
X002601Y011992D01*
X002553Y012040D02*
X002156Y012040D01*
X001876Y011760D01*
X001876Y011363D01*
X002156Y011083D01*
X002553Y011083D01*
X002833Y011363D01*
X002833Y011760D01*
X002553Y012040D01*
X002760Y011833D02*
X005411Y011833D01*
X005343Y011674D02*
X002833Y011674D01*
X002833Y011516D02*
X005345Y011516D01*
X005418Y011357D02*
X002827Y011357D01*
X002669Y011199D02*
X008459Y011199D01*
X009142Y010723D02*
X000473Y010723D01*
X000473Y010565D02*
X008984Y010565D01*
X009301Y010882D02*
X000473Y010882D01*
X000473Y011040D02*
X009460Y011040D01*
X009486Y011199D02*
X009618Y011199D01*
X009629Y011357D02*
X009653Y011357D01*
X009633Y011833D02*
X009653Y011833D01*
X009653Y011992D02*
X009498Y011992D01*
X009374Y012150D02*
X009653Y012150D01*
X010473Y011101D02*
X008473Y009101D01*
X008473Y004101D01*
X008036Y004064D02*
X006909Y004064D01*
X006909Y003906D02*
X008036Y003906D01*
X008093Y003747D02*
X006852Y003747D01*
X006909Y004223D02*
X008036Y004223D01*
X008051Y004381D02*
X006894Y004381D01*
X006793Y004540D02*
X007118Y004540D01*
X007067Y004591D02*
X007201Y004456D01*
X007377Y004383D01*
X007568Y004383D01*
X007744Y004456D01*
X007878Y004591D01*
X007951Y004767D01*
X007951Y005435D01*
X007878Y005611D01*
X007744Y005745D01*
X007568Y005818D01*
X007377Y005818D01*
X007201Y005745D01*
X007067Y005611D01*
X006994Y005435D01*
X006994Y004767D01*
X007067Y004591D01*
X007022Y004699D02*
X006793Y004699D01*
X006793Y004857D02*
X006994Y004857D01*
X006994Y005016D02*
X006793Y005016D01*
X006793Y005174D02*
X006994Y005174D01*
X006994Y005333D02*
X006793Y005333D01*
X006793Y005491D02*
X007017Y005491D01*
X007106Y005650D02*
X006793Y005650D01*
X006793Y005808D02*
X007353Y005808D01*
X007592Y005808D02*
X008153Y005808D01*
X008153Y005650D02*
X007839Y005650D01*
X007928Y005491D02*
X008153Y005491D01*
X008153Y005333D02*
X007951Y005333D01*
X007951Y005174D02*
X008153Y005174D01*
X008153Y005016D02*
X007951Y005016D01*
X007951Y004857D02*
X008153Y004857D01*
X008153Y004699D02*
X007923Y004699D01*
X007828Y004540D02*
X008153Y004540D01*
X009828Y004540D02*
X010618Y004540D01*
X010522Y004699D02*
X009923Y004699D01*
X009951Y004857D02*
X010494Y004857D01*
X010494Y005016D02*
X009951Y005016D01*
X009951Y005174D02*
X010494Y005174D01*
X010494Y005333D02*
X009951Y005333D01*
X009928Y005491D02*
X010517Y005491D01*
X010606Y005650D02*
X009839Y005650D01*
X008153Y005967D02*
X006793Y005967D01*
X006793Y006125D02*
X008153Y006125D01*
X008153Y006284D02*
X006793Y006284D01*
X006793Y006443D02*
X008153Y006443D01*
X008153Y006601D02*
X006793Y006601D01*
X006793Y006760D02*
X008153Y006760D01*
X008153Y006918D02*
X006793Y006918D01*
X006793Y007077D02*
X008153Y007077D01*
X008153Y007235D02*
X006793Y007235D01*
X006793Y007394D02*
X008153Y007394D01*
X008153Y007552D02*
X006793Y007552D01*
X006793Y007711D02*
X008153Y007711D01*
X008153Y007869D02*
X006793Y007869D01*
X006793Y008028D02*
X008153Y008028D01*
X008153Y008186D02*
X006793Y008186D01*
X006793Y008345D02*
X008153Y008345D01*
X008153Y008504D02*
X007791Y008504D01*
X007908Y008662D02*
X008153Y008662D01*
X008050Y008821D02*
X007951Y008821D01*
X007951Y008979D02*
X008036Y008979D01*
X008036Y009138D02*
X007951Y009138D01*
X007951Y009296D02*
X008036Y009296D01*
X008094Y009455D02*
X007943Y009455D01*
X007876Y009613D02*
X008533Y009613D01*
X008691Y009772D02*
X007680Y009772D01*
X007266Y009772D02*
X006793Y009772D01*
X006793Y009613D02*
X007069Y009613D01*
X007002Y009455D02*
X006852Y009455D01*
X006909Y009296D02*
X006994Y009296D01*
X006994Y009138D02*
X006909Y009138D01*
X006909Y008979D02*
X006994Y008979D01*
X006994Y008821D02*
X006895Y008821D01*
X006793Y008662D02*
X007037Y008662D01*
X007154Y008504D02*
X006793Y008504D01*
X006153Y008504D02*
X005791Y008504D01*
X005744Y008456D02*
X005878Y008591D01*
X005951Y008767D01*
X005951Y009435D01*
X005878Y009611D01*
X005744Y009745D01*
X005568Y009818D01*
X005377Y009818D01*
X005201Y009745D01*
X005067Y009611D01*
X004994Y009435D01*
X004994Y008767D01*
X005067Y008591D01*
X005201Y008456D01*
X005377Y008383D01*
X005568Y008383D01*
X005744Y008456D01*
X005908Y008662D02*
X006153Y008662D01*
X006050Y008821D02*
X005951Y008821D01*
X005951Y008979D02*
X006036Y008979D01*
X006036Y009138D02*
X005951Y009138D01*
X005951Y009296D02*
X006036Y009296D01*
X006094Y009455D02*
X005943Y009455D01*
X005876Y009613D02*
X006153Y009613D01*
X006153Y009772D02*
X005680Y009772D01*
X006153Y009930D02*
X000473Y009930D01*
X000473Y009772D02*
X002266Y009772D01*
X002201Y009745D02*
X002377Y009818D01*
X002568Y009818D01*
X002744Y009745D01*
X002878Y009611D01*
X002951Y009435D01*
X002951Y008767D01*
X002878Y008591D01*
X002744Y008456D01*
X002568Y008383D01*
X002377Y008383D01*
X002201Y008456D01*
X002067Y008591D01*
X001994Y008767D01*
X001994Y009435D01*
X002067Y009611D01*
X002201Y009745D01*
X002069Y009613D02*
X000473Y009613D01*
X000473Y009455D02*
X002002Y009455D01*
X001994Y009296D02*
X000473Y009296D01*
X000473Y009138D02*
X001994Y009138D01*
X001994Y008979D02*
X000473Y008979D01*
X000473Y008821D02*
X001994Y008821D01*
X002037Y008662D02*
X000473Y008662D01*
X000473Y008504D02*
X002154Y008504D01*
X002791Y008504D02*
X003654Y008504D01*
X003701Y008456D02*
X003567Y008591D01*
X003494Y008767D01*
X003494Y009435D01*
X003567Y009611D01*
X003701Y009745D01*
X003877Y009818D01*
X004068Y009818D01*
X004244Y009745D01*
X004378Y009611D01*
X004451Y009435D01*
X004451Y008767D01*
X004378Y008591D01*
X004244Y008456D01*
X004068Y008383D01*
X003877Y008383D01*
X003701Y008456D01*
X003537Y008662D02*
X002908Y008662D01*
X002951Y008821D02*
X003494Y008821D01*
X003494Y008979D02*
X002951Y008979D01*
X002951Y009138D02*
X003494Y009138D01*
X003494Y009296D02*
X002951Y009296D01*
X002943Y009455D02*
X003502Y009455D01*
X003569Y009613D02*
X002876Y009613D01*
X002680Y009772D02*
X003766Y009772D01*
X004180Y009772D02*
X005266Y009772D01*
X005069Y009613D02*
X004376Y009613D01*
X004443Y009455D02*
X005002Y009455D01*
X004994Y009296D02*
X004451Y009296D01*
X004451Y009138D02*
X004994Y009138D01*
X004994Y008979D02*
X004451Y008979D01*
X004451Y008821D02*
X004994Y008821D01*
X005037Y008662D02*
X004408Y008662D01*
X004291Y008504D02*
X005154Y008504D01*
X006153Y008345D02*
X000473Y008345D01*
X000473Y008186D02*
X006153Y008186D01*
X006153Y008028D02*
X000473Y008028D01*
X000473Y007869D02*
X006153Y007869D01*
X006153Y007711D02*
X000473Y007711D01*
X000473Y007552D02*
X006153Y007552D01*
X006153Y007394D02*
X000473Y007394D01*
X000473Y007235D02*
X006153Y007235D01*
X006153Y007077D02*
X000473Y007077D01*
X000473Y006918D02*
X006153Y006918D01*
X006153Y006760D02*
X000473Y006760D01*
X000473Y006601D02*
X006153Y006601D01*
X006153Y006443D02*
X000473Y006443D01*
X000473Y006284D02*
X006153Y006284D01*
X006153Y006125D02*
X000473Y006125D01*
X000473Y005967D02*
X006153Y005967D01*
X006153Y005808D02*
X005592Y005808D01*
X005568Y005818D02*
X005377Y005818D01*
X005201Y005745D01*
X005067Y005611D01*
X004994Y005435D01*
X004994Y004767D01*
X005067Y004591D01*
X005201Y004456D01*
X005377Y004383D01*
X005568Y004383D01*
X005744Y004456D01*
X005878Y004591D01*
X005951Y004767D01*
X005951Y005435D01*
X005878Y005611D01*
X005744Y005745D01*
X005568Y005818D01*
X005353Y005808D02*
X004092Y005808D01*
X004068Y005818D02*
X003877Y005818D01*
X003701Y005745D01*
X003567Y005611D01*
X003494Y005435D01*
X003494Y004767D01*
X003567Y004591D01*
X003701Y004456D01*
X003877Y004383D01*
X004068Y004383D01*
X004244Y004456D01*
X004378Y004591D01*
X004451Y004767D01*
X004451Y005435D01*
X004378Y005611D01*
X004244Y005745D01*
X004068Y005818D01*
X003853Y005808D02*
X002592Y005808D01*
X002568Y005818D02*
X002377Y005818D01*
X002201Y005745D01*
X002067Y005611D01*
X001994Y005435D01*
X001994Y004767D01*
X002067Y004591D01*
X002201Y004456D01*
X002377Y004383D01*
X002568Y004383D01*
X002744Y004456D01*
X002878Y004591D01*
X002951Y004767D01*
X002951Y005435D01*
X002878Y005611D01*
X002744Y005745D01*
X002568Y005818D01*
X002353Y005808D02*
X000473Y005808D01*
X000473Y005650D02*
X002106Y005650D01*
X002017Y005491D02*
X000473Y005491D01*
X000473Y005333D02*
X001994Y005333D01*
X001994Y005174D02*
X000473Y005174D01*
X000473Y005016D02*
X001994Y005016D01*
X001994Y004857D02*
X000473Y004857D01*
X000473Y004699D02*
X002022Y004699D01*
X002118Y004540D02*
X000473Y004540D01*
X000473Y004381D02*
X006051Y004381D01*
X006036Y004223D02*
X000473Y004223D01*
X002828Y004540D02*
X003618Y004540D01*
X003522Y004699D02*
X002923Y004699D01*
X002951Y004857D02*
X003494Y004857D01*
X003494Y005016D02*
X002951Y005016D01*
X002951Y005174D02*
X003494Y005174D01*
X003494Y005333D02*
X002951Y005333D01*
X002928Y005491D02*
X003517Y005491D01*
X003606Y005650D02*
X002839Y005650D01*
X004339Y005650D02*
X005106Y005650D01*
X005017Y005491D02*
X004428Y005491D01*
X004451Y005333D02*
X004994Y005333D01*
X004994Y005174D02*
X004451Y005174D01*
X004451Y005016D02*
X004994Y005016D01*
X004994Y004857D02*
X004451Y004857D01*
X004423Y004699D02*
X005022Y004699D01*
X005118Y004540D02*
X004328Y004540D01*
X003668Y003906D02*
X006036Y003906D01*
X006036Y004064D02*
X003509Y004064D01*
X003826Y003747D02*
X006093Y003747D01*
X006266Y003099D02*
X005974Y002807D01*
X005974Y002394D01*
X006266Y002102D01*
X006679Y002102D01*
X006971Y002394D01*
X006971Y002807D01*
X006679Y003099D01*
X006266Y003099D01*
X006121Y002955D02*
X005824Y002955D01*
X005679Y003099D02*
X005266Y003099D01*
X004974Y002807D01*
X004974Y002394D01*
X005266Y002102D01*
X005679Y002102D01*
X005971Y002394D01*
X005971Y002807D01*
X005679Y003099D01*
X005971Y002796D02*
X005974Y002796D01*
X005971Y002637D02*
X005974Y002637D01*
X005971Y002479D02*
X005974Y002479D01*
X006048Y002320D02*
X005897Y002320D01*
X005739Y002162D02*
X006206Y002162D01*
X006266Y002099D02*
X005974Y001807D01*
X005974Y001394D01*
X006266Y001102D01*
X006679Y001102D01*
X006971Y001394D01*
X006971Y001807D01*
X006679Y002099D01*
X006266Y002099D01*
X006170Y002003D02*
X005775Y002003D01*
X005679Y002099D02*
X005266Y002099D01*
X004974Y001807D01*
X004974Y001394D01*
X005266Y001102D01*
X005679Y001102D01*
X005971Y001394D01*
X005971Y001807D01*
X005679Y002099D01*
X005934Y001845D02*
X006011Y001845D01*
X005971Y001686D02*
X005974Y001686D01*
X005971Y001528D02*
X005974Y001528D01*
X005999Y001369D02*
X005946Y001369D01*
X005788Y001211D02*
X006157Y001211D01*
X006788Y001211D02*
X007157Y001211D01*
X007266Y001102D02*
X007679Y001102D01*
X007971Y001394D01*
X007971Y001807D01*
X007679Y002099D01*
X007266Y002099D01*
X006974Y001807D01*
X006974Y001394D01*
X007266Y001102D01*
X006999Y001369D02*
X006946Y001369D01*
X006971Y001528D02*
X006974Y001528D01*
X006971Y001686D02*
X006974Y001686D01*
X006934Y001845D02*
X007011Y001845D01*
X007170Y002003D02*
X006775Y002003D01*
X006739Y002162D02*
X007206Y002162D01*
X007266Y002102D02*
X006974Y002394D01*
X006974Y002807D01*
X007266Y003099D01*
X007679Y003099D01*
X007971Y002807D01*
X007971Y002394D01*
X007679Y002102D01*
X007266Y002102D01*
X007048Y002320D02*
X006897Y002320D01*
X006971Y002479D02*
X006974Y002479D01*
X006971Y002637D02*
X006974Y002637D01*
X006971Y002796D02*
X006974Y002796D01*
X007121Y002955D02*
X006824Y002955D01*
X007824Y002955D02*
X008121Y002955D01*
X008266Y003099D02*
X007974Y002807D01*
X007974Y002394D01*
X008266Y002102D01*
X008679Y002102D01*
X008971Y002394D01*
X008971Y002807D01*
X008679Y003099D01*
X008266Y003099D01*
X007974Y002796D02*
X007971Y002796D01*
X007971Y002637D02*
X007974Y002637D01*
X007971Y002479D02*
X007974Y002479D01*
X008048Y002320D02*
X007897Y002320D01*
X007739Y002162D02*
X008206Y002162D01*
X008266Y002099D02*
X007974Y001807D01*
X007974Y001394D01*
X008266Y001102D01*
X008679Y001102D01*
X008971Y001394D01*
X008971Y001807D01*
X008679Y002099D01*
X008266Y002099D01*
X008170Y002003D02*
X007775Y002003D01*
X007934Y001845D02*
X008011Y001845D01*
X007971Y001686D02*
X007974Y001686D01*
X007971Y001528D02*
X007974Y001528D01*
X007999Y001369D02*
X007946Y001369D01*
X007788Y001211D02*
X008157Y001211D01*
X008788Y001211D02*
X009157Y001211D01*
X009266Y001102D02*
X009679Y001102D01*
X009971Y001394D01*
X009971Y001807D01*
X009679Y002099D01*
X009266Y002099D01*
X008974Y001807D01*
X008974Y001394D01*
X009266Y001102D01*
X008999Y001369D02*
X008946Y001369D01*
X008971Y001528D02*
X008974Y001528D01*
X008971Y001686D02*
X008974Y001686D01*
X008934Y001845D02*
X009011Y001845D01*
X009170Y002003D02*
X008775Y002003D01*
X008739Y002162D02*
X009206Y002162D01*
X009266Y002102D02*
X008974Y002394D01*
X008974Y002807D01*
X009266Y003099D01*
X009679Y003099D01*
X009971Y002807D01*
X009971Y002394D01*
X009679Y002102D01*
X009266Y002102D01*
X009048Y002320D02*
X008897Y002320D01*
X008971Y002479D02*
X008974Y002479D01*
X008971Y002637D02*
X008974Y002637D01*
X008971Y002796D02*
X008974Y002796D01*
X009121Y002955D02*
X008824Y002955D01*
X009824Y002955D02*
X010121Y002955D01*
X010266Y003099D02*
X009974Y002807D01*
X009974Y002394D01*
X010266Y002102D01*
X010679Y002102D01*
X010971Y002394D01*
X010971Y002807D01*
X010679Y003099D01*
X010266Y003099D01*
X009974Y002796D02*
X009971Y002796D01*
X009971Y002637D02*
X009974Y002637D01*
X009971Y002479D02*
X009974Y002479D01*
X010048Y002320D02*
X009897Y002320D01*
X009739Y002162D02*
X010206Y002162D01*
X010266Y002099D02*
X009974Y001807D01*
X009974Y001394D01*
X010266Y001102D01*
X010679Y001102D01*
X010971Y001394D01*
X010971Y001807D01*
X010679Y002099D01*
X010266Y002099D01*
X010170Y002003D02*
X009775Y002003D01*
X009934Y001845D02*
X010011Y001845D01*
X009971Y001686D02*
X009974Y001686D01*
X009971Y001528D02*
X009974Y001528D01*
X009999Y001369D02*
X009946Y001369D01*
X009788Y001211D02*
X010157Y001211D01*
X010788Y001211D02*
X011157Y001211D01*
X011266Y001102D02*
X011679Y001102D01*
X011971Y001394D01*
X011971Y001807D01*
X011679Y002099D01*
X011266Y002099D01*
X010974Y001807D01*
X010974Y001394D01*
X011266Y001102D01*
X010999Y001369D02*
X010946Y001369D01*
X010971Y001528D02*
X010974Y001528D01*
X010971Y001686D02*
X010974Y001686D01*
X010934Y001845D02*
X011011Y001845D01*
X011170Y002003D02*
X010775Y002003D01*
X010739Y002162D02*
X011206Y002162D01*
X011266Y002102D02*
X010974Y002394D01*
X010974Y002807D01*
X011266Y003099D01*
X011679Y003099D01*
X011971Y002807D01*
X011971Y002394D01*
X011679Y002102D01*
X011266Y002102D01*
X011048Y002320D02*
X010897Y002320D01*
X010971Y002479D02*
X010974Y002479D01*
X010971Y002637D02*
X010974Y002637D01*
X010971Y002796D02*
X010974Y002796D01*
X011121Y002955D02*
X010824Y002955D01*
X011739Y002162D02*
X012206Y002162D01*
X012266Y002102D02*
X011974Y002394D01*
X011974Y002807D01*
X012266Y003099D01*
X012679Y003099D01*
X012971Y002807D01*
X012971Y002394D01*
X012679Y002102D01*
X012266Y002102D01*
X012266Y002099D02*
X011974Y001807D01*
X011974Y001394D01*
X012266Y001102D01*
X012679Y001102D01*
X012971Y001394D01*
X012971Y001807D01*
X012679Y002099D01*
X012266Y002099D01*
X012170Y002003D02*
X011775Y002003D01*
X011934Y001845D02*
X012011Y001845D01*
X011971Y001686D02*
X011974Y001686D01*
X011971Y001528D02*
X011974Y001528D01*
X011999Y001369D02*
X011946Y001369D01*
X011788Y001211D02*
X012157Y001211D01*
X012788Y001211D02*
X018673Y001211D01*
X018826Y001369D02*
X012946Y001369D01*
X012971Y001528D02*
X018978Y001528D01*
X019131Y001686D02*
X012971Y001686D01*
X012934Y001845D02*
X019283Y001845D01*
X019436Y002003D02*
X016917Y002003D01*
X016885Y001972D02*
X017208Y002294D01*
X017208Y002390D01*
X017223Y002342D01*
X017257Y002276D01*
X017300Y002217D01*
X017352Y002164D01*
X017412Y002121D01*
X017478Y002088D01*
X017548Y002065D01*
X017621Y002053D01*
X017657Y002053D01*
X017657Y002522D01*
X017658Y002522D01*
X018126Y002522D01*
X018126Y002559D01*
X018115Y002632D01*
X018092Y002702D01*
X018059Y002768D01*
X018015Y002827D01*
X017963Y002880D01*
X017903Y002923D01*
X017838Y002956D01*
X017767Y002979D01*
X017695Y002991D01*
X017658Y002991D01*
X017658Y002522D01*
X017658Y002522D01*
X018126Y002522D01*
X018126Y002485D01*
X018115Y002412D01*
X018092Y002342D01*
X018059Y002276D01*
X018015Y002217D01*
X017963Y002164D01*
X017903Y002121D01*
X017838Y002088D01*
X017767Y002065D01*
X017695Y002053D01*
X017658Y002053D01*
X017658Y002522D01*
X017657Y002522D01*
X017657Y002991D01*
X017621Y002991D01*
X017548Y002979D01*
X017478Y002956D01*
X017412Y002923D01*
X017352Y002880D01*
X017300Y002827D01*
X017257Y002768D01*
X017223Y002702D01*
X017208Y002654D01*
X017208Y002750D01*
X016885Y003072D01*
X016430Y003072D01*
X016108Y002750D01*
X016108Y002294D01*
X016430Y001972D01*
X016885Y001972D01*
X017075Y002162D02*
X017356Y002162D01*
X017234Y002320D02*
X017208Y002320D01*
X017657Y002320D02*
X017658Y002320D01*
X017657Y002162D02*
X017658Y002162D01*
X017959Y002162D02*
X019588Y002162D01*
X019741Y002320D02*
X018081Y002320D01*
X018125Y002479D02*
X019893Y002479D01*
X020046Y002637D02*
X018113Y002637D01*
X018038Y002796D02*
X020198Y002796D01*
X020351Y002955D02*
X017841Y002955D01*
X017658Y002955D02*
X017657Y002955D01*
X017657Y002796D02*
X017658Y002796D01*
X017657Y002637D02*
X017658Y002637D01*
X017657Y002479D02*
X017658Y002479D01*
X017277Y002796D02*
X017161Y002796D01*
X017003Y002955D02*
X017474Y002955D01*
X016312Y002955D02*
X012824Y002955D01*
X012971Y002796D02*
X016154Y002796D01*
X016108Y002637D02*
X012971Y002637D01*
X012971Y002479D02*
X016108Y002479D01*
X016108Y002320D02*
X012897Y002320D01*
X012739Y002162D02*
X016240Y002162D01*
X016399Y002003D02*
X012775Y002003D01*
X012048Y002320D02*
X011897Y002320D01*
X011971Y002479D02*
X011974Y002479D01*
X011971Y002637D02*
X011974Y002637D01*
X011971Y002796D02*
X011974Y002796D01*
X012121Y002955D02*
X011824Y002955D01*
X010852Y003747D02*
X020973Y003747D01*
X020961Y003589D02*
X003985Y003589D01*
X004143Y003430D02*
X020809Y003430D01*
X020656Y003272D02*
X004302Y003272D01*
X004460Y003113D02*
X020503Y003113D01*
X020466Y004523D02*
X020259Y004523D01*
X020069Y004602D01*
X019923Y004748D01*
X019844Y004939D01*
X019844Y005703D01*
X019923Y005893D01*
X020069Y006039D01*
X020259Y006118D01*
X020466Y006118D01*
X020656Y006039D01*
X020802Y005893D01*
X020881Y005703D01*
X020881Y004939D01*
X020802Y004748D01*
X020656Y004602D01*
X020466Y004523D01*
X020506Y004540D02*
X020973Y004540D01*
X020973Y004699D02*
X020753Y004699D01*
X020847Y004857D02*
X020973Y004857D01*
X020973Y005016D02*
X020881Y005016D01*
X020881Y005174D02*
X020973Y005174D01*
X020973Y005333D02*
X020881Y005333D01*
X020881Y005491D02*
X020973Y005491D01*
X020973Y005650D02*
X020881Y005650D01*
X020838Y005808D02*
X020973Y005808D01*
X020973Y005967D02*
X020729Y005967D01*
X019996Y005967D02*
X018949Y005967D01*
X019058Y005808D02*
X019888Y005808D01*
X019844Y005650D02*
X019101Y005650D01*
X019101Y005491D02*
X019844Y005491D01*
X019844Y005333D02*
X019101Y005333D01*
X019101Y005174D02*
X019844Y005174D01*
X019844Y005016D02*
X019101Y005016D01*
X019067Y004857D02*
X019878Y004857D01*
X019972Y004699D02*
X018973Y004699D01*
X018726Y004540D02*
X020219Y004540D01*
X018439Y004540D02*
X016328Y004540D01*
X016423Y004699D02*
X018192Y004699D01*
X018098Y004857D02*
X016451Y004857D01*
X016451Y005016D02*
X018064Y005016D01*
X018064Y005174D02*
X016451Y005174D01*
X016451Y005333D02*
X018064Y005333D01*
X018064Y005491D02*
X016428Y005491D01*
X016339Y005650D02*
X018064Y005650D01*
X014973Y005101D02*
X014973Y010101D01*
X014536Y010089D02*
X009913Y010089D01*
X010072Y010248D02*
X014536Y010248D01*
X014561Y010406D02*
X010230Y010406D01*
X010973Y011101D02*
X014973Y011101D01*
X014617Y010723D02*
X011328Y010723D01*
X010973Y011101D02*
X010973Y013601D01*
X008973Y015601D01*
X004984Y015601D01*
X005299Y015004D02*
X005460Y015004D01*
X004973Y014601D02*
X004973Y012601D01*
X004536Y012626D02*
X000473Y012626D01*
X000473Y012784D02*
X004536Y012784D01*
X004581Y012943D02*
X000473Y012943D01*
X000473Y013101D02*
X004653Y013101D01*
X004536Y012467D02*
X000473Y012467D01*
X000473Y012309D02*
X004555Y012309D01*
X005571Y012150D02*
X000473Y012150D01*
X000473Y011992D02*
X002108Y011992D01*
X001949Y011833D02*
X001645Y011833D01*
X001752Y011726D02*
X001519Y011959D01*
X001355Y011959D01*
X001355Y011562D01*
X001354Y011562D01*
X001354Y011959D01*
X001190Y011959D01*
X000957Y011726D01*
X000957Y011562D01*
X001354Y011562D01*
X001354Y011561D01*
X000957Y011561D01*
X000957Y011397D01*
X001190Y011164D01*
X001354Y011164D01*
X001354Y011561D01*
X001355Y011561D01*
X001355Y011562D01*
X001752Y011562D01*
X001752Y011726D01*
X001752Y011674D02*
X001876Y011674D01*
X001876Y011516D02*
X001752Y011516D01*
X001752Y011561D02*
X001355Y011561D01*
X001355Y011164D01*
X001519Y011164D01*
X001752Y011397D01*
X001752Y011561D01*
X001713Y011357D02*
X001881Y011357D01*
X002040Y011199D02*
X001554Y011199D01*
X001355Y011199D02*
X001354Y011199D01*
X001354Y011357D02*
X001355Y011357D01*
X001354Y011516D02*
X001355Y011516D01*
X001354Y011674D02*
X001355Y011674D01*
X001354Y011833D02*
X001355Y011833D01*
X001064Y011833D02*
X000473Y011833D01*
X000473Y011674D02*
X000957Y011674D01*
X000957Y011516D02*
X000473Y011516D01*
X000473Y011357D02*
X000996Y011357D01*
X001155Y011199D02*
X000473Y011199D01*
X000473Y010406D02*
X006374Y010406D01*
X006187Y010248D02*
X000473Y010248D01*
X000473Y010089D02*
X006153Y010089D01*
X008793Y008662D02*
X009037Y008662D01*
X008994Y008821D02*
X008895Y008821D01*
X008909Y008979D02*
X008994Y008979D01*
X008994Y009138D02*
X008962Y009138D01*
X008793Y008504D02*
X009154Y008504D01*
X011339Y005650D02*
X012106Y005650D01*
X012017Y005491D02*
X011428Y005491D01*
X011451Y005333D02*
X011994Y005333D01*
X011994Y005174D02*
X011451Y005174D01*
X011451Y005016D02*
X011994Y005016D01*
X011994Y004857D02*
X011451Y004857D01*
X011423Y004699D02*
X012022Y004699D01*
X012118Y004540D02*
X011328Y004540D01*
X006153Y004540D02*
X005828Y004540D01*
X005923Y004699D02*
X006153Y004699D01*
X006153Y004857D02*
X005951Y004857D01*
X005951Y005016D02*
X006153Y005016D01*
X006153Y005174D02*
X005951Y005174D01*
X005951Y005333D02*
X006153Y005333D01*
X006153Y005491D02*
X005928Y005491D01*
X005839Y005650D02*
X006153Y005650D01*
X005121Y002955D02*
X004473Y002955D01*
X004473Y002796D02*
X004974Y002796D01*
X004974Y002637D02*
X004473Y002637D01*
X004473Y002479D02*
X004974Y002479D01*
X005048Y002320D02*
X004473Y002320D01*
X004473Y002162D02*
X005206Y002162D01*
X005170Y002003D02*
X004473Y002003D01*
X004473Y001845D02*
X005011Y001845D01*
X004974Y001686D02*
X004473Y001686D01*
X004473Y001528D02*
X004974Y001528D01*
X004999Y001369D02*
X004473Y001369D01*
X004473Y001211D02*
X005157Y001211D01*
X004473Y001052D02*
X018520Y001052D01*
X018368Y000894D02*
X004473Y000894D01*
X004473Y000735D02*
X018215Y000735D01*
X018063Y000576D02*
X004473Y000576D01*
X002645Y013183D02*
X002890Y013428D01*
X002890Y013591D01*
X002483Y013591D01*
X002483Y013611D01*
X002890Y013611D01*
X002890Y013774D01*
X002645Y014018D01*
X002483Y014018D01*
X002483Y013611D01*
X002463Y013611D01*
X002463Y014018D01*
X002300Y014018D01*
X002055Y013774D01*
X002055Y013611D01*
X002462Y013611D01*
X002462Y013591D01*
X002055Y013591D01*
X002055Y013428D01*
X002300Y013183D01*
X002463Y013183D01*
X002463Y013591D01*
X002483Y013591D01*
X002483Y013183D01*
X002645Y013183D01*
X002722Y013260D02*
X003108Y013260D01*
X002974Y013418D02*
X002881Y013418D01*
X002890Y013577D02*
X002974Y013577D01*
X002974Y013736D02*
X002890Y013736D01*
X002770Y013894D02*
X003061Y013894D01*
X003219Y014053D02*
X000473Y014053D01*
X000473Y014211D02*
X001129Y014211D01*
X001036Y014370D02*
X000473Y014370D01*
X000473Y014528D02*
X001036Y014528D01*
X001473Y014601D02*
X001473Y015601D01*
X002473Y016601D01*
X005973Y016601D01*
X008973Y016601D01*
X009409Y016589D02*
X010484Y016589D01*
X010643Y016431D02*
X009409Y016431D01*
X009375Y016272D02*
X010801Y016272D01*
X010960Y016114D02*
X002438Y016114D01*
X002971Y015797D02*
X002974Y015797D01*
X002971Y015638D02*
X002974Y015638D01*
X002971Y015479D02*
X002974Y015479D01*
X003047Y015321D02*
X002898Y015321D01*
X002739Y015162D02*
X003206Y015162D01*
X003170Y015004D02*
X002775Y015004D01*
X002933Y014845D02*
X003012Y014845D01*
X002974Y014687D02*
X002971Y014687D01*
X002971Y014528D02*
X002974Y014528D01*
X002998Y014370D02*
X002947Y014370D01*
X002788Y014211D02*
X003157Y014211D01*
X002483Y013894D02*
X002463Y013894D01*
X002463Y013736D02*
X002483Y013736D01*
X002483Y013577D02*
X002463Y013577D01*
X002463Y013418D02*
X002483Y013418D01*
X002483Y013260D02*
X002463Y013260D01*
X002223Y013260D02*
X000473Y013260D01*
X000473Y013418D02*
X002065Y013418D01*
X002055Y013577D02*
X000473Y013577D01*
X000473Y013736D02*
X002055Y013736D01*
X002176Y013894D02*
X000473Y013894D01*
X000876Y015004D02*
X001147Y015004D01*
X001153Y015162D02*
X001034Y015162D01*
X001793Y015162D02*
X002206Y015162D01*
X002170Y015004D02*
X001799Y015004D01*
X001793Y015321D02*
X002047Y015321D01*
X001974Y015479D02*
X001804Y015479D01*
X001962Y015638D02*
X001974Y015638D01*
X001974Y014687D02*
X001909Y014687D01*
X001909Y014528D02*
X001974Y014528D01*
X001998Y014370D02*
X001909Y014370D01*
X001816Y014211D02*
X002157Y014211D01*
X003739Y015162D02*
X008958Y015162D01*
X008460Y015004D02*
X006485Y015004D01*
X006628Y014845D02*
X008317Y014845D01*
X008255Y014687D02*
X006690Y014687D01*
X006690Y014528D02*
X008255Y014528D01*
X008311Y014370D02*
X006634Y014370D01*
X006499Y014211D02*
X008446Y014211D01*
X008574Y014053D02*
X006372Y014053D01*
X006595Y013894D02*
X008350Y013894D01*
X008271Y013736D02*
X006674Y013736D01*
X006690Y013577D02*
X008255Y013577D01*
X008291Y013418D02*
X006654Y013418D01*
X006547Y013260D02*
X008398Y013260D01*
X009372Y014053D02*
X010068Y014053D01*
X009910Y014211D02*
X009499Y014211D01*
X009634Y014370D02*
X009751Y014370D01*
X010181Y014845D02*
X011166Y014845D01*
X011075Y014936D02*
X011308Y014703D01*
X011472Y014703D01*
X011472Y015100D01*
X011473Y015100D01*
X011473Y014703D01*
X011637Y014703D01*
X011870Y014936D01*
X011870Y015101D01*
X011870Y015265D01*
X011637Y015498D01*
X011473Y015498D01*
X011473Y015101D01*
X011870Y015101D01*
X011473Y015101D01*
X011473Y015101D01*
X011472Y015101D01*
X011472Y015101D01*
X011075Y015101D01*
X011075Y015265D01*
X011308Y015498D01*
X011472Y015498D01*
X011472Y015101D01*
X011075Y015101D01*
X011075Y014936D01*
X011075Y015004D02*
X010022Y015004D01*
X009864Y015162D02*
X011075Y015162D01*
X011131Y015321D02*
X009705Y015321D01*
X009546Y015479D02*
X011289Y015479D01*
X011472Y015479D02*
X011473Y015479D01*
X011472Y015321D02*
X011473Y015321D01*
X011472Y015162D02*
X011473Y015162D01*
X011472Y015004D02*
X011473Y015004D01*
X011472Y014845D02*
X011473Y014845D01*
X011779Y014845D02*
X015051Y014845D01*
X014994Y015004D02*
X011870Y015004D01*
X011870Y015162D02*
X014994Y015162D01*
X015016Y015321D02*
X011814Y015321D01*
X011656Y015479D02*
X015174Y015479D01*
X015210Y014687D02*
X010339Y014687D01*
X008571Y016272D02*
X006375Y016272D01*
X005446Y014211D02*
X005316Y014211D01*
X005293Y014053D02*
X005574Y014053D01*
X005350Y013894D02*
X005293Y013894D01*
X009409Y016748D02*
X010326Y016748D01*
X010167Y016906D02*
X009384Y016906D01*
X010008Y017065D02*
X002937Y017065D01*
M02*
