G75*
G70*
%OFA0B0*%
%FSLAX24Y24*%
%IPPOS*%
%LPD*%
%AMOC8*
5,1,8,0,0,1.08239X$1,22.5*
%
%ADD10C,0.0000*%
%ADD11C,0.0315*%
%ADD12OC8,0.0610*%
%ADD13C,0.0984*%
%ADD14OC8,0.0556*%
%ADD15OC8,0.0699*%
%ADD16C,0.0699*%
%ADD17C,0.0636*%
%ADD18C,0.0556*%
%ADD19OC8,0.0596*%
%ADD20R,0.0472X0.0472*%
D10*
X000103Y000105D02*
X021473Y000105D01*
X021473Y017601D01*
X000103Y017601D01*
X000103Y000105D01*
X000855Y001101D02*
X000857Y001122D01*
X000863Y001142D01*
X000872Y001162D01*
X000884Y001179D01*
X000899Y001193D01*
X000917Y001205D01*
X000937Y001213D01*
X000957Y001218D01*
X000978Y001219D01*
X000999Y001216D01*
X001019Y001210D01*
X001038Y001199D01*
X001055Y001186D01*
X001068Y001170D01*
X001079Y001152D01*
X001087Y001132D01*
X001091Y001112D01*
X001091Y001090D01*
X001087Y001070D01*
X001079Y001050D01*
X001068Y001032D01*
X001055Y001016D01*
X001038Y001003D01*
X001019Y000992D01*
X000999Y000986D01*
X000978Y000983D01*
X000957Y000984D01*
X000937Y000989D01*
X000917Y000997D01*
X000899Y001009D01*
X000884Y001023D01*
X000872Y001040D01*
X000863Y001060D01*
X000857Y001080D01*
X000855Y001101D01*
X020355Y001101D02*
X020357Y001122D01*
X020363Y001142D01*
X020372Y001162D01*
X020384Y001179D01*
X020399Y001193D01*
X020417Y001205D01*
X020437Y001213D01*
X020457Y001218D01*
X020478Y001219D01*
X020499Y001216D01*
X020519Y001210D01*
X020538Y001199D01*
X020555Y001186D01*
X020568Y001170D01*
X020579Y001152D01*
X020587Y001132D01*
X020591Y001112D01*
X020591Y001090D01*
X020587Y001070D01*
X020579Y001050D01*
X020568Y001032D01*
X020555Y001016D01*
X020538Y001003D01*
X020519Y000992D01*
X020499Y000986D01*
X020478Y000983D01*
X020457Y000984D01*
X020437Y000989D01*
X020417Y000997D01*
X020399Y001009D01*
X020384Y001023D01*
X020372Y001040D01*
X020363Y001060D01*
X020357Y001080D01*
X020355Y001101D01*
X020020Y009731D02*
X020022Y009773D01*
X020028Y009815D01*
X020038Y009857D01*
X020051Y009897D01*
X020069Y009936D01*
X020090Y009973D01*
X020114Y010007D01*
X020142Y010040D01*
X020172Y010070D01*
X020205Y010096D01*
X020240Y010120D01*
X020278Y010140D01*
X020317Y010156D01*
X020357Y010169D01*
X020399Y010178D01*
X020441Y010183D01*
X020484Y010184D01*
X020526Y010181D01*
X020568Y010174D01*
X020609Y010163D01*
X020649Y010148D01*
X020687Y010130D01*
X020724Y010108D01*
X020758Y010083D01*
X020790Y010055D01*
X020818Y010024D01*
X020844Y009990D01*
X020867Y009954D01*
X020886Y009917D01*
X020902Y009877D01*
X020914Y009836D01*
X020922Y009795D01*
X020926Y009752D01*
X020926Y009710D01*
X020922Y009667D01*
X020914Y009626D01*
X020902Y009585D01*
X020886Y009545D01*
X020867Y009508D01*
X020844Y009472D01*
X020818Y009438D01*
X020790Y009407D01*
X020758Y009379D01*
X020724Y009354D01*
X020687Y009332D01*
X020649Y009314D01*
X020609Y009299D01*
X020568Y009288D01*
X020526Y009281D01*
X020484Y009278D01*
X020441Y009279D01*
X020399Y009284D01*
X020357Y009293D01*
X020317Y009306D01*
X020278Y009322D01*
X020240Y009342D01*
X020205Y009366D01*
X020172Y009392D01*
X020142Y009422D01*
X020114Y009455D01*
X020090Y009489D01*
X020069Y009526D01*
X020051Y009565D01*
X020038Y009605D01*
X020028Y009647D01*
X020022Y009689D01*
X020020Y009731D01*
X020020Y014471D02*
X020022Y014513D01*
X020028Y014555D01*
X020038Y014597D01*
X020051Y014637D01*
X020069Y014676D01*
X020090Y014713D01*
X020114Y014747D01*
X020142Y014780D01*
X020172Y014810D01*
X020205Y014836D01*
X020240Y014860D01*
X020278Y014880D01*
X020317Y014896D01*
X020357Y014909D01*
X020399Y014918D01*
X020441Y014923D01*
X020484Y014924D01*
X020526Y014921D01*
X020568Y014914D01*
X020609Y014903D01*
X020649Y014888D01*
X020687Y014870D01*
X020724Y014848D01*
X020758Y014823D01*
X020790Y014795D01*
X020818Y014764D01*
X020844Y014730D01*
X020867Y014694D01*
X020886Y014657D01*
X020902Y014617D01*
X020914Y014576D01*
X020922Y014535D01*
X020926Y014492D01*
X020926Y014450D01*
X020922Y014407D01*
X020914Y014366D01*
X020902Y014325D01*
X020886Y014285D01*
X020867Y014248D01*
X020844Y014212D01*
X020818Y014178D01*
X020790Y014147D01*
X020758Y014119D01*
X020724Y014094D01*
X020687Y014072D01*
X020649Y014054D01*
X020609Y014039D01*
X020568Y014028D01*
X020526Y014021D01*
X020484Y014018D01*
X020441Y014019D01*
X020399Y014024D01*
X020357Y014033D01*
X020317Y014046D01*
X020278Y014062D01*
X020240Y014082D01*
X020205Y014106D01*
X020172Y014132D01*
X020142Y014162D01*
X020114Y014195D01*
X020090Y014229D01*
X020069Y014266D01*
X020051Y014305D01*
X020038Y014345D01*
X020028Y014387D01*
X020022Y014429D01*
X020020Y014471D01*
X020355Y016601D02*
X020357Y016622D01*
X020363Y016642D01*
X020372Y016662D01*
X020384Y016679D01*
X020399Y016693D01*
X020417Y016705D01*
X020437Y016713D01*
X020457Y016718D01*
X020478Y016719D01*
X020499Y016716D01*
X020519Y016710D01*
X020538Y016699D01*
X020555Y016686D01*
X020568Y016670D01*
X020579Y016652D01*
X020587Y016632D01*
X020591Y016612D01*
X020591Y016590D01*
X020587Y016570D01*
X020579Y016550D01*
X020568Y016532D01*
X020555Y016516D01*
X020538Y016503D01*
X020519Y016492D01*
X020499Y016486D01*
X020478Y016483D01*
X020457Y016484D01*
X020437Y016489D01*
X020417Y016497D01*
X020399Y016509D01*
X020384Y016523D01*
X020372Y016540D01*
X020363Y016560D01*
X020357Y016580D01*
X020355Y016601D01*
X000855Y016601D02*
X000857Y016622D01*
X000863Y016642D01*
X000872Y016662D01*
X000884Y016679D01*
X000899Y016693D01*
X000917Y016705D01*
X000937Y016713D01*
X000957Y016718D01*
X000978Y016719D01*
X000999Y016716D01*
X001019Y016710D01*
X001038Y016699D01*
X001055Y016686D01*
X001068Y016670D01*
X001079Y016652D01*
X001087Y016632D01*
X001091Y016612D01*
X001091Y016590D01*
X001087Y016570D01*
X001079Y016550D01*
X001068Y016532D01*
X001055Y016516D01*
X001038Y016503D01*
X001019Y016492D01*
X000999Y016486D01*
X000978Y016483D01*
X000957Y016484D01*
X000937Y016489D01*
X000917Y016497D01*
X000899Y016509D01*
X000884Y016523D01*
X000872Y016540D01*
X000863Y016560D01*
X000857Y016580D01*
X000855Y016601D01*
D11*
X000973Y016601D03*
X020473Y016601D03*
X020473Y001101D03*
X000973Y001101D03*
D12*
X018618Y011609D03*
X019406Y011609D03*
X019406Y012593D03*
X018618Y012593D03*
D13*
X020473Y014471D03*
X020473Y009731D03*
D14*
X016973Y010101D03*
X016973Y012101D03*
X015473Y012101D03*
X015473Y013601D03*
X016473Y013601D03*
X015473Y015101D03*
X016473Y015601D03*
X011473Y015101D03*
X011473Y013601D03*
X011473Y012101D03*
X002354Y011561D03*
X001354Y011561D03*
D15*
X016658Y002522D03*
D16*
X017658Y002522D03*
D17*
X018583Y005042D02*
X018583Y005600D01*
X020363Y005600D02*
X020363Y005042D01*
X020363Y007602D02*
X020363Y008160D01*
X018583Y008160D02*
X018583Y007602D01*
D18*
X015973Y008862D02*
X015973Y009340D01*
X013973Y009340D02*
X013973Y008862D01*
X012473Y008862D02*
X012473Y009340D01*
X010973Y009340D02*
X010973Y008862D01*
X009473Y008862D02*
X009473Y009340D01*
X007473Y009340D02*
X007473Y008862D01*
X005473Y008862D02*
X005473Y009340D01*
X003973Y009340D02*
X003973Y008862D01*
X002473Y008862D02*
X002473Y009340D01*
X005734Y011601D02*
X006211Y011601D01*
X006211Y012601D02*
X005734Y012601D01*
X005734Y013601D02*
X006211Y013601D01*
X006211Y014601D02*
X005734Y014601D01*
X008734Y014601D02*
X009211Y014601D01*
X009211Y013601D02*
X008734Y013601D01*
X008734Y012601D02*
X009211Y012601D01*
X009211Y011601D02*
X008734Y011601D01*
X009473Y005340D02*
X009473Y004862D01*
X010973Y004862D02*
X010973Y005340D01*
X012473Y005340D02*
X012473Y004862D01*
X013973Y004862D02*
X013973Y005340D01*
X015973Y005340D02*
X015973Y004862D01*
X007473Y004862D02*
X007473Y005340D01*
X005473Y005340D02*
X005473Y004862D01*
X003973Y004862D02*
X003973Y005340D01*
X002473Y005340D02*
X002473Y004862D01*
D19*
X005473Y002601D03*
X006473Y002601D03*
X007473Y002601D03*
X008473Y002601D03*
X009473Y002601D03*
X010473Y002601D03*
X011473Y002601D03*
X012473Y002601D03*
X012473Y001601D03*
X011473Y001601D03*
X010473Y001601D03*
X009473Y001601D03*
X008473Y001601D03*
X007473Y001601D03*
X006473Y001601D03*
X005473Y001601D03*
X003473Y013601D03*
X002473Y013601D03*
X002473Y014601D03*
X003473Y014601D03*
X003473Y015601D03*
X002473Y015601D03*
D20*
X001473Y014601D03*
X004973Y014601D03*
X004984Y015601D03*
X005973Y016601D03*
X008973Y016601D03*
X009973Y013601D03*
X009973Y012601D03*
X010973Y011101D03*
X008473Y009101D03*
X006473Y009101D03*
X004973Y012601D03*
X014973Y011101D03*
X014973Y010101D03*
X017473Y015101D03*
X010473Y004101D03*
X008473Y004101D03*
X006473Y004101D03*
M02*
