G75*
G70*
%OFA0B0*%
%FSLAX24Y24*%
%IPPOS*%
%LPD*%
%AMOC8*
5,1,8,0,0,1.08239X$1,22.5*
%
%ADD10C,0.0000*%
%ADD11C,0.0130*%
%ADD12C,0.0080*%
%ADD13C,0.0110*%
%ADD14OC8,0.0531*%
%ADD15OC8,0.0477*%
%ADD16OC8,0.0620*%
%ADD17C,0.0620*%
%ADD18C,0.0557*%
%ADD19C,0.0477*%
%ADD20OC8,0.0517*%
%ADD21C,0.0160*%
%ADD22R,0.0394X0.0394*%
D10*
X000103Y000105D02*
X021473Y000105D01*
X021473Y017601D01*
X000103Y017601D01*
X000103Y000105D01*
X000855Y001101D02*
X000857Y001122D01*
X000863Y001142D01*
X000872Y001162D01*
X000884Y001179D01*
X000899Y001193D01*
X000917Y001205D01*
X000937Y001213D01*
X000957Y001218D01*
X000978Y001219D01*
X000999Y001216D01*
X001019Y001210D01*
X001038Y001199D01*
X001055Y001186D01*
X001068Y001170D01*
X001079Y001152D01*
X001087Y001132D01*
X001091Y001112D01*
X001091Y001090D01*
X001087Y001070D01*
X001079Y001050D01*
X001068Y001032D01*
X001055Y001016D01*
X001038Y001003D01*
X001019Y000992D01*
X000999Y000986D01*
X000978Y000983D01*
X000957Y000984D01*
X000937Y000989D01*
X000917Y000997D01*
X000899Y001009D01*
X000884Y001023D01*
X000872Y001040D01*
X000863Y001060D01*
X000857Y001080D01*
X000855Y001101D01*
X020355Y001101D02*
X020357Y001122D01*
X020363Y001142D01*
X020372Y001162D01*
X020384Y001179D01*
X020399Y001193D01*
X020417Y001205D01*
X020437Y001213D01*
X020457Y001218D01*
X020478Y001219D01*
X020499Y001216D01*
X020519Y001210D01*
X020538Y001199D01*
X020555Y001186D01*
X020568Y001170D01*
X020579Y001152D01*
X020587Y001132D01*
X020591Y001112D01*
X020591Y001090D01*
X020587Y001070D01*
X020579Y001050D01*
X020568Y001032D01*
X020555Y001016D01*
X020538Y001003D01*
X020519Y000992D01*
X020499Y000986D01*
X020478Y000983D01*
X020457Y000984D01*
X020437Y000989D01*
X020417Y000997D01*
X020399Y001009D01*
X020384Y001023D01*
X020372Y001040D01*
X020363Y001060D01*
X020357Y001080D01*
X020355Y001101D01*
X020020Y009731D02*
X020022Y009773D01*
X020028Y009815D01*
X020038Y009857D01*
X020051Y009897D01*
X020069Y009936D01*
X020090Y009973D01*
X020114Y010007D01*
X020142Y010040D01*
X020172Y010070D01*
X020205Y010096D01*
X020240Y010120D01*
X020278Y010140D01*
X020317Y010156D01*
X020357Y010169D01*
X020399Y010178D01*
X020441Y010183D01*
X020484Y010184D01*
X020526Y010181D01*
X020568Y010174D01*
X020609Y010163D01*
X020649Y010148D01*
X020687Y010130D01*
X020724Y010108D01*
X020758Y010083D01*
X020790Y010055D01*
X020818Y010024D01*
X020844Y009990D01*
X020867Y009954D01*
X020886Y009917D01*
X020902Y009877D01*
X020914Y009836D01*
X020922Y009795D01*
X020926Y009752D01*
X020926Y009710D01*
X020922Y009667D01*
X020914Y009626D01*
X020902Y009585D01*
X020886Y009545D01*
X020867Y009508D01*
X020844Y009472D01*
X020818Y009438D01*
X020790Y009407D01*
X020758Y009379D01*
X020724Y009354D01*
X020687Y009332D01*
X020649Y009314D01*
X020609Y009299D01*
X020568Y009288D01*
X020526Y009281D01*
X020484Y009278D01*
X020441Y009279D01*
X020399Y009284D01*
X020357Y009293D01*
X020317Y009306D01*
X020278Y009322D01*
X020240Y009342D01*
X020205Y009366D01*
X020172Y009392D01*
X020142Y009422D01*
X020114Y009455D01*
X020090Y009489D01*
X020069Y009526D01*
X020051Y009565D01*
X020038Y009605D01*
X020028Y009647D01*
X020022Y009689D01*
X020020Y009731D01*
X020020Y014471D02*
X020022Y014513D01*
X020028Y014555D01*
X020038Y014597D01*
X020051Y014637D01*
X020069Y014676D01*
X020090Y014713D01*
X020114Y014747D01*
X020142Y014780D01*
X020172Y014810D01*
X020205Y014836D01*
X020240Y014860D01*
X020278Y014880D01*
X020317Y014896D01*
X020357Y014909D01*
X020399Y014918D01*
X020441Y014923D01*
X020484Y014924D01*
X020526Y014921D01*
X020568Y014914D01*
X020609Y014903D01*
X020649Y014888D01*
X020687Y014870D01*
X020724Y014848D01*
X020758Y014823D01*
X020790Y014795D01*
X020818Y014764D01*
X020844Y014730D01*
X020867Y014694D01*
X020886Y014657D01*
X020902Y014617D01*
X020914Y014576D01*
X020922Y014535D01*
X020926Y014492D01*
X020926Y014450D01*
X020922Y014407D01*
X020914Y014366D01*
X020902Y014325D01*
X020886Y014285D01*
X020867Y014248D01*
X020844Y014212D01*
X020818Y014178D01*
X020790Y014147D01*
X020758Y014119D01*
X020724Y014094D01*
X020687Y014072D01*
X020649Y014054D01*
X020609Y014039D01*
X020568Y014028D01*
X020526Y014021D01*
X020484Y014018D01*
X020441Y014019D01*
X020399Y014024D01*
X020357Y014033D01*
X020317Y014046D01*
X020278Y014062D01*
X020240Y014082D01*
X020205Y014106D01*
X020172Y014132D01*
X020142Y014162D01*
X020114Y014195D01*
X020090Y014229D01*
X020069Y014266D01*
X020051Y014305D01*
X020038Y014345D01*
X020028Y014387D01*
X020022Y014429D01*
X020020Y014471D01*
X020355Y016601D02*
X020357Y016622D01*
X020363Y016642D01*
X020372Y016662D01*
X020384Y016679D01*
X020399Y016693D01*
X020417Y016705D01*
X020437Y016713D01*
X020457Y016718D01*
X020478Y016719D01*
X020499Y016716D01*
X020519Y016710D01*
X020538Y016699D01*
X020555Y016686D01*
X020568Y016670D01*
X020579Y016652D01*
X020587Y016632D01*
X020591Y016612D01*
X020591Y016590D01*
X020587Y016570D01*
X020579Y016550D01*
X020568Y016532D01*
X020555Y016516D01*
X020538Y016503D01*
X020519Y016492D01*
X020499Y016486D01*
X020478Y016483D01*
X020457Y016484D01*
X020437Y016489D01*
X020417Y016497D01*
X020399Y016509D01*
X020384Y016523D01*
X020372Y016540D01*
X020363Y016560D01*
X020357Y016580D01*
X020355Y016601D01*
X000855Y016601D02*
X000857Y016622D01*
X000863Y016642D01*
X000872Y016662D01*
X000884Y016679D01*
X000899Y016693D01*
X000917Y016705D01*
X000937Y016713D01*
X000957Y016718D01*
X000978Y016719D01*
X000999Y016716D01*
X001019Y016710D01*
X001038Y016699D01*
X001055Y016686D01*
X001068Y016670D01*
X001079Y016652D01*
X001087Y016632D01*
X001091Y016612D01*
X001091Y016590D01*
X001087Y016570D01*
X001079Y016550D01*
X001068Y016532D01*
X001055Y016516D01*
X001038Y016503D01*
X001019Y016492D01*
X000999Y016486D01*
X000978Y016483D01*
X000957Y016484D01*
X000937Y016489D01*
X000917Y016497D01*
X000899Y016509D01*
X000884Y016523D01*
X000872Y016540D01*
X000863Y016560D01*
X000857Y016580D01*
X000855Y016601D01*
D11*
X001052Y003396D02*
X000809Y003153D01*
X000809Y002666D01*
X000809Y003031D02*
X001296Y003031D01*
X001296Y003153D02*
X001052Y003396D01*
X001296Y003153D02*
X001296Y002666D01*
X001601Y002666D02*
X001844Y002909D01*
X001723Y002909D02*
X001601Y003031D01*
X001601Y003275D01*
X001723Y003396D01*
X002088Y003396D01*
X002088Y002666D01*
X002088Y002909D02*
X001723Y002909D01*
X002372Y002666D02*
X002616Y002666D01*
X002494Y002666D02*
X002494Y003396D01*
X002616Y003396D02*
X002372Y003396D01*
X002921Y003396D02*
X002921Y002666D01*
X003408Y002666D02*
X003408Y003396D01*
X003164Y003153D01*
X002921Y003396D01*
D12*
X002902Y002061D02*
X002762Y002061D01*
X002692Y001991D01*
X002972Y001711D01*
X002902Y001641D01*
X002762Y001641D01*
X002692Y001711D01*
X002692Y001991D01*
X002512Y001921D02*
X002372Y002061D01*
X002372Y001641D01*
X002512Y001641D02*
X002232Y001641D01*
X002052Y001641D02*
X001771Y001641D01*
X001911Y001641D02*
X001911Y002061D01*
X002052Y001921D01*
X002902Y002061D02*
X002972Y001991D01*
X002972Y001711D01*
X003152Y001641D02*
X003433Y001641D01*
X003152Y001921D01*
X003152Y001991D01*
X003222Y002061D01*
X003363Y002061D01*
X003433Y001991D01*
D13*
X012501Y016353D02*
X012698Y016353D01*
X012599Y016353D02*
X012599Y016943D01*
X012501Y016943D02*
X012698Y016943D01*
X012931Y016943D02*
X013128Y016943D01*
X013029Y016943D02*
X013029Y016353D01*
X012931Y016353D02*
X013128Y016353D01*
X013360Y016353D02*
X013557Y016353D01*
X013459Y016353D02*
X013459Y016943D01*
X013557Y016943D02*
X013360Y016943D01*
X014453Y016648D02*
X014453Y016353D01*
X014748Y016353D01*
X014846Y016451D01*
X014748Y016549D01*
X014453Y016549D01*
X014453Y016648D02*
X014551Y016746D01*
X014748Y016746D01*
X015088Y016746D02*
X015187Y016746D01*
X015383Y016549D01*
X015383Y016353D02*
X015383Y016746D01*
X015616Y016746D02*
X015813Y016746D01*
X015715Y016845D02*
X015715Y016451D01*
X015616Y016353D01*
X016064Y016451D02*
X016162Y016549D01*
X016359Y016549D01*
X016458Y016648D01*
X016359Y016746D01*
X016064Y016746D01*
X016064Y016451D02*
X016162Y016353D01*
X016458Y016353D01*
X016708Y016353D02*
X016708Y016746D01*
X016905Y016943D01*
X017102Y016746D01*
X017102Y016353D01*
X017102Y016648D02*
X016708Y016648D01*
X017353Y016648D02*
X017747Y016648D01*
X017998Y016746D02*
X018293Y016746D01*
X018391Y016648D01*
X018391Y016451D01*
X018293Y016353D01*
X017998Y016353D01*
X017998Y016943D01*
X018642Y016746D02*
X018642Y016353D01*
X018642Y016648D02*
X019036Y016648D01*
X019036Y016746D02*
X018839Y016943D01*
X018642Y016746D01*
X019036Y016746D02*
X019036Y016353D01*
D14*
X019406Y012593D03*
X018618Y012593D03*
X018618Y011609D03*
X019406Y011609D03*
D15*
X016973Y012101D03*
X015473Y012101D03*
X015473Y013601D03*
X016473Y013601D03*
X015473Y015101D03*
X016473Y015601D03*
X011473Y015101D03*
X011473Y013601D03*
X011473Y012101D03*
X016973Y010101D03*
X002354Y011561D03*
X001354Y011561D03*
D16*
X016658Y002522D03*
D17*
X017658Y002522D03*
D18*
X018583Y005042D02*
X018583Y005600D01*
X020363Y005600D02*
X020363Y005042D01*
X020363Y007602D02*
X020363Y008160D01*
X018583Y008160D02*
X018583Y007602D01*
D19*
X015973Y008862D02*
X015973Y009340D01*
X013973Y009340D02*
X013973Y008862D01*
X012473Y008862D02*
X012473Y009340D01*
X010973Y009340D02*
X010973Y008862D01*
X009473Y008862D02*
X009473Y009340D01*
X007473Y009340D02*
X007473Y008862D01*
X005473Y008862D02*
X005473Y009340D01*
X003973Y009340D02*
X003973Y008862D01*
X002473Y008862D02*
X002473Y009340D01*
X005734Y011601D02*
X006211Y011601D01*
X006211Y012601D02*
X005734Y012601D01*
X005734Y013601D02*
X006211Y013601D01*
X006211Y014601D02*
X005734Y014601D01*
X008734Y014601D02*
X009211Y014601D01*
X009211Y013601D02*
X008734Y013601D01*
X008734Y012601D02*
X009211Y012601D01*
X009211Y011601D02*
X008734Y011601D01*
X009473Y005340D02*
X009473Y004862D01*
X010973Y004862D02*
X010973Y005340D01*
X012473Y005340D02*
X012473Y004862D01*
X013973Y004862D02*
X013973Y005340D01*
X015973Y005340D02*
X015973Y004862D01*
X007473Y004862D02*
X007473Y005340D01*
X005473Y005340D02*
X005473Y004862D01*
X003973Y004862D02*
X003973Y005340D01*
X002473Y005340D02*
X002473Y004862D01*
D20*
X005473Y002601D03*
X006473Y002601D03*
X007473Y002601D03*
X008473Y002601D03*
X009473Y002601D03*
X010473Y002601D03*
X011473Y002601D03*
X012473Y002601D03*
X012473Y001601D03*
X011473Y001601D03*
X010473Y001601D03*
X009473Y001601D03*
X008473Y001601D03*
X007473Y001601D03*
X006473Y001601D03*
X005473Y001601D03*
X003473Y013601D03*
X002473Y013601D03*
X002473Y014601D03*
X003473Y014601D03*
X003473Y015601D03*
X002473Y015601D03*
D21*
X002483Y015611D02*
X002463Y015611D01*
X002463Y016018D01*
X002300Y016018D01*
X002055Y015774D01*
X002055Y015611D01*
X002462Y015611D01*
X002462Y015591D01*
X002055Y015591D01*
X002055Y015428D01*
X002300Y015183D01*
X002463Y015183D01*
X002463Y015591D01*
X002483Y015591D01*
X002483Y015611D01*
X002890Y015611D01*
X002890Y015774D01*
X002645Y016018D01*
X002483Y016018D01*
X002483Y015611D01*
X002483Y015591D02*
X002890Y015591D01*
X002890Y015428D01*
X002645Y015183D01*
X002483Y015183D01*
X002483Y015591D01*
X002483Y015638D02*
X002463Y015638D01*
X002463Y015479D02*
X002483Y015479D01*
X002483Y015321D02*
X002463Y015321D01*
X002266Y015099D02*
X002087Y014921D01*
X001878Y014921D01*
X001873Y014934D01*
X001805Y015001D01*
X001717Y015038D01*
X001228Y015038D01*
X001140Y015001D01*
X001072Y014934D01*
X001036Y014845D01*
X000717Y014845D01*
X000559Y014687D02*
X001036Y014687D01*
X001036Y014845D02*
X001036Y014356D01*
X001072Y014268D01*
X001140Y014200D01*
X001228Y014164D01*
X001717Y014164D01*
X001805Y014200D01*
X001873Y014268D01*
X001878Y014281D01*
X002087Y014281D01*
X002266Y014102D01*
X002679Y014102D01*
X002971Y014394D01*
X002971Y014807D01*
X002679Y015099D01*
X002266Y015099D01*
X002170Y015004D02*
X001799Y015004D01*
X002162Y015321D02*
X001193Y015321D01*
X001351Y015479D02*
X002055Y015479D01*
X002055Y015638D02*
X001510Y015638D01*
X001668Y015797D02*
X002078Y015797D01*
X002237Y015955D02*
X001827Y015955D01*
X001985Y016114D02*
X005653Y016114D01*
X005653Y016195D02*
X005653Y015079D01*
X005639Y015079D01*
X005463Y015007D01*
X005378Y014922D01*
X005373Y014934D01*
X005305Y015001D01*
X005217Y015038D01*
X004728Y015038D01*
X004640Y015001D01*
X004572Y014934D01*
X004567Y014921D01*
X003858Y014921D01*
X003679Y015099D01*
X003266Y015099D01*
X002974Y014807D01*
X002974Y014394D01*
X003266Y014102D01*
X003679Y014102D01*
X003858Y014281D01*
X004567Y014281D01*
X004572Y014268D01*
X004640Y014200D01*
X004728Y014164D01*
X005217Y014164D01*
X005305Y014200D01*
X005373Y014268D01*
X005378Y014280D01*
X005463Y014195D01*
X005639Y014122D01*
X006307Y014122D01*
X006483Y014195D01*
X006617Y014330D01*
X006690Y014506D01*
X006690Y014696D01*
X006617Y014872D01*
X006483Y015007D01*
X006307Y015079D01*
X006293Y015079D01*
X006293Y016195D01*
X006305Y016200D01*
X006373Y016268D01*
X006409Y016356D01*
X006409Y016845D01*
X006373Y016934D01*
X006305Y017001D01*
X006217Y017038D01*
X005728Y017038D01*
X005640Y017001D01*
X005572Y016934D01*
X005536Y016845D01*
X005536Y016356D01*
X005572Y016268D01*
X005640Y016200D01*
X005653Y016195D01*
X005571Y016272D02*
X002144Y016272D01*
X002303Y016431D02*
X005536Y016431D01*
X005536Y016589D02*
X002461Y016589D01*
X002620Y016748D02*
X005536Y016748D01*
X005561Y016906D02*
X002778Y016906D01*
X002937Y017065D02*
X010008Y017065D01*
X009973Y017101D02*
X002973Y017101D01*
X000473Y014601D01*
X000473Y004101D01*
X003020Y004101D01*
X002688Y004433D01*
X002568Y004383D01*
X002377Y004383D01*
X002201Y004456D01*
X002067Y004591D01*
X001994Y004767D01*
X001994Y005127D01*
X001291Y005829D01*
X001201Y005919D01*
X001153Y006037D01*
X001153Y010037D01*
X001153Y010164D01*
X001201Y010282D01*
X001291Y010372D01*
X001409Y010421D01*
X003153Y010421D01*
X003153Y013216D01*
X002974Y013394D01*
X002974Y013807D01*
X003266Y014099D01*
X003679Y014099D01*
X003858Y013921D01*
X005377Y013921D01*
X005463Y014007D01*
X005639Y014079D01*
X006307Y014079D01*
X006483Y014007D01*
X006617Y013872D01*
X006690Y013696D01*
X006690Y013506D01*
X006617Y013330D01*
X006483Y013195D01*
X006307Y013122D01*
X005639Y013122D01*
X005463Y013195D01*
X005377Y013281D01*
X003858Y013281D01*
X003793Y013216D01*
X003793Y010037D01*
X003744Y009919D01*
X003654Y009829D01*
X003536Y009781D01*
X003409Y009781D01*
X002658Y009781D01*
X002744Y009745D01*
X002878Y009611D01*
X002951Y009435D01*
X002951Y009421D01*
X003494Y009421D01*
X003494Y009435D01*
X003567Y009611D01*
X003701Y009745D01*
X003877Y009818D01*
X004068Y009818D01*
X004188Y009769D01*
X004701Y010282D01*
X004770Y010351D01*
X004701Y010419D01*
X004653Y010537D01*
X004653Y012195D01*
X004640Y012200D01*
X004572Y012268D01*
X004536Y012356D01*
X004536Y012845D01*
X004572Y012934D01*
X004640Y013001D01*
X004728Y013038D01*
X005217Y013038D01*
X005305Y013001D01*
X005373Y012934D01*
X005378Y012922D01*
X005463Y013007D01*
X005639Y013079D01*
X006307Y013079D01*
X006483Y013007D01*
X006617Y012872D01*
X006690Y012696D01*
X006690Y012506D01*
X006617Y012330D01*
X006483Y012195D01*
X006307Y012122D01*
X005639Y012122D01*
X005463Y012195D01*
X005378Y012280D01*
X005373Y012268D01*
X005305Y012200D01*
X005293Y012195D01*
X005293Y011786D01*
X005328Y011872D01*
X005463Y012007D01*
X005639Y012079D01*
X006307Y012079D01*
X006483Y012007D01*
X006617Y011872D01*
X006690Y011696D01*
X006690Y011506D01*
X006617Y011330D01*
X006483Y011195D01*
X006307Y011122D01*
X005639Y011122D01*
X005463Y011195D01*
X005328Y011330D01*
X005293Y011415D01*
X005293Y010921D01*
X010536Y010921D01*
X010536Y011085D01*
X010340Y011281D01*
X009568Y011281D01*
X009483Y011195D01*
X009307Y011122D01*
X008639Y011122D01*
X008463Y011195D01*
X008328Y011330D01*
X008255Y011506D01*
X008255Y011696D01*
X008328Y011872D01*
X008463Y012007D01*
X008639Y012079D01*
X009307Y012079D01*
X009483Y012007D01*
X009568Y011921D01*
X010409Y011921D01*
X010536Y011921D01*
X010654Y011872D01*
X010988Y011538D01*
X011153Y011538D01*
X011153Y011744D01*
X010994Y011902D01*
X010994Y012299D01*
X011274Y012579D01*
X011671Y012579D01*
X011951Y012299D01*
X011951Y011902D01*
X011793Y011744D01*
X011793Y010664D01*
X011793Y010537D01*
X011744Y010419D01*
X011654Y010329D01*
X011536Y010281D01*
X010245Y010281D01*
X010757Y009769D01*
X010877Y009818D01*
X011068Y009818D01*
X011188Y009769D01*
X011791Y010372D01*
X011909Y010421D01*
X012036Y010421D01*
X014567Y010421D01*
X014572Y010434D01*
X014640Y010501D01*
X014728Y010538D01*
X015083Y010538D01*
X014957Y010664D01*
X014728Y010664D01*
X014640Y010700D01*
X014572Y010768D01*
X014536Y010856D01*
X014536Y011345D01*
X014572Y011434D01*
X014640Y011501D01*
X014728Y011538D01*
X015217Y011538D01*
X015305Y011501D01*
X015373Y011434D01*
X015409Y011345D01*
X015409Y011116D01*
X016575Y009951D01*
X016575Y010101D01*
X016972Y010101D01*
X016972Y010101D01*
X016972Y010498D01*
X016808Y010498D01*
X016575Y010265D01*
X016575Y010101D01*
X016972Y010101D01*
X016973Y010101D01*
X017370Y010101D01*
X017370Y010265D01*
X017137Y010498D01*
X016973Y010498D01*
X016973Y010101D01*
X016973Y010101D01*
X017370Y010101D01*
X017370Y009936D01*
X017137Y009703D01*
X016973Y009703D01*
X016973Y010100D01*
X016972Y010100D01*
X016972Y009703D01*
X016823Y009703D01*
X017244Y009282D01*
X017293Y009164D01*
X017293Y009037D01*
X017293Y007421D01*
X017670Y007421D01*
X018064Y007815D01*
X018064Y008263D01*
X018143Y008453D01*
X018289Y008599D01*
X018479Y008678D01*
X018686Y008678D01*
X018876Y008599D01*
X019022Y008453D01*
X019101Y008263D01*
X019101Y007499D01*
X019022Y007308D01*
X018876Y007162D01*
X018686Y007083D01*
X018479Y007083D01*
X018308Y007154D01*
X018074Y006919D01*
X017984Y006829D01*
X017866Y006781D01*
X017293Y006781D01*
X017293Y006421D01*
X017866Y006421D01*
X017984Y006372D01*
X018074Y006282D01*
X018308Y006047D01*
X018479Y006118D01*
X018686Y006118D01*
X018876Y006039D01*
X019022Y005893D01*
X019101Y005703D01*
X019101Y004939D01*
X019022Y004748D01*
X018876Y004602D01*
X018686Y004523D01*
X018479Y004523D01*
X018289Y004602D01*
X018143Y004748D01*
X018064Y004939D01*
X018064Y005387D01*
X017670Y005781D01*
X017293Y005781D01*
X017293Y005102D01*
X017293Y005100D01*
X017293Y005038D01*
X017293Y004977D01*
X017292Y004975D01*
X017292Y004973D01*
X017267Y004916D01*
X017244Y004859D01*
X017242Y004858D01*
X017241Y004856D01*
X017198Y004814D01*
X017154Y004769D01*
X017152Y004769D01*
X014918Y002594D01*
X014654Y002329D01*
X014536Y002281D01*
X014409Y002281D01*
X012858Y002281D01*
X012679Y002102D01*
X012266Y002102D01*
X011974Y002394D01*
X011974Y002807D01*
X012266Y003099D01*
X012679Y003099D01*
X012858Y002921D01*
X014340Y002921D01*
X014423Y003004D01*
X014424Y003006D01*
X014467Y003048D01*
X014511Y003092D01*
X014513Y003093D01*
X015850Y004395D01*
X015701Y004456D01*
X015567Y004591D01*
X015494Y004767D01*
X015494Y004781D01*
X015105Y004781D01*
X013744Y003419D01*
X013654Y003329D01*
X013536Y003281D01*
X011793Y003281D01*
X011793Y002986D01*
X011971Y002807D01*
X011971Y002394D01*
X011679Y002102D01*
X011266Y002102D01*
X010974Y002394D01*
X010974Y002807D01*
X011153Y002986D01*
X011153Y003664D01*
X011201Y003782D01*
X011291Y003872D01*
X011409Y003921D01*
X011536Y003921D01*
X013340Y003921D01*
X013824Y004405D01*
X013701Y004456D01*
X013567Y004591D01*
X013494Y004767D01*
X013494Y004781D01*
X012951Y004781D01*
X012951Y004767D01*
X012878Y004591D01*
X012744Y004456D01*
X012568Y004383D01*
X012377Y004383D01*
X012201Y004456D01*
X012067Y004591D01*
X011994Y004767D01*
X011994Y004781D01*
X011451Y004781D01*
X011451Y004767D01*
X011378Y004591D01*
X011244Y004456D01*
X011068Y004383D01*
X010894Y004383D01*
X010909Y004345D01*
X010909Y003856D01*
X010873Y003768D01*
X010805Y003700D01*
X010793Y003695D01*
X010793Y002986D01*
X010971Y002807D01*
X010971Y002394D01*
X010679Y002102D01*
X010266Y002102D01*
X009974Y002394D01*
X009974Y002807D01*
X010153Y002986D01*
X010153Y003695D01*
X010140Y003700D01*
X010072Y003768D01*
X010036Y003856D01*
X010036Y004345D01*
X010072Y004434D01*
X010140Y004501D01*
X010228Y004538D01*
X010620Y004538D01*
X010567Y004591D01*
X010494Y004767D01*
X010494Y004781D01*
X009951Y004781D01*
X009951Y004767D01*
X009878Y004591D01*
X009793Y004505D01*
X009793Y002986D01*
X009971Y002807D01*
X009971Y002394D01*
X009679Y002102D01*
X009266Y002102D01*
X008974Y002394D01*
X008974Y002807D01*
X009153Y002986D01*
X009153Y004505D01*
X009067Y004591D01*
X008994Y004767D01*
X008994Y005435D01*
X009067Y005611D01*
X009201Y005745D01*
X009377Y005818D01*
X009568Y005818D01*
X009744Y005745D01*
X009878Y005611D01*
X009951Y005435D01*
X009951Y005421D01*
X010494Y005421D01*
X010494Y005435D01*
X010567Y005611D01*
X010701Y005745D01*
X010877Y005818D01*
X011068Y005818D01*
X011244Y005745D01*
X011378Y005611D01*
X011451Y005435D01*
X011451Y005421D01*
X011994Y005421D01*
X011994Y005435D01*
X012067Y005611D01*
X012201Y005745D01*
X012377Y005818D01*
X012568Y005818D01*
X012744Y005745D01*
X012878Y005611D01*
X012951Y005435D01*
X012951Y005421D01*
X013494Y005421D01*
X013494Y005435D01*
X013567Y005611D01*
X013701Y005745D01*
X013877Y005818D01*
X014068Y005818D01*
X014244Y005745D01*
X014378Y005611D01*
X014451Y005435D01*
X014451Y005032D01*
X014653Y005233D01*
X014653Y007968D01*
X014188Y008433D01*
X014068Y008383D01*
X013877Y008383D01*
X013701Y008456D01*
X013567Y008591D01*
X013494Y008767D01*
X013494Y008781D01*
X012951Y008781D01*
X012951Y008767D01*
X012878Y008591D01*
X012744Y008456D01*
X012568Y008383D01*
X012377Y008383D01*
X012201Y008456D01*
X012067Y008591D01*
X011994Y008767D01*
X011994Y009435D01*
X012067Y009611D01*
X012201Y009745D01*
X012287Y009781D01*
X012105Y009781D01*
X011451Y009127D01*
X011451Y008767D01*
X011378Y008591D01*
X011244Y008456D01*
X011068Y008383D01*
X010877Y008383D01*
X010701Y008456D01*
X010567Y008591D01*
X010494Y008767D01*
X010494Y009127D01*
X009840Y009781D01*
X009658Y009781D01*
X009744Y009745D01*
X009878Y009611D01*
X009951Y009435D01*
X009951Y008767D01*
X009878Y008591D01*
X009744Y008456D01*
X009568Y008383D01*
X009377Y008383D01*
X009257Y008433D01*
X008793Y007968D01*
X008793Y006037D01*
X008744Y005919D01*
X008654Y005829D01*
X008654Y005829D01*
X007951Y005127D01*
X007951Y004767D01*
X007878Y004591D01*
X007793Y004505D01*
X007793Y002986D01*
X007971Y002807D01*
X007971Y002394D01*
X007679Y002102D01*
X007266Y002102D01*
X006974Y002394D01*
X006974Y002807D01*
X007153Y002986D01*
X007153Y004505D01*
X007067Y004591D01*
X006994Y004767D01*
X006994Y004781D01*
X005951Y004781D01*
X005951Y004767D01*
X005878Y004591D01*
X005744Y004456D01*
X005568Y004383D01*
X005377Y004383D01*
X005201Y004456D01*
X005067Y004591D01*
X004994Y004767D01*
X004994Y004781D01*
X004451Y004781D01*
X004451Y004767D01*
X004378Y004591D01*
X004244Y004456D01*
X004068Y004383D01*
X003877Y004383D01*
X003701Y004456D01*
X003567Y004591D01*
X003494Y004767D01*
X003494Y005435D01*
X003567Y005611D01*
X003701Y005745D01*
X003877Y005818D01*
X004068Y005818D01*
X004244Y005745D01*
X004378Y005611D01*
X004451Y005435D01*
X004451Y005421D01*
X004994Y005421D01*
X004994Y005435D01*
X005067Y005611D01*
X005201Y005745D01*
X005377Y005818D01*
X005568Y005818D01*
X005744Y005745D01*
X005878Y005611D01*
X005951Y005435D01*
X005951Y005421D01*
X006994Y005421D01*
X006994Y005435D01*
X007067Y005611D01*
X007201Y005745D01*
X007377Y005818D01*
X007568Y005818D01*
X007688Y005769D01*
X008153Y006233D01*
X008153Y008037D01*
X008153Y008164D01*
X008201Y008282D01*
X008583Y008664D01*
X008228Y008664D01*
X008140Y008700D01*
X008072Y008768D01*
X008067Y008781D01*
X007951Y008781D01*
X007951Y008767D01*
X007878Y008591D01*
X007744Y008456D01*
X007568Y008383D01*
X007377Y008383D01*
X007201Y008456D01*
X007067Y008591D01*
X006994Y008767D01*
X006994Y009435D01*
X007067Y009611D01*
X007201Y009745D01*
X007287Y009781D01*
X005658Y009781D01*
X005744Y009745D01*
X005878Y009611D01*
X005951Y009435D01*
X005951Y009421D01*
X006067Y009421D01*
X006072Y009434D01*
X006140Y009501D01*
X006228Y009538D01*
X006717Y009538D01*
X006805Y009501D01*
X006873Y009434D01*
X006909Y009345D01*
X006909Y008856D01*
X006873Y008768D01*
X006805Y008700D01*
X006717Y008664D01*
X006228Y008664D01*
X006140Y008700D01*
X006072Y008768D01*
X006067Y008781D01*
X005951Y008781D01*
X005951Y008767D01*
X005878Y008591D01*
X005744Y008456D01*
X005568Y008383D01*
X005377Y008383D01*
X005201Y008456D01*
X005067Y008591D01*
X004994Y008767D01*
X004994Y009435D01*
X005067Y009611D01*
X005201Y009745D01*
X005287Y009781D01*
X005105Y009781D01*
X004451Y009127D01*
X004451Y008767D01*
X004378Y008591D01*
X004244Y008456D01*
X004068Y008383D01*
X003877Y008383D01*
X003701Y008456D01*
X003567Y008591D01*
X003494Y008767D01*
X003494Y008781D01*
X002951Y008781D01*
X002951Y008767D01*
X002878Y008591D01*
X002744Y008456D01*
X002568Y008383D01*
X002377Y008383D01*
X002201Y008456D01*
X002067Y008591D01*
X001994Y008767D01*
X001994Y009435D01*
X002067Y009611D01*
X002201Y009745D01*
X002287Y009781D01*
X001793Y009781D01*
X001793Y006233D01*
X002257Y005769D01*
X002377Y005818D01*
X002568Y005818D01*
X002744Y005745D01*
X002878Y005611D01*
X002951Y005435D01*
X002951Y005075D01*
X004105Y003921D01*
X005536Y003921D01*
X005654Y003872D01*
X005744Y003782D01*
X005793Y003664D01*
X005793Y003537D01*
X005793Y002986D01*
X005971Y002807D01*
X005971Y002394D01*
X005679Y002102D01*
X005266Y002102D01*
X004974Y002394D01*
X004974Y002807D01*
X005153Y002986D01*
X005153Y003281D01*
X004293Y003281D01*
X004473Y003101D01*
X004473Y000483D01*
X017973Y000483D01*
X020973Y003601D01*
X020973Y009227D01*
X020875Y009129D01*
X020614Y009021D01*
X020331Y009021D01*
X020070Y009129D01*
X019871Y009329D01*
X019763Y009589D01*
X019763Y009872D01*
X019871Y010133D01*
X020070Y010333D01*
X020331Y010441D01*
X020614Y010441D01*
X020875Y010333D01*
X020973Y010235D01*
X020973Y013967D01*
X020875Y013869D01*
X020614Y013761D01*
X020331Y013761D01*
X020070Y013869D01*
X019871Y014069D01*
X019763Y014330D01*
X019763Y014612D01*
X019871Y014873D01*
X020070Y015073D01*
X020331Y015181D01*
X020614Y015181D01*
X020875Y015073D01*
X020973Y014975D01*
X020973Y016034D01*
X011040Y016034D01*
X009973Y017101D01*
X010167Y016906D02*
X009384Y016906D01*
X009373Y016934D02*
X009305Y017001D01*
X009217Y017038D01*
X008728Y017038D01*
X008640Y017001D01*
X008572Y016934D01*
X008536Y016845D01*
X008536Y016356D01*
X008572Y016268D01*
X008640Y016200D01*
X008728Y016164D01*
X008957Y016164D01*
X011153Y013968D01*
X011153Y013958D01*
X010994Y013799D01*
X010994Y013402D01*
X011274Y013122D01*
X011671Y013122D01*
X011951Y013402D01*
X011951Y013799D01*
X011793Y013958D01*
X011793Y014037D01*
X011793Y014164D01*
X011744Y014282D01*
X011404Y014622D01*
X011671Y014622D01*
X011951Y014902D01*
X011951Y015299D01*
X011671Y015579D01*
X011274Y015579D01*
X010994Y015299D01*
X010994Y015032D01*
X009409Y016616D01*
X009409Y016845D01*
X009373Y016934D01*
X009409Y016748D02*
X010326Y016748D01*
X010484Y016589D02*
X009437Y016589D01*
X009595Y016431D02*
X010643Y016431D01*
X010801Y016272D02*
X009754Y016272D01*
X009912Y016114D02*
X010960Y016114D01*
X010388Y015638D02*
X016075Y015638D01*
X016075Y015601D02*
X016472Y015601D01*
X016472Y015601D01*
X016472Y015998D01*
X016308Y015998D01*
X016075Y015765D01*
X016075Y015601D01*
X016075Y015436D01*
X016308Y015203D01*
X016472Y015203D01*
X016472Y015600D01*
X016473Y015600D01*
X016473Y015203D01*
X016637Y015203D01*
X016870Y015436D01*
X016870Y015601D01*
X016870Y015765D01*
X016637Y015998D01*
X016473Y015998D01*
X016473Y015601D01*
X016870Y015601D01*
X016473Y015601D01*
X016473Y015601D01*
X016472Y015601D01*
X016075Y015601D01*
X016075Y015479D02*
X015771Y015479D01*
X015671Y015579D02*
X015951Y015299D01*
X015951Y014902D01*
X015793Y014744D01*
X015793Y013958D01*
X015830Y013921D01*
X016116Y013921D01*
X016274Y014079D01*
X016671Y014079D01*
X016951Y013799D01*
X016951Y013728D01*
X018113Y012567D01*
X018113Y012802D01*
X018298Y012988D01*
X018298Y014781D01*
X017878Y014781D01*
X017873Y014768D01*
X017805Y014700D01*
X017717Y014664D01*
X017228Y014664D01*
X017140Y014700D01*
X017072Y014768D01*
X017036Y014856D01*
X017036Y015345D01*
X017072Y015434D01*
X017140Y015501D01*
X017228Y015538D01*
X017717Y015538D01*
X017805Y015501D01*
X017873Y015434D01*
X017878Y015421D01*
X018682Y015421D01*
X018800Y015372D01*
X018890Y015282D01*
X018938Y015164D01*
X018938Y015037D01*
X018938Y012988D01*
X019069Y012857D01*
X019230Y013017D01*
X019392Y013017D01*
X019392Y012607D01*
X019419Y012607D01*
X019419Y013017D01*
X019581Y013017D01*
X019830Y012769D01*
X019830Y012606D01*
X019419Y012606D01*
X019419Y012579D01*
X019419Y012168D01*
X019581Y012168D01*
X019830Y012417D01*
X019830Y012579D01*
X019419Y012579D01*
X019392Y012579D01*
X019392Y012168D01*
X019230Y012168D01*
X019069Y012329D01*
X018841Y012101D01*
X019012Y011930D01*
X019196Y012114D01*
X019615Y012114D01*
X019911Y011818D01*
X019911Y011399D01*
X019753Y011241D01*
X019753Y010537D01*
X019704Y010419D01*
X019614Y010329D01*
X019497Y010281D01*
X019370Y010281D01*
X018409Y010281D01*
X018291Y010329D01*
X018201Y010419D01*
X016999Y011622D01*
X016774Y011622D01*
X016616Y011781D01*
X015830Y011781D01*
X015671Y011622D01*
X015274Y011622D01*
X014994Y011902D01*
X014994Y012299D01*
X015274Y012579D01*
X015671Y012579D01*
X015830Y012421D01*
X016616Y012421D01*
X016774Y012579D01*
X017171Y012579D01*
X017451Y012299D01*
X017451Y012075D01*
X018113Y011413D01*
X018113Y011662D01*
X016652Y013122D01*
X016274Y013122D01*
X016116Y013281D01*
X015830Y013281D01*
X015671Y013122D01*
X015274Y013122D01*
X014994Y013402D01*
X014994Y013799D01*
X015153Y013958D01*
X015153Y014744D01*
X014994Y014902D01*
X014994Y015299D01*
X015274Y015579D01*
X015671Y015579D01*
X015929Y015321D02*
X016190Y015321D01*
X016472Y015321D02*
X016473Y015321D01*
X016472Y015479D02*
X016473Y015479D01*
X016472Y015638D02*
X016473Y015638D01*
X016472Y015797D02*
X016473Y015797D01*
X016472Y015955D02*
X016473Y015955D01*
X016680Y015955D02*
X020973Y015955D01*
X020973Y015797D02*
X016839Y015797D01*
X016870Y015638D02*
X020973Y015638D01*
X020973Y015479D02*
X017827Y015479D01*
X017473Y015101D02*
X018618Y015101D01*
X018618Y012593D01*
X018253Y012943D02*
X017737Y012943D01*
X017895Y012784D02*
X018113Y012784D01*
X018113Y012626D02*
X018054Y012626D01*
X018298Y013101D02*
X017578Y013101D01*
X017420Y013260D02*
X018298Y013260D01*
X018298Y013418D02*
X017261Y013418D01*
X017102Y013577D02*
X018298Y013577D01*
X018298Y013736D02*
X016951Y013736D01*
X016856Y013894D02*
X018298Y013894D01*
X018298Y014053D02*
X016698Y014053D01*
X016247Y014053D02*
X015793Y014053D01*
X015793Y014211D02*
X018298Y014211D01*
X018298Y014370D02*
X015793Y014370D01*
X015793Y014528D02*
X018298Y014528D01*
X018298Y014687D02*
X017772Y014687D01*
X017173Y014687D02*
X015793Y014687D01*
X015894Y014845D02*
X017040Y014845D01*
X017036Y015004D02*
X015951Y015004D01*
X015951Y015162D02*
X017036Y015162D01*
X017036Y015321D02*
X016755Y015321D01*
X016870Y015479D02*
X017118Y015479D01*
X016265Y015955D02*
X010071Y015955D01*
X010229Y015797D02*
X016106Y015797D01*
X015473Y015101D02*
X015473Y013601D01*
X016473Y013601D01*
X016626Y013601D01*
X018618Y011609D01*
X018951Y011992D02*
X019073Y011992D01*
X018891Y012150D02*
X020973Y012150D01*
X020973Y011992D02*
X019738Y011992D01*
X019896Y011833D02*
X020973Y011833D01*
X020973Y011674D02*
X019911Y011674D01*
X019911Y011516D02*
X020973Y011516D01*
X020973Y011357D02*
X019870Y011357D01*
X019753Y011199D02*
X020973Y011199D01*
X020973Y011040D02*
X019753Y011040D01*
X019753Y010882D02*
X020973Y010882D01*
X020973Y010723D02*
X019753Y010723D01*
X019753Y010565D02*
X020973Y010565D01*
X020973Y010406D02*
X020697Y010406D01*
X020960Y010248D02*
X020973Y010248D01*
X020248Y010406D02*
X019691Y010406D01*
X019433Y010601D02*
X019433Y011581D01*
X019406Y011609D01*
X019392Y012309D02*
X019419Y012309D01*
X019419Y012467D02*
X019392Y012467D01*
X019392Y012626D02*
X019419Y012626D01*
X019419Y012784D02*
X019392Y012784D01*
X019392Y012943D02*
X019419Y012943D01*
X019656Y012943D02*
X020973Y012943D01*
X020973Y013101D02*
X018938Y013101D01*
X018938Y013260D02*
X020973Y013260D01*
X020973Y013418D02*
X018938Y013418D01*
X018938Y013577D02*
X020973Y013577D01*
X020973Y013736D02*
X018938Y013736D01*
X018938Y013894D02*
X020045Y013894D01*
X019887Y014053D02*
X018938Y014053D01*
X018938Y014211D02*
X019812Y014211D01*
X019763Y014370D02*
X018938Y014370D01*
X018938Y014528D02*
X019763Y014528D01*
X019794Y014687D02*
X018938Y014687D01*
X018938Y014845D02*
X019859Y014845D01*
X020002Y015004D02*
X018938Y015004D01*
X018938Y015162D02*
X020287Y015162D01*
X020658Y015162D02*
X020973Y015162D01*
X020973Y015004D02*
X020944Y015004D01*
X020973Y015321D02*
X018851Y015321D01*
X020900Y013894D02*
X020973Y013894D01*
X020973Y012784D02*
X019815Y012784D01*
X019830Y012626D02*
X020973Y012626D01*
X020973Y012467D02*
X019830Y012467D01*
X019722Y012309D02*
X020973Y012309D01*
X019090Y012309D02*
X019049Y012309D01*
X018984Y012943D02*
X019155Y012943D01*
X017783Y011992D02*
X017534Y011992D01*
X017451Y012150D02*
X017624Y012150D01*
X017466Y012309D02*
X017442Y012309D01*
X017307Y012467D02*
X017283Y012467D01*
X017149Y012626D02*
X010409Y012626D01*
X010409Y012784D02*
X016990Y012784D01*
X016832Y012943D02*
X010364Y012943D01*
X010373Y012934D02*
X010305Y013001D01*
X010217Y013038D01*
X009728Y013038D01*
X009640Y013001D01*
X009572Y012934D01*
X009567Y012922D01*
X009483Y013007D01*
X009307Y013079D01*
X008639Y013079D01*
X008463Y013007D01*
X008328Y012872D01*
X008255Y012696D01*
X008255Y012506D01*
X008328Y012330D01*
X008463Y012195D01*
X008639Y012122D01*
X009307Y012122D01*
X009483Y012195D01*
X009567Y012280D01*
X009572Y012268D01*
X009640Y012200D01*
X009728Y012164D01*
X010217Y012164D01*
X010305Y012200D01*
X010373Y012268D01*
X010409Y012356D01*
X010409Y012845D01*
X010373Y012934D01*
X010305Y013200D02*
X010373Y013268D01*
X010409Y013356D01*
X010409Y013845D01*
X010373Y013934D01*
X010305Y014001D01*
X010217Y014038D01*
X009728Y014038D01*
X009640Y014001D01*
X009572Y013934D01*
X009567Y013922D01*
X009483Y014007D01*
X009307Y014079D01*
X008639Y014079D01*
X008463Y014007D01*
X008328Y013872D01*
X008255Y013696D01*
X008255Y013506D01*
X008328Y013330D01*
X008463Y013195D01*
X008639Y013122D01*
X009307Y013122D01*
X009483Y013195D01*
X009567Y013280D01*
X009572Y013268D01*
X009640Y013200D01*
X009728Y013164D01*
X010217Y013164D01*
X010305Y013200D01*
X010365Y013260D02*
X011136Y013260D01*
X010994Y013418D02*
X010409Y013418D01*
X010409Y013577D02*
X010994Y013577D01*
X010994Y013736D02*
X010409Y013736D01*
X010389Y013894D02*
X011089Y013894D01*
X011068Y014053D02*
X009372Y014053D01*
X009327Y014219D02*
X009400Y014249D01*
X009465Y014292D01*
X009520Y014347D01*
X009564Y014412D01*
X009594Y014485D01*
X009609Y014562D01*
X009609Y014601D01*
X009609Y014640D01*
X009594Y014717D01*
X009564Y014789D01*
X009520Y014854D01*
X009465Y014909D01*
X009400Y014953D01*
X009327Y014983D01*
X009250Y014998D01*
X008973Y014998D01*
X008973Y014601D01*
X009609Y014601D01*
X008973Y014601D01*
X008973Y014601D01*
X008972Y014601D01*
X008972Y014601D01*
X008336Y014601D01*
X008336Y014640D01*
X008352Y014717D01*
X008382Y014789D01*
X008425Y014854D01*
X008480Y014909D01*
X008546Y014953D01*
X008618Y014983D01*
X008695Y014998D01*
X008972Y014998D01*
X008972Y014601D01*
X008336Y014601D01*
X008336Y014562D01*
X008352Y014485D01*
X008382Y014412D01*
X008425Y014347D01*
X008480Y014292D01*
X008546Y014249D01*
X008618Y014219D01*
X008695Y014203D01*
X008972Y014203D01*
X008972Y014600D01*
X008973Y014600D01*
X008973Y014203D01*
X009250Y014203D01*
X009327Y014219D01*
X009290Y014211D02*
X010910Y014211D01*
X010751Y014370D02*
X009535Y014370D01*
X009602Y014528D02*
X010593Y014528D01*
X010434Y014687D02*
X009599Y014687D01*
X009526Y014845D02*
X010275Y014845D01*
X010117Y015004D02*
X006485Y015004D01*
X006628Y014845D02*
X008419Y014845D01*
X008346Y014687D02*
X006690Y014687D01*
X006690Y014528D02*
X008343Y014528D01*
X008410Y014370D02*
X006634Y014370D01*
X006499Y014211D02*
X008655Y014211D01*
X008574Y014053D02*
X006372Y014053D01*
X006595Y013894D02*
X008350Y013894D01*
X008271Y013736D02*
X006674Y013736D01*
X006690Y013577D02*
X008255Y013577D01*
X008291Y013418D02*
X006654Y013418D01*
X006547Y013260D02*
X008398Y013260D01*
X008399Y012943D02*
X006546Y012943D01*
X006654Y012784D02*
X008292Y012784D01*
X008255Y012626D02*
X006690Y012626D01*
X006674Y012467D02*
X008271Y012467D01*
X008349Y012309D02*
X006596Y012309D01*
X006374Y012150D02*
X008571Y012150D01*
X008448Y011992D02*
X006498Y011992D01*
X006633Y011833D02*
X008312Y011833D01*
X008255Y011674D02*
X006690Y011674D01*
X006690Y011516D02*
X008255Y011516D01*
X008316Y011357D02*
X006629Y011357D01*
X006486Y011199D02*
X008459Y011199D01*
X008973Y011601D02*
X010473Y011601D01*
X010973Y011101D01*
X010536Y011040D02*
X005293Y011040D01*
X005293Y011199D02*
X005459Y011199D01*
X005316Y011357D02*
X005293Y011357D01*
X005293Y011833D02*
X005312Y011833D01*
X005293Y011992D02*
X005448Y011992D01*
X005571Y012150D02*
X005293Y012150D01*
X004973Y012601D02*
X004973Y010601D01*
X011473Y010601D01*
X011473Y012101D01*
X011783Y012467D02*
X015162Y012467D01*
X015003Y012309D02*
X011942Y012309D01*
X011951Y012150D02*
X014994Y012150D01*
X014994Y011992D02*
X011951Y011992D01*
X011882Y011833D02*
X015063Y011833D01*
X015222Y011674D02*
X011793Y011674D01*
X011793Y011516D02*
X014676Y011516D01*
X014541Y011357D02*
X011793Y011357D01*
X011793Y011199D02*
X014536Y011199D01*
X014536Y011040D02*
X011793Y011040D01*
X011793Y010882D02*
X014536Y010882D01*
X014617Y010723D02*
X011793Y010723D01*
X011793Y010565D02*
X015056Y010565D01*
X014973Y010101D02*
X015973Y009101D01*
X016973Y009101D02*
X014973Y011101D01*
X015409Y011199D02*
X017422Y011199D01*
X017263Y011357D02*
X015404Y011357D01*
X015270Y011516D02*
X017105Y011516D01*
X016722Y011674D02*
X015723Y011674D01*
X015473Y012101D02*
X016973Y012101D01*
X018473Y010601D01*
X019433Y010601D01*
X019985Y010248D02*
X017370Y010248D01*
X017370Y010089D02*
X019853Y010089D01*
X019787Y009930D02*
X017364Y009930D01*
X017206Y009772D02*
X019763Y009772D01*
X019763Y009613D02*
X016913Y009613D01*
X016972Y009772D02*
X016973Y009772D01*
X016972Y009930D02*
X016973Y009930D01*
X016972Y010089D02*
X016973Y010089D01*
X016972Y010248D02*
X016973Y010248D01*
X016972Y010406D02*
X016973Y010406D01*
X017229Y010406D02*
X018215Y010406D01*
X018056Y010565D02*
X015961Y010565D01*
X015803Y010723D02*
X017898Y010723D01*
X017739Y010882D02*
X015644Y010882D01*
X015486Y011040D02*
X017581Y011040D01*
X018010Y011516D02*
X018113Y011516D01*
X018100Y011674D02*
X017851Y011674D01*
X017941Y011833D02*
X017693Y011833D01*
X016662Y012467D02*
X015783Y012467D01*
X016673Y013101D02*
X003793Y013101D01*
X003793Y012943D02*
X004581Y012943D01*
X004536Y012784D02*
X003793Y012784D01*
X003793Y012626D02*
X004536Y012626D01*
X004536Y012467D02*
X003793Y012467D01*
X003793Y012309D02*
X004555Y012309D01*
X004653Y012150D02*
X003793Y012150D01*
X003793Y011992D02*
X004653Y011992D01*
X004653Y011833D02*
X003793Y011833D01*
X003793Y011674D02*
X004653Y011674D01*
X004653Y011516D02*
X003793Y011516D01*
X003793Y011357D02*
X004653Y011357D01*
X004653Y011199D02*
X003793Y011199D01*
X003793Y011040D02*
X004653Y011040D01*
X004653Y010882D02*
X003793Y010882D01*
X003793Y010723D02*
X004653Y010723D01*
X004653Y010565D02*
X003793Y010565D01*
X003793Y010406D02*
X004715Y010406D01*
X004667Y010248D02*
X003793Y010248D01*
X003793Y010089D02*
X004508Y010089D01*
X004350Y009930D02*
X003748Y009930D01*
X003766Y009772D02*
X002680Y009772D01*
X002876Y009613D02*
X003569Y009613D01*
X003502Y009455D02*
X002943Y009455D01*
X002473Y009101D02*
X003973Y009101D01*
X004973Y010101D01*
X009973Y010101D01*
X010973Y009101D01*
X011973Y010101D01*
X014973Y010101D01*
X016120Y010406D02*
X016716Y010406D01*
X016575Y010248D02*
X016278Y010248D01*
X016437Y010089D02*
X016575Y010089D01*
X017071Y009455D02*
X019818Y009455D01*
X019903Y009296D02*
X017230Y009296D01*
X017293Y009138D02*
X020062Y009138D01*
X020260Y008586D02*
X020195Y008565D01*
X020133Y008534D01*
X020078Y008493D01*
X020029Y008444D01*
X019988Y008389D01*
X019957Y008327D01*
X019936Y008262D01*
X019925Y008194D01*
X019925Y007901D01*
X020342Y007901D01*
X020342Y007861D01*
X019925Y007861D01*
X019925Y007568D01*
X019936Y007500D01*
X019957Y007434D01*
X019988Y007373D01*
X020029Y007317D01*
X020078Y007268D01*
X020133Y007228D01*
X020195Y007197D01*
X020260Y007175D01*
X020328Y007165D01*
X020343Y007165D01*
X020343Y007861D01*
X020383Y007861D01*
X020383Y007901D01*
X020800Y007901D01*
X020800Y008194D01*
X020789Y008262D01*
X020768Y008327D01*
X020737Y008389D01*
X020696Y008444D01*
X020648Y008493D01*
X020592Y008534D01*
X020531Y008565D01*
X020465Y008586D01*
X020397Y008597D01*
X020383Y008597D01*
X020383Y007901D01*
X020343Y007901D01*
X020343Y008597D01*
X020328Y008597D01*
X020260Y008586D01*
X020343Y008504D02*
X020383Y008504D01*
X020383Y008345D02*
X020343Y008345D01*
X020343Y008186D02*
X020383Y008186D01*
X020383Y008028D02*
X020343Y008028D01*
X020342Y007869D02*
X019101Y007869D01*
X019101Y007711D02*
X019925Y007711D01*
X019928Y007552D02*
X019101Y007552D01*
X019058Y007394D02*
X019978Y007394D01*
X020123Y007235D02*
X018949Y007235D01*
X018231Y007077D02*
X020973Y007077D01*
X020973Y007235D02*
X020602Y007235D01*
X020592Y007228D02*
X020648Y007268D01*
X020696Y007317D01*
X020737Y007373D01*
X020768Y007434D01*
X020789Y007500D01*
X020800Y007568D01*
X020800Y007861D01*
X020383Y007861D01*
X020383Y007165D01*
X020397Y007165D01*
X020465Y007175D01*
X020531Y007197D01*
X020592Y007228D01*
X020383Y007235D02*
X020343Y007235D01*
X020343Y007394D02*
X020383Y007394D01*
X020383Y007552D02*
X020343Y007552D01*
X020343Y007711D02*
X020383Y007711D01*
X020383Y007869D02*
X020973Y007869D01*
X020973Y007711D02*
X020800Y007711D01*
X020798Y007552D02*
X020973Y007552D01*
X020973Y007394D02*
X020747Y007394D01*
X020973Y006918D02*
X018073Y006918D01*
X017803Y007101D02*
X016973Y007101D01*
X016973Y009101D01*
X017293Y008979D02*
X020973Y008979D01*
X020973Y008821D02*
X017293Y008821D01*
X017293Y008662D02*
X018441Y008662D01*
X018193Y008504D02*
X017293Y008504D01*
X017293Y008345D02*
X018098Y008345D01*
X018064Y008186D02*
X017293Y008186D01*
X017293Y008028D02*
X018064Y008028D01*
X018064Y007869D02*
X017293Y007869D01*
X017293Y007711D02*
X017960Y007711D01*
X017802Y007552D02*
X017293Y007552D01*
X016973Y007101D02*
X016973Y006101D01*
X017803Y006101D01*
X018583Y005321D01*
X019101Y005333D02*
X020342Y005333D01*
X020342Y005341D02*
X020342Y005301D01*
X019925Y005301D01*
X019925Y005008D01*
X019936Y004940D01*
X019957Y004874D01*
X019988Y004813D01*
X020029Y004757D01*
X020078Y004708D01*
X020133Y004668D01*
X020195Y004637D01*
X020260Y004615D01*
X020328Y004605D01*
X020343Y004605D01*
X020343Y005301D01*
X020383Y005301D01*
X020383Y005341D01*
X020800Y005341D01*
X020800Y005634D01*
X020789Y005702D01*
X020768Y005767D01*
X020737Y005829D01*
X020696Y005884D01*
X020648Y005933D01*
X020592Y005974D01*
X020531Y006005D01*
X020465Y006026D01*
X020397Y006037D01*
X020383Y006037D01*
X020383Y005341D01*
X020343Y005341D01*
X020343Y006037D01*
X020328Y006037D01*
X020260Y006026D01*
X020195Y006005D01*
X020133Y005974D01*
X020078Y005933D01*
X020029Y005884D01*
X019988Y005829D01*
X019957Y005767D01*
X019936Y005702D01*
X019925Y005634D01*
X019925Y005341D01*
X020342Y005341D01*
X020383Y005333D02*
X020973Y005333D01*
X020973Y005491D02*
X020800Y005491D01*
X020798Y005650D02*
X020973Y005650D01*
X020973Y005808D02*
X020747Y005808D01*
X020601Y005967D02*
X020973Y005967D01*
X020973Y006125D02*
X018230Y006125D01*
X018072Y006284D02*
X020973Y006284D01*
X020973Y006443D02*
X017293Y006443D01*
X017293Y006601D02*
X020973Y006601D01*
X020973Y006760D02*
X017293Y006760D01*
X017803Y007101D02*
X018583Y007881D01*
X019101Y008028D02*
X019925Y008028D01*
X019925Y008186D02*
X019101Y008186D01*
X019067Y008345D02*
X019966Y008345D01*
X020092Y008504D02*
X018972Y008504D01*
X018725Y008662D02*
X020973Y008662D01*
X020973Y008504D02*
X020633Y008504D01*
X020759Y008345D02*
X020973Y008345D01*
X020973Y008186D02*
X020800Y008186D01*
X020800Y008028D02*
X020973Y008028D01*
X020973Y009138D02*
X020884Y009138D01*
X016973Y006101D02*
X016973Y005041D01*
X014693Y002821D01*
X014473Y002601D01*
X012473Y002601D01*
X012824Y002955D02*
X014374Y002955D01*
X014534Y003113D02*
X011793Y003113D01*
X011793Y003272D02*
X014697Y003272D01*
X014860Y003430D02*
X013755Y003430D01*
X013913Y003589D02*
X015023Y003589D01*
X015185Y003747D02*
X014072Y003747D01*
X014230Y003906D02*
X015348Y003906D01*
X015511Y004064D02*
X014389Y004064D01*
X014547Y004223D02*
X015674Y004223D01*
X015837Y004381D02*
X014706Y004381D01*
X014864Y004540D02*
X015618Y004540D01*
X015522Y004699D02*
X015023Y004699D01*
X014973Y005101D02*
X013473Y003601D01*
X011473Y003601D01*
X011473Y002601D01*
X011824Y002955D02*
X012121Y002955D01*
X011974Y002796D02*
X011971Y002796D01*
X011971Y002637D02*
X011974Y002637D01*
X011971Y002479D02*
X011974Y002479D01*
X012048Y002320D02*
X011897Y002320D01*
X011739Y002162D02*
X012206Y002162D01*
X012300Y002018D02*
X012055Y001774D01*
X012055Y001611D01*
X012462Y001611D01*
X012462Y001591D01*
X012055Y001591D01*
X012055Y001428D01*
X012300Y001183D01*
X012463Y001183D01*
X012463Y001591D01*
X012483Y001591D01*
X012483Y001611D01*
X012890Y001611D01*
X012890Y001774D01*
X012645Y002018D01*
X012483Y002018D01*
X012483Y001611D01*
X012463Y001611D01*
X012463Y002018D01*
X012300Y002018D01*
X012285Y002003D02*
X011660Y002003D01*
X011645Y002018D02*
X011483Y002018D01*
X011483Y001611D01*
X011890Y001611D01*
X011890Y001774D01*
X011645Y002018D01*
X011483Y002003D02*
X011463Y002003D01*
X011463Y002018D02*
X011300Y002018D01*
X011055Y001774D01*
X011055Y001611D01*
X011462Y001611D01*
X011462Y001591D01*
X011055Y001591D01*
X011055Y001428D01*
X011300Y001183D01*
X011463Y001183D01*
X011463Y001591D01*
X011483Y001591D01*
X011483Y001611D01*
X011463Y001611D01*
X011463Y002018D01*
X011463Y001845D02*
X011483Y001845D01*
X011483Y001686D02*
X011463Y001686D01*
X011483Y001591D02*
X011890Y001591D01*
X011890Y001428D01*
X011645Y001183D01*
X011483Y001183D01*
X011483Y001591D01*
X011483Y001528D02*
X011463Y001528D01*
X011463Y001369D02*
X011483Y001369D01*
X011483Y001211D02*
X011463Y001211D01*
X011272Y001211D02*
X010673Y001211D01*
X010645Y001183D02*
X010890Y001428D01*
X010890Y001591D01*
X010483Y001591D01*
X010483Y001611D01*
X010890Y001611D01*
X010890Y001774D01*
X010645Y002018D01*
X010483Y002018D01*
X010483Y001611D01*
X010463Y001611D01*
X010463Y002018D01*
X010300Y002018D01*
X010055Y001774D01*
X010055Y001611D01*
X010462Y001611D01*
X010462Y001591D01*
X010055Y001591D01*
X010055Y001428D01*
X010300Y001183D01*
X010463Y001183D01*
X010463Y001591D01*
X010483Y001591D01*
X010483Y001183D01*
X010645Y001183D01*
X010483Y001211D02*
X010463Y001211D01*
X010463Y001369D02*
X010483Y001369D01*
X010483Y001528D02*
X010463Y001528D01*
X010463Y001686D02*
X010483Y001686D01*
X010483Y001845D02*
X010463Y001845D01*
X010463Y002003D02*
X010483Y002003D01*
X010660Y002003D02*
X011285Y002003D01*
X011206Y002162D02*
X010739Y002162D01*
X010897Y002320D02*
X011048Y002320D01*
X010974Y002479D02*
X010971Y002479D01*
X010971Y002637D02*
X010974Y002637D01*
X010971Y002796D02*
X010974Y002796D01*
X011121Y002955D02*
X010824Y002955D01*
X010793Y003113D02*
X011153Y003113D01*
X011153Y003272D02*
X010793Y003272D01*
X010793Y003430D02*
X011153Y003430D01*
X011153Y003589D02*
X010793Y003589D01*
X010852Y003747D02*
X011187Y003747D01*
X011373Y003906D02*
X010909Y003906D01*
X010909Y004064D02*
X013484Y004064D01*
X013642Y004223D02*
X010909Y004223D01*
X010894Y004381D02*
X013801Y004381D01*
X013618Y004540D02*
X012828Y004540D01*
X012923Y004699D02*
X013522Y004699D01*
X013973Y005101D02*
X012473Y005101D01*
X010973Y005101D01*
X009473Y005101D01*
X009473Y002601D01*
X009824Y002955D02*
X010121Y002955D01*
X010153Y003113D02*
X009793Y003113D01*
X009793Y003272D02*
X010153Y003272D01*
X010153Y003430D02*
X009793Y003430D01*
X009793Y003589D02*
X010153Y003589D01*
X010093Y003747D02*
X009793Y003747D01*
X009793Y003906D02*
X010036Y003906D01*
X010036Y004064D02*
X009793Y004064D01*
X009793Y004223D02*
X010036Y004223D01*
X010051Y004381D02*
X009793Y004381D01*
X009828Y004540D02*
X010618Y004540D01*
X010522Y004699D02*
X009923Y004699D01*
X010473Y004101D02*
X010473Y002601D01*
X009974Y002637D02*
X009971Y002637D01*
X009971Y002479D02*
X009974Y002479D01*
X010048Y002320D02*
X009897Y002320D01*
X009739Y002162D02*
X010206Y002162D01*
X010285Y002003D02*
X009660Y002003D01*
X009645Y002018D02*
X009483Y002018D01*
X009483Y001611D01*
X009890Y001611D01*
X009890Y001774D01*
X009645Y002018D01*
X009483Y002003D02*
X009463Y002003D01*
X009463Y002018D02*
X009300Y002018D01*
X009055Y001774D01*
X009055Y001611D01*
X009462Y001611D01*
X009462Y001591D01*
X009055Y001591D01*
X009055Y001428D01*
X009300Y001183D01*
X009463Y001183D01*
X009463Y001591D01*
X009483Y001591D01*
X009483Y001611D01*
X009463Y001611D01*
X009463Y002018D01*
X009463Y001845D02*
X009483Y001845D01*
X009483Y001686D02*
X009463Y001686D01*
X009483Y001591D02*
X009890Y001591D01*
X009890Y001428D01*
X009645Y001183D01*
X009483Y001183D01*
X009483Y001591D01*
X009483Y001528D02*
X009463Y001528D01*
X009463Y001369D02*
X009483Y001369D01*
X009483Y001211D02*
X009463Y001211D01*
X009272Y001211D02*
X008673Y001211D01*
X008645Y001183D02*
X008890Y001428D01*
X008890Y001591D01*
X008483Y001591D01*
X008483Y001611D01*
X008890Y001611D01*
X008890Y001774D01*
X008645Y002018D01*
X008483Y002018D01*
X008483Y001611D01*
X008463Y001611D01*
X008463Y002018D01*
X008300Y002018D01*
X008055Y001774D01*
X008055Y001611D01*
X008462Y001611D01*
X008462Y001591D01*
X008055Y001591D01*
X008055Y001428D01*
X008300Y001183D01*
X008463Y001183D01*
X008463Y001591D01*
X008483Y001591D01*
X008483Y001183D01*
X008645Y001183D01*
X008483Y001211D02*
X008463Y001211D01*
X008463Y001369D02*
X008483Y001369D01*
X008483Y001528D02*
X008463Y001528D01*
X008463Y001686D02*
X008483Y001686D01*
X008483Y001845D02*
X008463Y001845D01*
X008463Y002003D02*
X008483Y002003D01*
X008660Y002003D02*
X009285Y002003D01*
X009206Y002162D02*
X008739Y002162D01*
X008679Y002102D02*
X008971Y002394D01*
X008971Y002807D01*
X008793Y002986D01*
X008793Y003695D01*
X008805Y003700D01*
X008873Y003768D01*
X008909Y003856D01*
X008909Y004345D01*
X008873Y004434D01*
X008805Y004501D01*
X008717Y004538D01*
X008228Y004538D01*
X008140Y004501D01*
X008072Y004434D01*
X008036Y004345D01*
X008036Y003856D01*
X008072Y003768D01*
X008140Y003700D01*
X008153Y003695D01*
X008153Y002986D01*
X007974Y002807D01*
X007974Y002394D01*
X008266Y002102D01*
X008679Y002102D01*
X008819Y001845D02*
X009126Y001845D01*
X009055Y001686D02*
X008890Y001686D01*
X008890Y001528D02*
X009055Y001528D01*
X009114Y001369D02*
X008831Y001369D01*
X008272Y001211D02*
X007673Y001211D01*
X007645Y001183D02*
X007890Y001428D01*
X007890Y001591D01*
X007483Y001591D01*
X007483Y001611D01*
X007890Y001611D01*
X007890Y001774D01*
X007645Y002018D01*
X007483Y002018D01*
X007483Y001611D01*
X007463Y001611D01*
X007463Y002018D01*
X007300Y002018D01*
X007055Y001774D01*
X007055Y001611D01*
X007462Y001611D01*
X007462Y001591D01*
X007055Y001591D01*
X007055Y001428D01*
X007300Y001183D01*
X007463Y001183D01*
X007463Y001591D01*
X007483Y001591D01*
X007483Y001183D01*
X007645Y001183D01*
X007483Y001211D02*
X007463Y001211D01*
X007463Y001369D02*
X007483Y001369D01*
X007483Y001528D02*
X007463Y001528D01*
X007463Y001686D02*
X007483Y001686D01*
X007483Y001845D02*
X007463Y001845D01*
X007463Y002003D02*
X007483Y002003D01*
X007660Y002003D02*
X008285Y002003D01*
X008206Y002162D02*
X007739Y002162D01*
X007897Y002320D02*
X008048Y002320D01*
X007974Y002479D02*
X007971Y002479D01*
X007971Y002637D02*
X007974Y002637D01*
X007971Y002796D02*
X007974Y002796D01*
X008121Y002955D02*
X007824Y002955D01*
X007793Y003113D02*
X008153Y003113D01*
X008153Y003272D02*
X007793Y003272D01*
X007793Y003430D02*
X008153Y003430D01*
X008153Y003589D02*
X007793Y003589D01*
X007793Y003747D02*
X008093Y003747D01*
X008036Y003906D02*
X007793Y003906D01*
X007793Y004064D02*
X008036Y004064D01*
X008036Y004223D02*
X007793Y004223D01*
X007793Y004381D02*
X008051Y004381D01*
X007828Y004540D02*
X009118Y004540D01*
X009153Y004381D02*
X008894Y004381D01*
X008909Y004223D02*
X009153Y004223D01*
X009153Y004064D02*
X008909Y004064D01*
X008909Y003906D02*
X009153Y003906D01*
X009153Y003747D02*
X008852Y003747D01*
X008793Y003589D02*
X009153Y003589D01*
X009153Y003430D02*
X008793Y003430D01*
X008793Y003272D02*
X009153Y003272D01*
X009153Y003113D02*
X008793Y003113D01*
X008824Y002955D02*
X009121Y002955D01*
X008974Y002796D02*
X008971Y002796D01*
X008971Y002637D02*
X008974Y002637D01*
X008971Y002479D02*
X008974Y002479D01*
X009048Y002320D02*
X008897Y002320D01*
X008473Y002601D02*
X008473Y004101D01*
X009022Y004699D02*
X007923Y004699D01*
X007951Y004857D02*
X008994Y004857D01*
X008994Y005016D02*
X007951Y005016D01*
X007999Y005174D02*
X008994Y005174D01*
X008994Y005333D02*
X008157Y005333D01*
X008316Y005491D02*
X009017Y005491D01*
X009106Y005650D02*
X008474Y005650D01*
X008633Y005808D02*
X009353Y005808D01*
X009592Y005808D02*
X010853Y005808D01*
X011092Y005808D02*
X012353Y005808D01*
X012592Y005808D02*
X013853Y005808D01*
X014092Y005808D02*
X014653Y005808D01*
X014653Y005650D02*
X014339Y005650D01*
X014428Y005491D02*
X014653Y005491D01*
X014653Y005333D02*
X014451Y005333D01*
X014451Y005174D02*
X014593Y005174D01*
X014973Y005101D02*
X014973Y008101D01*
X013973Y009101D01*
X012473Y009101D01*
X011994Y009138D02*
X011462Y009138D01*
X011451Y008979D02*
X011994Y008979D01*
X011994Y008821D02*
X011451Y008821D01*
X011408Y008662D02*
X012037Y008662D01*
X012154Y008504D02*
X011291Y008504D01*
X010654Y008504D02*
X009791Y008504D01*
X009908Y008662D02*
X010537Y008662D01*
X010494Y008821D02*
X009951Y008821D01*
X009951Y008979D02*
X010494Y008979D01*
X010483Y009138D02*
X009951Y009138D01*
X009951Y009296D02*
X010324Y009296D01*
X010166Y009455D02*
X009943Y009455D01*
X010007Y009613D02*
X009876Y009613D01*
X009849Y009772D02*
X009680Y009772D01*
X010278Y010248D02*
X011667Y010248D01*
X011730Y010406D02*
X011874Y010406D01*
X011508Y010089D02*
X010437Y010089D01*
X010595Y009930D02*
X011350Y009930D01*
X011191Y009772D02*
X011180Y009772D01*
X010766Y009772D02*
X010754Y009772D01*
X011621Y009296D02*
X011994Y009296D01*
X012002Y009455D02*
X011779Y009455D01*
X011938Y009613D02*
X012069Y009613D01*
X012096Y009772D02*
X012266Y009772D01*
X012908Y008662D02*
X013537Y008662D01*
X013654Y008504D02*
X012791Y008504D01*
X014276Y008345D02*
X009169Y008345D01*
X009011Y008186D02*
X014434Y008186D01*
X014593Y008028D02*
X008852Y008028D01*
X008793Y007869D02*
X014653Y007869D01*
X014653Y007711D02*
X008793Y007711D01*
X008793Y007552D02*
X014653Y007552D01*
X014653Y007394D02*
X008793Y007394D01*
X008793Y007235D02*
X014653Y007235D01*
X014653Y007077D02*
X008793Y007077D01*
X008793Y006918D02*
X014653Y006918D01*
X014653Y006760D02*
X008793Y006760D01*
X008793Y006601D02*
X014653Y006601D01*
X014653Y006443D02*
X008793Y006443D01*
X008793Y006284D02*
X014653Y006284D01*
X014653Y006125D02*
X008793Y006125D01*
X008763Y005967D02*
X014653Y005967D01*
X013606Y005650D02*
X012839Y005650D01*
X012928Y005491D02*
X013517Y005491D01*
X012106Y005650D02*
X011339Y005650D01*
X011428Y005491D02*
X012017Y005491D01*
X012022Y004699D02*
X011423Y004699D01*
X011328Y004540D02*
X012118Y004540D01*
X010606Y005650D02*
X009839Y005650D01*
X009928Y005491D02*
X010517Y005491D01*
X008473Y006101D02*
X008473Y008101D01*
X009473Y009101D01*
X008581Y008662D02*
X007908Y008662D01*
X007791Y008504D02*
X008423Y008504D01*
X008264Y008345D02*
X001793Y008345D01*
X001793Y008186D02*
X008162Y008186D01*
X008153Y008028D02*
X001793Y008028D01*
X001793Y007869D02*
X008153Y007869D01*
X008153Y007711D02*
X001793Y007711D01*
X001793Y007552D02*
X008153Y007552D01*
X008153Y007394D02*
X001793Y007394D01*
X001793Y007235D02*
X008153Y007235D01*
X008153Y007077D02*
X001793Y007077D01*
X001793Y006918D02*
X008153Y006918D01*
X008153Y006760D02*
X001793Y006760D01*
X001793Y006601D02*
X008153Y006601D01*
X008153Y006443D02*
X001793Y006443D01*
X001793Y006284D02*
X008153Y006284D01*
X008045Y006125D02*
X001900Y006125D01*
X002059Y005967D02*
X007886Y005967D01*
X007728Y005808D02*
X007592Y005808D01*
X007353Y005808D02*
X005592Y005808D01*
X005353Y005808D02*
X004092Y005808D01*
X003853Y005808D02*
X002592Y005808D01*
X002353Y005808D02*
X002218Y005808D01*
X001788Y005333D02*
X000473Y005333D01*
X000473Y005491D02*
X001630Y005491D01*
X001471Y005650D02*
X000473Y005650D01*
X000473Y005808D02*
X001312Y005808D01*
X001182Y005967D02*
X000473Y005967D01*
X000473Y006125D02*
X001153Y006125D01*
X001153Y006284D02*
X000473Y006284D01*
X000473Y006443D02*
X001153Y006443D01*
X001153Y006601D02*
X000473Y006601D01*
X000473Y006760D02*
X001153Y006760D01*
X001153Y006918D02*
X000473Y006918D01*
X000473Y007077D02*
X001153Y007077D01*
X001153Y007235D02*
X000473Y007235D01*
X000473Y007394D02*
X001153Y007394D01*
X001153Y007552D02*
X000473Y007552D01*
X000473Y007711D02*
X001153Y007711D01*
X001153Y007869D02*
X000473Y007869D01*
X000473Y008028D02*
X001153Y008028D01*
X001153Y008186D02*
X000473Y008186D01*
X000473Y008345D02*
X001153Y008345D01*
X001153Y008504D02*
X000473Y008504D01*
X000473Y008662D02*
X001153Y008662D01*
X001153Y008821D02*
X000473Y008821D01*
X000473Y008979D02*
X001153Y008979D01*
X001153Y009138D02*
X000473Y009138D01*
X000473Y009296D02*
X001153Y009296D01*
X001153Y009455D02*
X000473Y009455D01*
X000473Y009613D02*
X001153Y009613D01*
X001153Y009772D02*
X000473Y009772D01*
X000473Y009930D02*
X001153Y009930D01*
X001153Y010089D02*
X000473Y010089D01*
X000473Y010248D02*
X001187Y010248D01*
X001374Y010406D02*
X000473Y010406D01*
X000473Y010565D02*
X003153Y010565D01*
X003153Y010723D02*
X000473Y010723D01*
X000473Y010882D02*
X003153Y010882D01*
X003153Y011040D02*
X000473Y011040D01*
X000473Y011199D02*
X001040Y011199D01*
X001156Y011083D02*
X000876Y011363D01*
X000876Y011760D01*
X001156Y012040D01*
X001553Y012040D01*
X001833Y011760D01*
X001833Y011363D01*
X001553Y011083D01*
X001156Y011083D01*
X000881Y011357D02*
X000473Y011357D01*
X000473Y011516D02*
X000876Y011516D01*
X000876Y011674D02*
X000473Y011674D01*
X000473Y011833D02*
X000949Y011833D01*
X001108Y011992D02*
X000473Y011992D01*
X000473Y012150D02*
X003153Y012150D01*
X003153Y011992D02*
X001601Y011992D01*
X001760Y011833D02*
X002064Y011833D01*
X001957Y011726D02*
X001957Y011562D01*
X002354Y011562D01*
X002354Y011959D01*
X002190Y011959D01*
X001957Y011726D01*
X001957Y011674D02*
X001833Y011674D01*
X001833Y011516D02*
X001957Y011516D01*
X001957Y011561D02*
X001957Y011397D01*
X002190Y011164D01*
X002354Y011164D01*
X002354Y011561D01*
X001957Y011561D01*
X001996Y011357D02*
X001827Y011357D01*
X001669Y011199D02*
X002155Y011199D01*
X002354Y011199D02*
X002355Y011199D01*
X002355Y011164D02*
X002519Y011164D01*
X002752Y011397D01*
X002752Y011561D01*
X002355Y011561D01*
X002355Y011562D01*
X002354Y011562D01*
X002354Y011561D01*
X002355Y011561D01*
X002355Y011164D01*
X002354Y011357D02*
X002355Y011357D01*
X002354Y011516D02*
X002355Y011516D01*
X002355Y011562D02*
X002752Y011562D01*
X002752Y011726D01*
X002519Y011959D01*
X002355Y011959D01*
X002355Y011562D01*
X002354Y011674D02*
X002355Y011674D01*
X002354Y011833D02*
X002355Y011833D01*
X002645Y011833D02*
X003153Y011833D01*
X003153Y011674D02*
X002752Y011674D01*
X002752Y011516D02*
X003153Y011516D01*
X003153Y011357D02*
X002713Y011357D01*
X002554Y011199D02*
X003153Y011199D01*
X003153Y012309D02*
X000473Y012309D01*
X000473Y012467D02*
X003153Y012467D01*
X003153Y012626D02*
X000473Y012626D01*
X000473Y012784D02*
X003153Y012784D01*
X003153Y012943D02*
X000473Y012943D01*
X000473Y013101D02*
X003153Y013101D01*
X003108Y013260D02*
X002837Y013260D01*
X002971Y013394D02*
X002679Y013102D01*
X002266Y013102D01*
X001974Y013394D01*
X001974Y013807D01*
X002266Y014099D01*
X002679Y014099D01*
X002971Y013807D01*
X002971Y013394D01*
X002971Y013418D02*
X002974Y013418D01*
X002971Y013577D02*
X002974Y013577D01*
X002971Y013736D02*
X002974Y013736D01*
X003061Y013894D02*
X002885Y013894D01*
X002726Y014053D02*
X003219Y014053D01*
X003157Y014211D02*
X002788Y014211D01*
X002947Y014370D02*
X002998Y014370D01*
X002974Y014528D02*
X002971Y014528D01*
X002971Y014687D02*
X002974Y014687D01*
X003012Y014845D02*
X002933Y014845D01*
X002775Y015004D02*
X003170Y015004D01*
X003266Y015102D02*
X003679Y015102D01*
X003858Y015281D01*
X004579Y015281D01*
X004584Y015268D01*
X004652Y015200D01*
X004740Y015164D01*
X005229Y015164D01*
X005317Y015200D01*
X005385Y015268D01*
X005421Y015356D01*
X005421Y015845D01*
X005385Y015934D01*
X005317Y016001D01*
X005229Y016038D01*
X004740Y016038D01*
X004652Y016001D01*
X004584Y015934D01*
X004579Y015921D01*
X003858Y015921D01*
X003679Y016099D01*
X003266Y016099D01*
X002974Y015807D01*
X002974Y015394D01*
X003266Y015102D01*
X003206Y015162D02*
X001034Y015162D01*
X001147Y015004D02*
X000876Y015004D01*
X001036Y014528D02*
X000473Y014528D01*
X000473Y014370D02*
X001036Y014370D01*
X001129Y014211D02*
X000473Y014211D01*
X000473Y014053D02*
X002219Y014053D01*
X002157Y014211D02*
X001816Y014211D01*
X002061Y013894D02*
X000473Y013894D01*
X000473Y013736D02*
X001974Y013736D01*
X001974Y013577D02*
X000473Y013577D01*
X000473Y013418D02*
X001974Y013418D01*
X002108Y013260D02*
X000473Y013260D01*
X001473Y014601D02*
X002473Y014601D01*
X002783Y015321D02*
X003047Y015321D01*
X002974Y015479D02*
X002890Y015479D01*
X002890Y015638D02*
X002974Y015638D01*
X002974Y015797D02*
X002867Y015797D01*
X002709Y015955D02*
X003122Y015955D01*
X003473Y015601D02*
X004984Y015601D01*
X005421Y015638D02*
X005653Y015638D01*
X005653Y015479D02*
X005421Y015479D01*
X005407Y015321D02*
X005653Y015321D01*
X005653Y015162D02*
X003739Y015162D01*
X003775Y015004D02*
X004647Y015004D01*
X004973Y014601D02*
X003473Y014601D01*
X003788Y014211D02*
X004629Y014211D01*
X005316Y014211D02*
X005446Y014211D01*
X005574Y014053D02*
X003726Y014053D01*
X003473Y013601D02*
X003473Y010101D01*
X001473Y010101D01*
X001473Y006101D01*
X002473Y005101D01*
X003973Y003601D01*
X005473Y003601D01*
X005473Y002601D01*
X005897Y002320D02*
X006048Y002320D01*
X005974Y002394D02*
X006266Y002102D01*
X006679Y002102D01*
X006971Y002394D01*
X006971Y002807D01*
X006793Y002986D01*
X006793Y003695D01*
X006805Y003700D01*
X006873Y003768D01*
X006909Y003856D01*
X006909Y004345D01*
X006873Y004434D01*
X006805Y004501D01*
X006717Y004538D01*
X006228Y004538D01*
X006140Y004501D01*
X006072Y004434D01*
X006036Y004345D01*
X006036Y003856D01*
X006072Y003768D01*
X006140Y003700D01*
X006153Y003695D01*
X006153Y002986D01*
X005974Y002807D01*
X005974Y002394D01*
X005971Y002479D02*
X005974Y002479D01*
X005971Y002637D02*
X005974Y002637D01*
X005971Y002796D02*
X005974Y002796D01*
X006121Y002955D02*
X005824Y002955D01*
X005793Y003113D02*
X006153Y003113D01*
X006153Y003272D02*
X005793Y003272D01*
X005793Y003430D02*
X006153Y003430D01*
X006153Y003589D02*
X005793Y003589D01*
X005758Y003747D02*
X006093Y003747D01*
X006036Y003906D02*
X005572Y003906D01*
X006036Y004064D02*
X003962Y004064D01*
X003803Y004223D02*
X006036Y004223D01*
X006051Y004381D02*
X003644Y004381D01*
X003618Y004540D02*
X003486Y004540D01*
X003522Y004699D02*
X003327Y004699D01*
X003169Y004857D02*
X003494Y004857D01*
X003494Y005016D02*
X003010Y005016D01*
X002951Y005174D02*
X003494Y005174D01*
X003494Y005333D02*
X002951Y005333D01*
X002928Y005491D02*
X003517Y005491D01*
X003606Y005650D02*
X002839Y005650D01*
X001994Y005016D02*
X000473Y005016D01*
X000473Y005174D02*
X001947Y005174D01*
X001994Y004857D02*
X000473Y004857D01*
X000473Y004699D02*
X002022Y004699D01*
X002118Y004540D02*
X000473Y004540D01*
X000473Y004381D02*
X002739Y004381D01*
X002898Y004223D02*
X000473Y004223D01*
X003973Y005101D02*
X005473Y005101D01*
X007473Y005101D01*
X007473Y002601D01*
X007121Y002955D02*
X006824Y002955D01*
X006793Y003113D02*
X007153Y003113D01*
X007153Y003272D02*
X006793Y003272D01*
X006793Y003430D02*
X007153Y003430D01*
X007153Y003589D02*
X006793Y003589D01*
X006852Y003747D02*
X007153Y003747D01*
X007153Y003906D02*
X006909Y003906D01*
X006909Y004064D02*
X007153Y004064D01*
X007153Y004223D02*
X006909Y004223D01*
X006894Y004381D02*
X007153Y004381D01*
X007118Y004540D02*
X005828Y004540D01*
X005923Y004699D02*
X007022Y004699D01*
X007473Y005101D02*
X008473Y006101D01*
X007106Y005650D02*
X005839Y005650D01*
X005928Y005491D02*
X007017Y005491D01*
X006473Y004101D02*
X006473Y002601D01*
X006971Y002637D02*
X006974Y002637D01*
X006971Y002479D02*
X006974Y002479D01*
X007048Y002320D02*
X006897Y002320D01*
X006739Y002162D02*
X007206Y002162D01*
X007285Y002003D02*
X006660Y002003D01*
X006645Y002018D02*
X006890Y001774D01*
X006890Y001611D01*
X006483Y001611D01*
X006483Y001591D01*
X006890Y001591D01*
X006890Y001428D01*
X006645Y001183D01*
X006483Y001183D01*
X006483Y001591D01*
X006463Y001591D01*
X006463Y001183D01*
X006300Y001183D01*
X006055Y001428D01*
X006055Y001591D01*
X006462Y001591D01*
X006462Y001611D01*
X006055Y001611D01*
X006055Y001774D01*
X006300Y002018D01*
X006463Y002018D01*
X006463Y001611D01*
X006483Y001611D01*
X006483Y002018D01*
X006645Y002018D01*
X006483Y002003D02*
X006463Y002003D01*
X006463Y001845D02*
X006483Y001845D01*
X006483Y001686D02*
X006463Y001686D01*
X006463Y001528D02*
X006483Y001528D01*
X006483Y001369D02*
X006463Y001369D01*
X006463Y001211D02*
X006483Y001211D01*
X006673Y001211D02*
X007272Y001211D01*
X007114Y001369D02*
X006831Y001369D01*
X006890Y001528D02*
X007055Y001528D01*
X007055Y001686D02*
X006890Y001686D01*
X006819Y001845D02*
X007126Y001845D01*
X007819Y001845D02*
X008126Y001845D01*
X008055Y001686D02*
X007890Y001686D01*
X007890Y001528D02*
X008055Y001528D01*
X008114Y001369D02*
X007831Y001369D01*
X006272Y001211D02*
X005673Y001211D01*
X005645Y001183D02*
X005890Y001428D01*
X005890Y001591D01*
X005483Y001591D01*
X005483Y001611D01*
X005890Y001611D01*
X005890Y001774D01*
X005645Y002018D01*
X005483Y002018D01*
X005483Y001611D01*
X005463Y001611D01*
X005463Y002018D01*
X005300Y002018D01*
X005055Y001774D01*
X005055Y001611D01*
X005462Y001611D01*
X005462Y001591D01*
X005055Y001591D01*
X005055Y001428D01*
X005300Y001183D01*
X005463Y001183D01*
X005463Y001591D01*
X005483Y001591D01*
X005483Y001183D01*
X005645Y001183D01*
X005483Y001211D02*
X005463Y001211D01*
X005463Y001369D02*
X005483Y001369D01*
X005483Y001528D02*
X005463Y001528D01*
X005463Y001686D02*
X005483Y001686D01*
X005483Y001845D02*
X005463Y001845D01*
X005463Y002003D02*
X005483Y002003D01*
X005660Y002003D02*
X006285Y002003D01*
X006206Y002162D02*
X005739Y002162D01*
X005819Y001845D02*
X006126Y001845D01*
X006055Y001686D02*
X005890Y001686D01*
X005890Y001528D02*
X006055Y001528D01*
X006114Y001369D02*
X005831Y001369D01*
X005272Y001211D02*
X004473Y001211D01*
X004473Y001369D02*
X005114Y001369D01*
X005055Y001528D02*
X004473Y001528D01*
X004473Y001686D02*
X005055Y001686D01*
X005126Y001845D02*
X004473Y001845D01*
X004473Y002003D02*
X005285Y002003D01*
X005206Y002162D02*
X004473Y002162D01*
X004473Y002320D02*
X005048Y002320D01*
X004974Y002479D02*
X004473Y002479D01*
X004473Y002637D02*
X004974Y002637D01*
X004974Y002796D02*
X004473Y002796D01*
X004473Y002955D02*
X005121Y002955D01*
X005153Y003113D02*
X004460Y003113D01*
X004302Y003272D02*
X005153Y003272D01*
X005118Y004540D02*
X004328Y004540D01*
X004423Y004699D02*
X005022Y004699D01*
X005017Y005491D02*
X004428Y005491D01*
X004339Y005650D02*
X005106Y005650D01*
X006971Y002796D02*
X006974Y002796D01*
X004473Y001052D02*
X018520Y001052D01*
X018368Y000894D02*
X004473Y000894D01*
X004473Y000735D02*
X018215Y000735D01*
X018063Y000576D02*
X004473Y000576D01*
X009673Y001211D02*
X010272Y001211D01*
X010114Y001369D02*
X009831Y001369D01*
X009890Y001528D02*
X010055Y001528D01*
X010055Y001686D02*
X009890Y001686D01*
X009819Y001845D02*
X010126Y001845D01*
X010819Y001845D02*
X011126Y001845D01*
X011055Y001686D02*
X010890Y001686D01*
X010890Y001528D02*
X011055Y001528D01*
X011114Y001369D02*
X010831Y001369D01*
X011673Y001211D02*
X012272Y001211D01*
X012463Y001211D02*
X012483Y001211D01*
X012483Y001183D02*
X012645Y001183D01*
X012890Y001428D01*
X012890Y001591D01*
X012483Y001591D01*
X012483Y001183D01*
X012483Y001369D02*
X012463Y001369D01*
X012463Y001528D02*
X012483Y001528D01*
X012483Y001686D02*
X012463Y001686D01*
X012463Y001845D02*
X012483Y001845D01*
X012483Y002003D02*
X012463Y002003D01*
X012660Y002003D02*
X017473Y002003D01*
X017548Y001972D02*
X017346Y002056D01*
X017191Y002210D01*
X017126Y002368D01*
X017126Y002328D01*
X016852Y002053D01*
X016658Y002053D01*
X016658Y002522D01*
X016657Y002522D01*
X016189Y002522D01*
X016189Y002328D01*
X016463Y002053D01*
X016657Y002053D01*
X016657Y002522D01*
X016657Y002522D01*
X016189Y002522D01*
X016189Y002716D01*
X016463Y002991D01*
X016657Y002991D01*
X016657Y002522D01*
X016658Y002522D01*
X016658Y002991D01*
X016852Y002991D01*
X017126Y002716D01*
X017126Y002677D01*
X017191Y002834D01*
X017346Y002988D01*
X017548Y003072D01*
X017767Y003072D01*
X017969Y002988D01*
X018124Y002834D01*
X018208Y002631D01*
X018208Y002413D01*
X018124Y002210D01*
X017969Y002056D01*
X017767Y001972D01*
X017548Y001972D01*
X017842Y002003D02*
X019436Y002003D01*
X019283Y001845D02*
X012819Y001845D01*
X012890Y001686D02*
X019131Y001686D01*
X018978Y001528D02*
X012890Y001528D01*
X012831Y001369D02*
X018826Y001369D01*
X018673Y001211D02*
X012673Y001211D01*
X012114Y001369D02*
X011831Y001369D01*
X011890Y001528D02*
X012055Y001528D01*
X012055Y001686D02*
X011890Y001686D01*
X011819Y001845D02*
X012126Y001845D01*
X012739Y002162D02*
X016355Y002162D01*
X016196Y002320D02*
X014632Y002320D01*
X014803Y002479D02*
X016189Y002479D01*
X016189Y002637D02*
X014963Y002637D01*
X015126Y002796D02*
X016269Y002796D01*
X016427Y002955D02*
X015289Y002955D01*
X015451Y003113D02*
X020503Y003113D01*
X020351Y002955D02*
X018003Y002955D01*
X018139Y002796D02*
X020198Y002796D01*
X020046Y002637D02*
X018205Y002637D01*
X018208Y002479D02*
X019893Y002479D01*
X019741Y002320D02*
X018169Y002320D01*
X018075Y002162D02*
X019588Y002162D01*
X020656Y003272D02*
X015614Y003272D01*
X015777Y003430D02*
X020809Y003430D01*
X020961Y003589D02*
X015940Y003589D01*
X016103Y003747D02*
X020973Y003747D01*
X020973Y003906D02*
X016266Y003906D01*
X016428Y004064D02*
X020973Y004064D01*
X020973Y004223D02*
X016591Y004223D01*
X016754Y004381D02*
X020973Y004381D01*
X020973Y004540D02*
X018726Y004540D01*
X018973Y004699D02*
X020091Y004699D01*
X019966Y004857D02*
X019067Y004857D01*
X019101Y005016D02*
X019925Y005016D01*
X019925Y005174D02*
X019101Y005174D01*
X019101Y005491D02*
X019925Y005491D01*
X019928Y005650D02*
X019101Y005650D01*
X019058Y005808D02*
X019978Y005808D01*
X020124Y005967D02*
X018949Y005967D01*
X018064Y005333D02*
X017293Y005333D01*
X017293Y005491D02*
X017960Y005491D01*
X017801Y005650D02*
X017293Y005650D01*
X017293Y005174D02*
X018064Y005174D01*
X018064Y005016D02*
X017293Y005016D01*
X017242Y004857D02*
X018098Y004857D01*
X018192Y004699D02*
X017080Y004699D01*
X016917Y004540D02*
X018439Y004540D01*
X020343Y004699D02*
X020383Y004699D01*
X020383Y004605D02*
X020397Y004605D01*
X020465Y004615D01*
X020531Y004637D01*
X020592Y004668D01*
X020648Y004708D01*
X020696Y004757D01*
X020737Y004813D01*
X020768Y004874D01*
X020789Y004940D01*
X020800Y005008D01*
X020800Y005301D01*
X020383Y005301D01*
X020383Y004605D01*
X020383Y004857D02*
X020343Y004857D01*
X020343Y005016D02*
X020383Y005016D01*
X020383Y005174D02*
X020343Y005174D01*
X020343Y005491D02*
X020383Y005491D01*
X020383Y005650D02*
X020343Y005650D01*
X020343Y005808D02*
X020383Y005808D01*
X020383Y005967D02*
X020343Y005967D01*
X020800Y005174D02*
X020973Y005174D01*
X020973Y005016D02*
X020800Y005016D01*
X020759Y004857D02*
X020973Y004857D01*
X020973Y004699D02*
X020634Y004699D01*
X017312Y002955D02*
X016888Y002955D01*
X017046Y002796D02*
X017176Y002796D01*
X017146Y002320D02*
X017119Y002320D01*
X017240Y002162D02*
X016960Y002162D01*
X016658Y002162D02*
X016657Y002162D01*
X016657Y002320D02*
X016658Y002320D01*
X016657Y002479D02*
X016658Y002479D01*
X016657Y002637D02*
X016658Y002637D01*
X016657Y002796D02*
X016658Y002796D01*
X016657Y002955D02*
X016658Y002955D01*
X015973Y005101D02*
X014973Y005101D01*
X009974Y002796D02*
X009971Y002796D01*
X007154Y008504D02*
X005791Y008504D01*
X005908Y008662D02*
X007037Y008662D01*
X006994Y008821D02*
X006895Y008821D01*
X006909Y008979D02*
X006994Y008979D01*
X006994Y009138D02*
X006909Y009138D01*
X006909Y009296D02*
X006994Y009296D01*
X007002Y009455D02*
X006852Y009455D01*
X007069Y009613D02*
X005876Y009613D01*
X005943Y009455D02*
X006094Y009455D01*
X006473Y009101D02*
X005473Y009101D01*
X004994Y009138D02*
X004462Y009138D01*
X004451Y008979D02*
X004994Y008979D01*
X004994Y008821D02*
X004451Y008821D01*
X004408Y008662D02*
X005037Y008662D01*
X005154Y008504D02*
X004291Y008504D01*
X003654Y008504D02*
X002791Y008504D01*
X002908Y008662D02*
X003537Y008662D01*
X004621Y009296D02*
X004994Y009296D01*
X005002Y009455D02*
X004779Y009455D01*
X004938Y009613D02*
X005069Y009613D01*
X005096Y009772D02*
X005266Y009772D01*
X005680Y009772D02*
X007266Y009772D01*
X007473Y009101D02*
X008473Y009101D01*
X009486Y011199D02*
X010422Y011199D01*
X010851Y011674D02*
X011153Y011674D01*
X011063Y011833D02*
X010693Y011833D01*
X010994Y011992D02*
X009498Y011992D01*
X009374Y012150D02*
X010994Y012150D01*
X011003Y012309D02*
X010390Y012309D01*
X010409Y012467D02*
X011162Y012467D01*
X011809Y013260D02*
X015136Y013260D01*
X014994Y013418D02*
X011951Y013418D01*
X011951Y013577D02*
X014994Y013577D01*
X014994Y013736D02*
X011951Y013736D01*
X011856Y013894D02*
X015089Y013894D01*
X015153Y014053D02*
X011793Y014053D01*
X011773Y014211D02*
X015153Y014211D01*
X015153Y014370D02*
X011656Y014370D01*
X011498Y014528D02*
X015153Y014528D01*
X015153Y014687D02*
X011736Y014687D01*
X011894Y014845D02*
X015051Y014845D01*
X014994Y015004D02*
X011951Y015004D01*
X011951Y015162D02*
X014994Y015162D01*
X015016Y015321D02*
X011929Y015321D01*
X011771Y015479D02*
X015174Y015479D01*
X015809Y013260D02*
X016136Y013260D01*
X011473Y013601D02*
X011473Y014101D01*
X008973Y016601D01*
X008536Y016589D02*
X006409Y016589D01*
X006409Y016431D02*
X008536Y016431D01*
X008571Y016272D02*
X006375Y016272D01*
X006293Y016114D02*
X009007Y016114D01*
X009166Y015955D02*
X006293Y015955D01*
X006293Y015797D02*
X009324Y015797D01*
X009483Y015638D02*
X006293Y015638D01*
X006293Y015479D02*
X009641Y015479D01*
X009800Y015321D02*
X006293Y015321D01*
X006293Y015162D02*
X009958Y015162D01*
X010546Y015479D02*
X011174Y015479D01*
X011016Y015321D02*
X010705Y015321D01*
X010864Y015162D02*
X010994Y015162D01*
X008973Y014845D02*
X008972Y014845D01*
X008972Y014687D02*
X008973Y014687D01*
X008972Y014528D02*
X008973Y014528D01*
X008972Y014370D02*
X008973Y014370D01*
X008972Y014211D02*
X008973Y014211D01*
X008973Y013601D02*
X009973Y013601D01*
X009580Y013260D02*
X009547Y013260D01*
X009546Y012943D02*
X009581Y012943D01*
X009973Y012601D02*
X008973Y012601D01*
X005973Y012601D02*
X004973Y012601D01*
X005364Y012943D02*
X005399Y012943D01*
X005398Y013260D02*
X003837Y013260D01*
X003473Y013601D02*
X005973Y013601D01*
X005973Y014601D02*
X005973Y016601D01*
X006409Y016748D02*
X008536Y016748D01*
X008561Y016906D02*
X006384Y016906D01*
X005653Y015955D02*
X005363Y015955D01*
X005421Y015797D02*
X005653Y015797D01*
X004606Y015955D02*
X003824Y015955D01*
X002483Y015955D02*
X002463Y015955D01*
X002463Y015797D02*
X002483Y015797D01*
X005299Y015004D02*
X005460Y015004D01*
X004191Y009772D02*
X004180Y009772D01*
X002266Y009772D02*
X001793Y009772D01*
X001793Y009613D02*
X002069Y009613D01*
X002002Y009455D02*
X001793Y009455D01*
X001793Y009296D02*
X001994Y009296D01*
X001994Y009138D02*
X001793Y009138D01*
X001793Y008979D02*
X001994Y008979D01*
X001994Y008821D02*
X001793Y008821D01*
X001793Y008662D02*
X002037Y008662D01*
X002154Y008504D02*
X001793Y008504D01*
D22*
X006473Y009101D03*
X008473Y009101D03*
X010973Y011101D03*
X009973Y012601D03*
X009973Y013601D03*
X008973Y016601D03*
X005973Y016601D03*
X004984Y015601D03*
X004973Y014601D03*
X004973Y012601D03*
X001473Y014601D03*
X014973Y011101D03*
X014973Y010101D03*
X017473Y015101D03*
X010473Y004101D03*
X008473Y004101D03*
X006473Y004101D03*
M02*
